{"glyphs":{"0":{"ha":876,"x_min":0,"x_max":0,"o":"m 439 -22 b 57 458 210 -22 57 113 b 439 939 57 747 164 939 b 819 457 667 939 819 804 b 439 -22 819 169 713 -22 m 279 458 b 439 150 279 274 324 150 b 597 457 535 150 597 236 b 439 765 597 642 554 764 b 279 458 343 765 279 679 "},"1":{"ha":503,"x_min":0,"x_max":0,"o":"m 189 683 b 33 583 151 653 104 618 l 33 779 b 228 917 85 801 143 843 l 406 917 l 406 0 l 189 0 l 189 683 "},"2":{"ha":792,"x_min":0,"x_max":0,"o":"m 65 201 b 465 608 311 319 465 450 b 306 760 465 713 406 760 b 58 660 229 760 154 724 l 58 838 b 379 939 133 896 243 939 b 708 669 556 939 708 871 b 356 203 708 500 604 329 l 356 201 l 742 201 l 742 0 l 65 0 l 65 201 "},"3":{"ha":792,"x_min":0,"x_max":0,"o":"m 371 -22 b 54 50 251 -22 154 3 l 54 226 b 321 157 139 190 224 157 b 504 285 429 157 504 193 b 286 413 504 361 446 413 l 207 413 l 207 510 b 457 731 289 583 372 657 l 67 731 l 67 917 l 711 917 l 711 744 b 429 504 619 664 525 583 l 454 504 b 742 269 608 504 742 449 b 371 -22 742 100 640 -22 "},"4":{"ha":806,"x_min":0,"x_max":0,"o":"m 454 181 l 39 181 l 39 393 l 382 917 l 671 917 l 671 347 l 763 347 l 763 181 l 671 181 l 671 0 l 454 0 m 454 347 l 454 703 l 222 347 "},"5":{"ha":769,"x_min":0,"x_max":0,"o":"m 358 -22 b 44 50 246 -22 142 3 l 44 226 b 314 157 135 190 222 157 b 490 282 411 157 490 192 b 246 411 490 389 375 411 l 110 411 l 110 917 l 676 917 l 676 731 l 310 731 l 310 535 l 358 535 b 728 265 517 535 728 499 b 358 -22 728 93 614 -22 "},"6":{"ha":844,"x_min":0,"x_max":0,"o":"m 446 -22 b 56 465 218 -22 56 119 b 481 939 56 772 204 939 b 733 871 568 939 664 918 l 733 697 b 510 771 661 744 576 771 b 258 442 369 771 260 685 l 268 442 b 521 596 317 538 401 596 b 801 304 676 596 801 513 b 446 -22 801 110 682 -22 m 325 293 b 449 139 325 211 360 139 b 581 292 524 139 581 192 b 457 436 581 369 546 436 b 325 293 381 436 325 388 "},"7":{"ha":690,"x_min":0,"x_max":0,"o":"m 444 729 l 28 729 l 28 917 l 664 917 l 664 744 l 333 0 l 115 0 "},"8":{"ha":825,"x_min":0,"x_max":0,"o":"m 415 -22 b 56 235 204 -22 56 57 b 239 454 56 347 121 428 l 239 461 b 74 689 147 492 74 568 b 410 939 74 835 183 939 b 751 685 601 939 751 863 b 586 461 751 578 697 492 l 586 454 b 771 233 688 429 771 361 b 415 -22 771 85 663 -22 m 286 272 b 415 142 286 188 339 142 b 540 267 485 142 540 178 b 413 399 540 356 486 399 b 286 272 350 399 286 368 m 292 654 b 415 531 292 579 339 531 b 535 650 483 531 535 567 b 413 783 535 725 497 783 b 292 654 338 783 292 739 "},"9":{"ha":850,"x_min":0,"x_max":0,"o":"m 368 -22 b 106 46 274 -22 175 -1 l 106 219 b 340 146 178 172 264 146 b 592 429 479 146 592 221 l 582 429 b 335 293 539 342 458 293 b 49 603 176 293 49 379 b 407 939 49 806 176 939 b 794 471 640 939 794 806 b 368 -22 794 150 644 -22 m 269 610 b 393 460 269 525 304 460 b 525 608 469 460 525 507 b 403 769 525 694 490 769 b 269 610 326 769 269 715 "}," ":{"ha":264,"x_min":0,"x_max":0,"o":""},"A":{"ha":913,"x_min":0,"x_max":0,"o":"m 308 917 l 604 917 l 907 0 l 689 0 l 628 199 l 283 199 b 222 0 265 142 246 76 l 4 0 m 572 378 l 525 526 b 461 735 504 597 483 660 l 451 735 b 383 519 425 649 408 600 b 339 378 369 474 356 428 "},"Á":{"ha":913,"x_min":0,"x_max":0,"o":"m 308 917 l 604 917 l 907 0 l 689 0 l 628 199 l 283 199 b 222 0 265 142 246 76 l 4 0 m 572 378 l 525 526 b 461 735 504 597 483 660 l 451 735 b 383 519 425 649 408 600 b 339 378 369 474 356 428 m 440 1158 l 682 1158 l 540 972 l 358 972 "},"Ă":{"ha":913,"x_min":0,"x_max":0,"o":"m 308 917 l 604 917 l 907 0 l 689 0 l 628 199 l 283 199 b 222 0 265 142 246 76 l 4 0 m 374 1143 b 461 1074 382 1097 415 1074 b 550 1143 507 1074 542 1097 l 706 1143 b 467 971 692 1029 586 971 l 457 971 b 218 1143 325 971 231 1029 m 572 378 l 525 526 b 461 735 504 597 483 660 l 451 735 b 383 519 425 649 408 600 b 339 378 369 474 356 428 "},"Â":{"ha":913,"x_min":0,"x_max":0,"o":"m 308 917 l 604 917 l 907 0 l 689 0 l 628 199 l 283 199 b 222 0 265 142 246 76 l 4 0 m 344 1158 l 567 1158 l 711 972 l 529 972 b 456 1085 507 997 478 1039 b 381 972 432 1039 403 997 l 200 972 m 572 378 l 525 526 b 461 735 504 597 483 660 l 451 735 b 383 519 425 649 408 600 b 339 378 369 474 356 428 "},"Ä":{"ha":913,"x_min":0,"x_max":0,"o":"m 308 917 l 604 917 l 907 0 l 689 0 l 628 199 l 283 199 b 222 0 265 142 246 76 l 4 0 m 242 1068 b 335 1147 242 1117 263 1147 b 429 1068 404 1147 429 1119 b 335 989 429 1014 399 989 b 242 1068 275 989 242 1010 m 572 378 l 525 526 b 461 735 504 597 483 660 l 451 735 b 383 519 425 649 408 600 b 339 378 369 474 356 428 m 482 1068 b 576 1147 482 1117 504 1147 b 669 1068 644 1147 669 1119 b 576 989 669 1014 640 989 b 482 1068 517 989 482 1010 "},"À":{"ha":913,"x_min":0,"x_max":0,"o":"m 308 917 l 604 917 l 907 0 l 689 0 l 628 199 l 283 199 b 222 0 265 142 246 76 l 4 0 m 475 1158 l 557 972 l 375 972 l 233 1158 m 572 378 l 525 526 b 461 735 504 597 483 660 l 451 735 b 383 519 425 649 408 600 b 339 378 369 474 356 428 "},"Ā":{"ha":913,"x_min":0,"x_max":0,"o":"m 308 917 l 604 917 l 907 0 l 689 0 l 628 199 l 283 199 b 222 0 265 142 246 76 l 4 0 m 249 1131 l 664 1131 l 664 1004 l 249 1004 m 572 378 l 525 526 b 461 735 504 597 483 660 l 451 735 b 383 519 425 649 408 600 b 339 378 369 474 356 428 "},"Ą":{"ha":913,"x_min":0,"x_max":0,"o":"m 308 917 l 604 917 l 907 0 l 783 0 b 679 -115 743 -19 679 -58 b 738 -167 679 -146 699 -167 b 824 -139 775 -167 813 -149 l 824 -229 b 710 -260 790 -249 750 -260 b 574 -146 626 -260 574 -214 b 689 3 574 -74 638 -25 l 628 199 l 283 199 b 222 0 265 142 246 76 l 4 0 m 572 378 l 525 526 b 461 735 504 597 483 660 l 451 735 b 383 519 425 649 408 600 b 339 378 369 474 356 428 "},"Å":{"ha":913,"x_min":0,"x_max":0,"o":"m 308 917 l 604 917 l 907 0 l 689 0 l 628 199 l 283 199 b 222 0 265 142 246 76 l 4 0 m 329 1057 b 456 1175 329 1128 381 1176 b 582 1057 522 1174 582 1136 b 456 943 582 989 531 943 b 329 1057 390 943 329 979 m 572 378 l 525 526 b 461 735 504 597 483 660 l 451 735 b 383 519 425 649 408 600 b 339 378 369 474 356 428 m 413 1058 b 456 1014 413 1033 426 1014 b 500 1058 482 1014 500 1029 b 457 1104 500 1085 486 1104 b 413 1058 431 1104 413 1088 "},"Ǻ":{"ha":913,"x_min":0,"x_max":0,"o":"m 308 917 l 604 917 l 907 0 l 689 0 l 628 199 l 283 199 b 222 0 265 142 246 76 l 4 0 m 329 1057 b 456 1175 329 1128 381 1176 b 582 1057 522 1174 582 1136 b 456 943 582 989 531 943 b 329 1057 390 943 329 979 m 572 378 l 525 526 b 461 735 504 597 483 660 l 451 735 b 383 519 425 649 408 600 b 339 378 369 474 356 428 m 440 1411 l 682 1411 l 540 1225 l 358 1225 m 413 1058 b 456 1014 413 1033 426 1014 b 500 1058 482 1014 500 1029 b 457 1104 500 1085 486 1104 b 413 1058 431 1104 413 1088 "},"Ã":{"ha":913,"x_min":0,"x_max":0,"o":"m 308 917 l 604 917 l 907 0 l 689 0 l 628 199 l 283 199 b 222 0 265 142 246 76 l 4 0 m 261 1097 b 375 1139 279 1114 322 1139 b 538 1103 438 1139 476 1103 b 658 1150 593 1103 632 1129 l 658 1035 b 531 986 638 1018 588 986 b 365 1021 472 986 429 1021 b 261 986 329 1021 293 1010 m 572 378 l 525 526 b 461 735 504 597 483 660 l 451 735 b 383 519 425 649 408 600 b 339 378 369 474 356 428 "},"Æ":{"ha":1222,"x_min":0,"x_max":0,"o":"m 301 917 l 1154 917 l 1154 739 l 744 739 l 744 544 l 1135 544 l 1135 382 l 744 382 l 744 178 l 1163 178 l 1163 0 l 528 0 l 528 200 l 282 200 l 217 0 l 0 0 m 528 378 l 528 735 l 449 735 b 339 378 413 617 376 496 "},"Ǽ":{"ha":1222,"x_min":0,"x_max":0,"o":"m 301 917 l 1154 917 l 1154 739 l 744 739 l 744 544 l 1135 544 l 1135 382 l 744 382 l 744 178 l 1163 178 l 1163 0 l 528 0 l 528 200 l 282 200 l 217 0 l 0 0 m 528 378 l 528 735 l 449 735 b 339 378 413 617 376 496 m 596 1158 l 838 1158 l 696 972 l 514 972 "},"B":{"ha":899,"x_min":0,"x_max":0,"o":"m 94 917 l 519 917 b 817 679 697 917 817 850 b 672 469 817 582 776 507 l 672 463 b 856 250 782 447 856 385 b 533 0 856 100 765 0 l 94 0 m 483 150 b 642 268 579 150 642 183 b 494 381 642 363 563 381 l 311 381 l 311 150 m 461 519 b 617 636 554 519 617 551 b 485 751 617 703 579 751 l 311 751 l 311 519 "},"":{"ha":899,"x_min":0,"x_max":0,"o":"m 94 0 l 533 0 b 856 250 765 0 856 100 b 672 463 856 385 782 447 l 672 469 b 817 679 776 507 817 582 b 519 917 817 850 697 917 l 94 917 m 311 150 l 311 381 l 494 381 b 642 268 563 381 642 363 b 483 150 642 183 579 150 m 311 519 l 311 751 l 485 751 b 617 636 579 751 617 703 b 461 519 617 551 554 519 "},"C":{"ha":854,"x_min":0,"x_max":0,"o":"m 486 -22 b 51 460 228 -22 51 113 b 482 939 51 747 174 939 b 797 861 588 939 697 917 l 797 667 b 517 744 707 715 611 744 b 274 463 372 744 274 665 b 525 172 274 288 344 172 b 810 250 608 172 704 192 l 810 60 b 486 -22 735 14 624 -22 "},"Ć":{"ha":854,"x_min":0,"x_max":0,"o":"m 486 -22 b 51 460 228 -22 51 113 b 482 939 51 747 174 939 b 797 861 588 939 697 917 l 797 667 b 517 744 707 715 611 744 b 274 463 372 744 274 665 b 525 172 274 288 344 172 b 810 250 608 172 704 192 l 810 60 b 486 -22 735 14 624 -22 m 453 1158 l 694 1158 l 553 972 l 371 972 "},"Č":{"ha":854,"x_min":0,"x_max":0,"o":"m 486 -22 b 51 460 228 -22 51 113 b 482 939 51 747 174 939 b 797 861 588 939 697 917 l 797 667 b 517 744 707 715 611 744 b 274 463 372 744 274 665 b 525 172 274 288 344 172 b 810 250 608 172 704 192 l 810 60 b 486 -22 735 14 624 -22 m 394 1153 b 468 1040 417 1128 444 1086 b 540 1153 490 1086 518 1128 l 724 1153 l 579 972 l 357 972 l 213 1153 "},"Ç":{"ha":854,"x_min":0,"x_max":0,"o":"m 388 -15 b 51 460 183 18 51 158 b 482 939 51 747 174 939 b 797 861 588 939 697 917 l 797 667 b 517 744 707 715 611 744 b 274 463 372 744 274 665 b 525 172 274 288 344 172 b 810 250 608 172 704 192 l 810 60 b 539 -21 744 19 653 -12 l 506 -181 l 319 -181 "},"Ĉ":{"ha":854,"x_min":0,"x_max":0,"o":"m 486 -22 b 51 460 228 -22 51 113 b 482 939 51 747 174 939 b 797 861 588 939 697 917 l 797 667 b 517 744 707 715 611 744 b 274 463 372 744 274 665 b 525 172 274 288 344 172 b 810 250 608 172 704 192 l 810 60 b 486 -22 735 14 624 -22 m 357 1158 l 579 1158 l 724 972 l 542 972 b 468 1085 519 997 490 1039 b 393 972 444 1039 415 997 l 213 972 "},"Ċ":{"ha":854,"x_min":0,"x_max":0,"o":"m 486 -22 b 51 460 228 -22 51 113 b 482 939 51 747 174 939 b 797 861 588 939 697 917 l 797 667 b 517 744 707 715 611 744 b 274 463 372 744 274 665 b 525 172 274 288 344 172 b 810 250 608 172 704 192 l 810 60 b 486 -22 735 14 624 -22 m 358 1075 b 468 1161 358 1128 382 1161 b 579 1075 551 1161 579 1131 b 468 990 579 1017 546 990 b 358 1075 394 990 358 1013 "},"D":{"ha":943,"x_min":0,"x_max":0,"o":"m 94 917 l 474 917 b 893 458 718 917 893 789 b 447 0 893 183 764 0 l 94 0 m 438 194 b 669 457 571 194 669 268 b 449 722 669 615 599 722 l 311 722 l 311 194 "},"Ð":{"ha":943,"x_min":0,"x_max":0,"o":"m 94 381 l -14 381 l -14 533 l 94 533 l 94 917 l 474 917 b 893 458 718 917 893 789 b 447 0 893 183 764 0 l 94 0 m 438 194 b 669 457 571 194 669 268 b 449 722 669 615 599 722 l 311 722 l 311 533 l 493 533 l 493 381 l 311 381 l 311 194 "},"Ď":{"ha":943,"x_min":0,"x_max":0,"o":"m 94 917 l 474 917 b 893 458 718 917 893 789 b 447 0 893 183 764 0 l 94 0 m 329 1153 b 403 1040 351 1128 379 1086 b 475 1153 425 1086 453 1128 l 658 1153 l 514 972 l 292 972 l 147 1153 m 438 194 b 669 457 571 194 669 268 b 449 722 669 615 599 722 l 311 722 l 311 194 "},"Đ":{"ha":943,"x_min":0,"x_max":0,"o":"m 94 381 l -14 381 l -14 533 l 94 533 l 94 917 l 474 917 b 893 458 718 917 893 789 b 447 0 893 183 764 0 l 94 0 m 438 194 b 669 457 571 194 669 268 b 449 722 669 615 599 722 l 311 722 l 311 533 l 493 533 l 493 381 l 311 381 l 311 194 "},"Ḍ":{"ha":943,"x_min":0,"x_max":0,"o":"m 94 917 l 474 917 b 893 458 718 917 893 789 b 447 0 893 183 764 0 l 94 0 m 310 -149 b 421 -64 310 -97 335 -64 b 531 -149 504 -64 531 -94 b 421 -235 531 -207 499 -235 b 310 -149 347 -235 310 -211 m 438 194 b 669 457 571 194 669 268 b 449 722 669 615 599 722 l 311 722 l 311 194 "},"E":{"ha":789,"x_min":0,"x_max":0,"o":"m 94 917 l 721 917 l 721 739 l 311 739 l 311 544 l 701 544 l 701 382 l 311 382 l 311 178 l 731 178 l 731 0 l 94 0 "},"":{"ha":789,"x_min":0,"x_max":0,"o":"m 94 0 l 731 0 l 731 178 l 311 178 l 311 382 l 701 382 l 701 544 l 311 544 l 311 739 l 721 739 l 721 917 l 94 917 "},"É":{"ha":789,"x_min":0,"x_max":0,"o":"m 94 917 l 721 917 l 721 739 l 311 739 l 311 544 l 701 544 l 701 382 l 311 382 l 311 178 l 731 178 l 731 0 l 94 0 m 390 1158 l 632 1158 l 490 972 l 308 972 "},"Ĕ":{"ha":789,"x_min":0,"x_max":0,"o":"m 94 917 l 721 917 l 721 739 l 311 739 l 311 544 l 701 544 l 701 382 l 311 382 l 311 178 l 731 178 l 731 0 l 94 0 m 301 1143 b 389 1074 310 1097 343 1074 b 478 1143 435 1074 469 1097 l 633 1143 b 394 971 619 1029 514 971 l 385 971 b 146 1143 253 971 158 1029 "},"Ě":{"ha":789,"x_min":0,"x_max":0,"o":"m 94 917 l 721 917 l 721 739 l 311 739 l 311 544 l 701 544 l 701 382 l 311 382 l 311 178 l 731 178 l 731 0 l 94 0 m 332 1153 b 406 1040 354 1128 382 1086 b 478 1153 428 1086 456 1128 l 661 1153 l 517 972 l 294 972 l 150 1153 "},"Ê":{"ha":789,"x_min":0,"x_max":0,"o":"m 94 917 l 721 917 l 721 739 l 311 739 l 311 544 l 701 544 l 701 382 l 311 382 l 311 178 l 731 178 l 731 0 l 94 0 m 294 1158 l 517 1158 l 661 972 l 479 972 b 406 1085 457 997 428 1039 b 331 972 382 1039 353 997 l 150 972 "},"Ë":{"ha":789,"x_min":0,"x_max":0,"o":"m 94 917 l 721 917 l 721 739 l 311 739 l 311 544 l 701 544 l 701 382 l 311 382 l 311 178 l 731 178 l 731 0 l 94 0 m 169 1068 b 263 1147 169 1117 190 1147 b 357 1068 332 1147 357 1119 b 263 989 357 1014 326 989 b 169 1068 203 989 169 1010 m 410 1068 b 504 1147 410 1117 432 1147 b 597 1068 572 1147 597 1119 b 504 989 597 1014 568 989 b 410 1068 444 989 410 1010 "},"Ė":{"ha":789,"x_min":0,"x_max":0,"o":"m 94 917 l 721 917 l 721 739 l 311 739 l 311 544 l 701 544 l 701 382 l 311 382 l 311 178 l 731 178 l 731 0 l 94 0 m 294 1075 b 404 1161 294 1128 318 1161 b 515 1075 488 1161 515 1131 b 404 990 515 1017 482 990 b 294 1075 331 990 294 1013 "},"È":{"ha":789,"x_min":0,"x_max":0,"o":"m 94 917 l 721 917 l 721 739 l 311 739 l 311 544 l 701 544 l 701 382 l 311 382 l 311 178 l 731 178 l 731 0 l 94 0 m 425 1158 l 507 972 l 325 972 l 183 1158 "},"Ē":{"ha":789,"x_min":0,"x_max":0,"o":"m 94 917 l 721 917 l 721 739 l 311 739 l 311 544 l 701 544 l 701 382 l 311 382 l 311 178 l 731 178 l 731 0 l 94 0 m 175 1131 l 590 1131 l 590 1004 l 175 1004 "},"Ę":{"ha":789,"x_min":0,"x_max":0,"o":"m 94 917 l 721 917 l 721 739 l 311 739 l 311 544 l 701 544 l 701 382 l 311 382 l 311 178 l 731 178 l 731 0 l 729 0 b 625 -115 689 -19 625 -58 b 683 -167 625 -146 644 -167 b 769 -139 721 -167 758 -149 l 769 -229 b 656 -260 736 -249 696 -260 b 519 -146 572 -260 519 -214 b 629 0 519 -75 581 -26 l 94 0 "},"Ẽ":{"ha":789,"x_min":0,"x_max":0,"o":"m 94 917 l 721 917 l 721 739 l 311 739 l 311 544 l 701 544 l 701 382 l 311 382 l 311 178 l 731 178 l 731 0 l 94 0 m 189 1097 b 303 1139 207 1114 250 1139 b 465 1103 365 1139 404 1103 b 586 1150 521 1103 560 1129 l 586 1035 b 458 986 565 1018 515 986 b 293 1021 400 986 357 1021 b 189 986 257 1021 221 1010 "},"Ə":{"ha":913,"x_min":0,"x_max":0,"o":"m 435 -21 b 51 422 207 -21 51 71 l 51 514 l 642 514 b 393 744 633 664 538 747 b 110 667 301 744 200 715 l 110 861 b 439 939 210 917 333 939 b 863 465 726 939 863 779 b 435 -21 863 204 775 -21 m 254 368 b 447 151 254 233 301 151 b 643 368 575 151 643 219 l 254 368 "},"F":{"ha":761,"x_min":0,"x_max":0,"o":"m 94 917 l 721 917 l 721 715 l 311 715 l 311 524 l 668 524 l 668 346 l 311 346 l 311 0 l 94 0 "},"G":{"ha":910,"x_min":0,"x_max":0,"o":"m 514 -22 b 49 460 228 -22 49 143 b 503 939 49 764 217 939 b 814 861 636 939 754 900 l 814 667 b 533 744 732 708 643 744 b 271 465 389 744 271 681 b 538 149 271 271 368 149 b 644 183 583 149 625 160 l 644 458 l 853 458 l 853 93 b 514 -22 799 35 676 -22 "},"Ğ":{"ha":910,"x_min":0,"x_max":0,"o":"m 514 -22 b 49 460 228 -22 49 143 b 503 939 49 764 217 939 b 814 861 636 939 754 900 l 814 667 b 533 744 732 708 643 744 b 271 465 389 744 271 681 b 538 149 271 271 368 149 b 644 183 583 149 625 160 l 644 458 l 853 458 l 853 93 b 514 -22 799 35 676 -22 m 379 1143 b 467 1074 388 1097 421 1074 b 556 1143 513 1074 547 1097 l 711 1143 b 472 971 697 1029 592 971 l 463 971 b 224 1143 331 971 236 1029 "},"Ĝ":{"ha":910,"x_min":0,"x_max":0,"o":"m 514 -22 b 49 460 228 -22 49 143 b 503 939 49 764 217 939 b 814 861 636 939 754 900 l 814 667 b 533 744 732 708 643 744 b 271 465 389 744 271 681 b 538 149 271 271 368 149 b 644 183 583 149 625 160 l 644 458 l 853 458 l 853 93 b 514 -22 799 35 676 -22 m 350 1158 l 572 1158 l 717 972 l 535 972 b 461 1085 513 997 483 1039 b 386 972 438 1039 408 997 l 206 972 "},"Ģ":{"ha":910,"x_min":0,"x_max":0,"o":"m 514 -22 b 49 460 228 -22 49 143 b 503 939 49 764 217 939 b 814 861 636 939 754 900 l 814 667 b 533 744 732 708 643 744 b 271 465 389 744 271 681 b 538 149 271 271 368 149 b 644 183 583 149 625 160 l 644 458 l 853 458 l 853 93 b 514 -22 799 35 676 -22 m 361 -56 l 600 -56 l 469 -236 l 288 -236 "},"Ġ":{"ha":910,"x_min":0,"x_max":0,"o":"m 514 -22 b 49 460 228 -22 49 143 b 503 939 49 764 217 939 b 814 861 636 939 754 900 l 814 667 b 533 744 732 708 643 744 b 271 465 389 744 271 681 b 538 149 271 271 368 149 b 644 183 583 149 625 160 l 644 458 l 853 458 l 853 93 b 514 -22 799 35 676 -22 m 351 1075 b 461 1161 351 1128 375 1161 b 572 1075 544 1161 572 1131 b 461 990 572 1017 539 990 b 351 1075 388 990 351 1013 "},"Ḡ":{"ha":910,"x_min":0,"x_max":0,"o":"m 514 -22 b 49 460 228 -22 49 143 b 503 939 49 764 217 939 b 814 861 636 939 754 900 l 814 667 b 533 744 732 708 643 744 b 271 465 389 744 271 681 b 538 149 271 271 368 149 b 644 183 583 149 625 160 l 644 458 l 853 458 l 853 93 b 514 -22 799 35 676 -22 m 253 1131 l 668 1131 l 668 1004 l 253 1004 "},"H":{"ha":968,"x_min":0,"x_max":0,"o":"m 657 351 l 311 351 l 311 0 l 94 0 l 94 917 l 311 917 l 311 546 l 657 546 l 657 917 l 874 917 l 874 0 l 657 0 "},"Ħ":{"ha":968,"x_min":0,"x_max":0,"o":"m 657 351 l 311 351 l 311 0 l 94 0 l 94 658 l 25 658 l 25 811 l 94 811 l 94 917 l 311 917 l 311 811 l 657 811 l 657 917 l 874 917 l 874 811 l 947 811 l 947 658 l 874 658 l 874 0 l 657 0 m 657 546 l 657 658 l 311 658 l 311 546 "},"Ĥ":{"ha":968,"x_min":0,"x_max":0,"o":"m 657 351 l 311 351 l 311 0 l 94 0 l 94 917 l 311 917 l 311 546 l 657 546 l 657 917 l 874 917 l 874 0 l 657 0 m 375 1158 l 597 1158 l 742 972 l 560 972 b 486 1085 538 997 508 1039 b 411 972 463 1039 433 997 l 231 972 "},"I":{"ha":406,"x_min":0,"x_max":0,"o":"m 94 917 l 311 917 l 311 0 l 94 0 "},"Ĳ":{"ha":990,"x_min":0,"x_max":0,"o":"m 94 917 l 311 917 l 311 0 l 94 0 m 429 199 b 571 161 450 190 510 161 b 685 399 682 161 685 250 l 685 917 l 901 917 l 901 299 b 613 -22 901 156 893 -22 b 429 8 542 -22 469 -8 "},"Í":{"ha":406,"x_min":0,"x_max":0,"o":"m 94 917 l 311 917 l 311 0 l 94 0 m 189 1158 l 431 1158 l 289 972 l 107 972 "},"Ĭ":{"ha":406,"x_min":0,"x_max":0,"o":"m 94 917 l 311 917 l 311 0 l 94 0 m 124 1143 b 211 1074 132 1097 165 1074 b 300 1143 257 1074 292 1097 l 456 1143 b 217 971 442 1029 336 971 l 207 971 b -32 1143 75 971 -19 1029 "},"Î":{"ha":406,"x_min":0,"x_max":0,"o":"m 94 917 l 311 917 l 311 0 l 94 0 m 93 1158 l 315 1158 l 460 972 l 278 972 b 204 1085 256 997 226 1039 b 129 972 181 1039 151 997 l -51 972 "},"Ï":{"ha":406,"x_min":0,"x_max":0,"o":"m 94 917 l 311 917 l 311 0 l 94 0 m -8 1068 b 85 1147 -8 1117 13 1147 b 179 1068 154 1147 179 1119 b 85 989 179 1014 149 989 b -8 1068 25 989 -8 1010 m 232 1068 b 326 1147 232 1117 254 1147 b 419 1068 394 1147 419 1119 b 326 989 419 1014 390 989 b 232 1068 267 989 232 1010 "},"İ":{"ha":406,"x_min":0,"x_max":0,"o":"m 94 917 l 311 917 l 311 0 l 94 0 m 93 1075 b 203 1161 93 1128 117 1161 b 314 1075 286 1161 314 1131 b 203 990 314 1017 281 990 b 93 1075 129 990 93 1013 "},"Ì":{"ha":406,"x_min":0,"x_max":0,"o":"m 94 917 l 311 917 l 311 0 l 94 0 m 224 1158 l 306 972 l 124 972 l -18 1158 "},"Ī":{"ha":406,"x_min":0,"x_max":0,"o":"m 94 917 l 311 917 l 311 0 l 94 0 m -3 1131 l 413 1131 l 413 1004 l -3 1004 "},"Į":{"ha":406,"x_min":0,"x_max":0,"o":"m 94 917 l 311 917 l 311 0 l 257 0 b 153 -115 217 -19 153 -58 b 211 -167 153 -146 172 -167 b 297 -139 249 -167 286 -149 l 297 -229 b 183 -260 264 -249 224 -260 b 47 -146 100 -260 47 -214 b 157 0 47 -75 108 -26 l 94 0 "},"Ĩ":{"ha":406,"x_min":0,"x_max":0,"o":"m 94 917 l 311 917 l 311 0 l 94 0 m 11 1097 b 125 1139 29 1114 72 1139 b 288 1103 188 1139 226 1103 b 408 1150 343 1103 382 1129 l 408 1035 b 281 986 388 1018 338 986 b 115 1021 222 986 179 1021 b 11 986 79 1021 43 1010 "},"J":{"ha":585,"x_min":0,"x_max":0,"o":"m 207 -22 b 24 8 136 -22 64 -8 l 24 199 b 165 161 44 190 104 161 b 279 399 276 161 279 250 l 279 917 l 496 917 l 496 299 b 207 -22 496 156 488 -22 "},"Ĵ":{"ha":585,"x_min":0,"x_max":0,"o":"m 207 -22 b 24 8 136 -22 64 -8 l 24 199 b 165 161 44 190 104 161 b 279 399 276 161 279 250 l 279 917 l 496 917 l 496 299 b 207 -22 496 156 488 -22 m 271 1158 l 493 1158 l 638 972 l 456 972 b 382 1085 433 997 404 1039 b 307 972 358 1039 329 997 l 126 972 "},"K":{"ha":856,"x_min":0,"x_max":0,"o":"m 869 0 l 622 0 l 318 378 l 311 378 l 311 0 l 94 0 l 94 917 l 311 917 l 311 532 l 318 532 l 607 917 l 839 917 l 511 467 "},"Ķ":{"ha":856,"x_min":0,"x_max":0,"o":"m 869 0 l 622 0 l 318 378 l 311 378 l 311 0 l 94 0 l 94 917 l 311 917 l 311 532 l 318 532 l 607 917 l 839 917 l 511 467 m 332 -56 l 571 -56 l 440 -236 l 258 -236 "},"L":{"ha":740,"x_min":0,"x_max":0,"o":"m 94 917 l 311 917 l 311 201 l 717 201 l 717 0 l 94 0 "},"Ĺ":{"ha":740,"x_min":0,"x_max":0,"o":"m 94 917 l 311 917 l 311 201 l 717 201 l 717 0 l 94 0 m 190 1158 l 432 1158 l 290 972 l 108 972 "},"Ľ":{"ha":740,"x_min":0,"x_max":0,"o":"m 94 917 l 311 917 l 311 201 l 717 201 l 717 0 l 94 0 m 465 610 b 529 939 479 706 500 817 l 718 939 b 594 610 692 858 653 750 l 465 610 "},"Ļ":{"ha":740,"x_min":0,"x_max":0,"o":"m 94 917 l 311 917 l 311 201 l 717 201 l 717 0 l 94 0 m 281 -56 l 519 -56 l 389 -236 l 207 -236 "},"Ŀ":{"ha":740,"x_min":0,"x_max":0,"o":"m 94 917 l 311 917 l 311 201 l 717 201 l 717 0 l 94 0 m 435 604 b 542 708 435 667 476 708 b 650 604 607 708 650 667 b 542 501 650 542 607 501 b 435 604 476 501 435 542 "},"Ł":{"ha":740,"x_min":0,"x_max":0,"o":"m 94 342 l 1 299 l 1 515 l 94 558 l 94 917 l 311 917 l 311 657 l 501 743 l 501 526 l 311 440 l 311 201 l 717 201 l 717 0 l 94 0 "},"M":{"ha":1119,"x_min":0,"x_max":0,"o":"m 94 917 l 342 917 b 485 513 394 772 440 642 b 556 264 513 429 535 350 l 564 264 b 633 508 585 347 606 426 b 779 917 678 640 725 769 l 1025 917 l 1025 0 l 808 0 b 826 540 808 190 803 322 l 818 540 b 640 0 758 332 699 175 l 479 0 b 301 540 421 175 363 332 l 293 540 b 311 0 317 324 311 190 l 94 0 "},"N":{"ha":989,"x_min":0,"x_max":0,"o":"m 94 917 l 329 917 b 686 293 444 721 581 486 l 694 293 b 678 917 686 439 678 603 l 894 917 l 894 0 l 660 0 b 303 624 582 129 424 410 l 296 624 b 311 0 304 490 311 328 l 94 0 "},"Ń":{"ha":989,"x_min":0,"x_max":0,"o":"m 94 917 l 329 917 b 686 293 444 721 581 486 l 694 293 b 678 917 686 439 678 603 l 894 917 l 894 0 l 660 0 b 303 624 582 129 424 410 l 296 624 b 311 0 304 490 311 328 l 94 0 m 474 1158 l 715 1158 l 574 972 l 392 972 "},"Ň":{"ha":989,"x_min":0,"x_max":0,"o":"m 94 917 l 329 917 b 686 293 444 721 581 486 l 694 293 b 678 917 686 439 678 603 l 894 917 l 894 0 l 660 0 b 303 624 582 129 424 410 l 296 624 b 311 0 304 490 311 328 l 94 0 m 415 1153 b 489 1040 438 1128 465 1086 b 561 1153 511 1086 539 1128 l 744 1153 l 600 972 l 378 972 l 233 1153 "},"Ņ":{"ha":989,"x_min":0,"x_max":0,"o":"m 94 917 l 329 917 b 686 293 444 721 581 486 l 694 293 b 678 917 686 439 678 603 l 894 917 l 894 0 l 660 0 b 303 624 582 129 424 410 l 296 624 b 311 0 304 490 311 328 l 94 0 m 394 -56 l 633 -56 l 503 -236 l 321 -236 "},"Ṇ":{"ha":989,"x_min":0,"x_max":0,"o":"m 94 917 l 329 917 b 686 293 444 721 581 486 l 694 293 b 678 917 686 439 678 603 l 894 917 l 894 0 l 660 0 b 303 624 582 129 424 410 l 296 624 b 311 0 304 490 311 328 l 94 0 m 397 -149 b 507 -64 397 -97 421 -64 b 618 -149 590 -64 618 -94 b 507 -235 618 -207 586 -235 b 397 -149 433 -235 397 -211 "},"Ñ":{"ha":989,"x_min":0,"x_max":0,"o":"m 94 917 l 329 917 b 686 293 444 721 581 486 l 694 293 b 678 917 686 439 678 603 l 894 917 l 894 0 l 660 0 b 303 624 582 129 424 410 l 296 624 b 311 0 304 490 311 328 l 94 0 m 300 1097 b 414 1139 318 1114 361 1139 b 576 1103 476 1139 515 1103 b 697 1150 632 1103 671 1129 l 697 1035 b 569 986 676 1018 626 986 b 404 1021 511 986 468 1021 b 300 986 368 1021 332 1010 "},"Ŋ":{"ha":989,"x_min":0,"x_max":0,"o":"m 613 -260 b 447 -232 540 -260 488 -244 l 447 -64 b 569 -93 468 -74 519 -93 b 667 -11 636 -93 667 -64 b 303 624 581 132 424 411 l 296 624 b 311 0 304 490 311 328 l 94 0 l 94 917 l 329 917 b 686 293 444 721 581 486 l 694 293 b 678 917 686 439 678 603 l 894 917 l 894 132 b 613 -260 894 -57 894 -260 "},"O":{"ha":975,"x_min":0,"x_max":0,"o":"m 488 -22 b 51 458 226 -22 51 113 b 488 939 51 747 174 939 b 925 457 750 939 925 804 b 488 -22 925 169 801 -22 m 274 457 b 488 150 274 274 333 150 b 700 457 615 150 700 236 b 488 765 700 642 642 765 b 274 457 360 765 274 678 "},"Ó":{"ha":975,"x_min":0,"x_max":0,"o":"m 488 -22 b 51 458 226 -22 51 113 b 488 939 51 747 174 939 b 925 457 750 939 925 804 b 488 -22 925 169 801 -22 m 274 457 b 488 150 274 274 333 150 b 700 457 615 150 700 236 b 488 765 700 642 642 765 b 274 457 360 765 274 678 m 474 1158 l 715 1158 l 574 972 l 392 972 "},"Ŏ":{"ha":975,"x_min":0,"x_max":0,"o":"m 488 -22 b 51 458 226 -22 51 113 b 488 939 51 747 174 939 b 925 457 750 939 925 804 b 488 -22 925 169 801 -22 m 407 1143 b 494 1074 415 1097 449 1074 b 583 1143 540 1074 575 1097 l 739 1143 b 500 971 725 1029 619 971 l 490 971 b 251 1143 358 971 264 1029 m 274 457 b 488 150 274 274 333 150 b 700 457 615 150 700 236 b 488 765 700 642 642 765 b 274 457 360 765 274 678 "},"Ô":{"ha":975,"x_min":0,"x_max":0,"o":"m 488 -22 b 51 458 226 -22 51 113 b 488 939 51 747 174 939 b 925 457 750 939 925 804 b 488 -22 925 169 801 -22 m 378 1158 l 600 1158 l 744 972 l 563 972 b 489 1085 540 997 511 1039 b 414 972 465 1039 436 997 l 233 972 m 274 457 b 488 150 274 274 333 150 b 700 457 615 150 700 236 b 488 765 700 642 642 765 b 274 457 360 765 274 678 "},"Ö":{"ha":975,"x_min":0,"x_max":0,"o":"m 488 -22 b 51 458 226 -22 51 113 b 488 939 51 747 174 939 b 925 457 750 939 925 804 b 488 -22 925 169 801 -22 m 274 457 b 488 150 274 274 333 150 b 700 457 615 150 700 236 b 488 765 700 642 642 765 b 274 457 360 765 274 678 m 274 1068 b 367 1147 274 1117 294 1147 b 461 1068 436 1147 461 1119 b 367 989 461 1014 431 989 b 274 1068 307 989 274 1010 m 514 1068 b 608 1147 514 1117 536 1147 b 701 1068 676 1147 701 1119 b 608 989 701 1014 672 989 b 514 1068 549 989 514 1010 "},"Ò":{"ha":975,"x_min":0,"x_max":0,"o":"m 488 -22 b 51 458 226 -22 51 113 b 488 939 51 747 174 939 b 925 457 750 939 925 804 b 488 -22 925 169 801 -22 m 508 1158 l 590 972 l 408 972 l 267 1158 m 274 457 b 488 150 274 274 333 150 b 700 457 615 150 700 236 b 488 765 700 642 642 765 b 274 457 360 765 274 678 "},"Ő":{"ha":975,"x_min":0,"x_max":0,"o":"m 488 -22 b 51 458 226 -22 51 113 b 488 939 51 747 174 939 b 925 457 750 939 925 804 b 488 -22 925 169 801 -22 m 338 1158 l 543 1158 l 401 972 l 246 972 m 274 457 b 488 150 274 274 333 150 b 700 457 615 150 700 236 b 488 765 700 642 642 765 b 274 457 360 765 274 678 m 604 1158 l 811 1158 l 668 972 l 513 972 "},"Ō":{"ha":975,"x_min":0,"x_max":0,"o":"m 488 -22 b 51 458 226 -22 51 113 b 488 939 51 747 174 939 b 925 457 750 939 925 804 b 488 -22 925 169 801 -22 m 274 457 b 488 150 274 274 333 150 b 700 457 615 150 700 236 b 488 765 700 642 642 765 b 274 457 360 765 274 678 m 281 1131 l 696 1131 l 696 1004 l 281 1004 "},"Ø":{"ha":969,"x_min":0,"x_max":0,"o":"m 485 -22 b 279 21 408 -22 339 -8 l 215 -72 l 104 17 l 164 104 b 47 458 90 185 47 304 b 485 939 47 747 203 939 b 706 889 568 939 643 922 l 756 961 l 865 864 l 818 796 b 922 457 885 715 922 601 b 485 -22 922 169 767 -22 m 271 457 b 296 294 271 394 279 340 l 597 732 b 486 765 567 753 531 765 b 271 457 357 765 271 661 m 388 175 b 486 150 415 158 449 150 b 699 457 613 150 699 253 b 682 599 699 510 693 557 l 388 175 "},"Ǿ":{"ha":969,"x_min":0,"x_max":0,"o":"m 485 -22 b 279 21 408 -22 339 -8 l 215 -72 l 104 17 l 164 104 b 47 458 90 185 47 304 b 485 939 47 747 203 939 b 706 889 568 939 643 922 l 756 961 l 865 864 l 818 796 b 922 457 885 715 922 601 b 485 -22 922 169 767 -22 m 271 457 b 296 294 271 394 279 340 l 597 732 b 486 765 567 753 531 765 b 271 457 357 765 271 661 m 388 175 b 486 150 415 158 449 150 b 699 457 613 150 699 253 b 682 599 699 510 693 557 l 388 175 m 469 1158 l 711 1158 l 569 972 l 388 972 "},"Õ":{"ha":975,"x_min":0,"x_max":0,"o":"m 488 -22 b 51 458 226 -22 51 113 b 488 939 51 747 174 939 b 925 457 750 939 925 804 b 488 -22 925 169 801 -22 m 274 457 b 488 150 274 274 333 150 b 700 457 615 150 700 236 b 488 765 700 642 642 765 b 274 457 360 765 274 678 m 293 1097 b 407 1139 311 1114 354 1139 b 569 1103 469 1139 508 1103 b 690 1150 625 1103 664 1129 l 690 1035 b 563 986 669 1018 619 986 b 397 1021 504 986 461 1021 b 293 986 361 1021 325 1010 "},"Œ":{"ha":1463,"x_min":0,"x_max":0,"o":"m 481 -22 b 51 458 229 -22 51 113 b 481 939 51 747 175 939 b 767 825 601 939 700 907 l 767 917 l 1393 917 l 1393 739 l 983 739 l 983 540 l 1381 540 l 1381 378 l 983 378 l 983 178 l 1401 178 l 1401 0 l 767 0 l 767 92 b 481 -22 713 24 626 -22 m 274 460 b 488 150 274 275 333 150 b 700 458 615 150 700 236 b 486 765 700 643 640 765 b 274 460 357 765 274 681 "},"P":{"ha":858,"x_min":0,"x_max":0,"o":"m 94 917 l 525 917 b 826 628 706 917 826 832 b 457 332 826 381 640 332 l 311 332 l 311 0 l 94 0 m 450 486 b 619 614 551 486 619 522 b 476 739 619 689 579 739 l 311 739 l 311 486 "},"Þ":{"ha":871,"x_min":0,"x_max":0,"o":"m 94 917 l 311 917 l 311 767 l 525 767 b 828 474 707 767 828 685 b 457 182 828 299 740 182 l 311 182 l 311 0 l 94 0 m 451 336 b 619 464 553 336 619 372 b 478 589 619 539 579 589 l 311 589 l 311 336 "},"Q":{"ha":975,"x_min":0,"x_max":0,"o":"m 488 150 b 700 457 618 150 700 236 b 488 765 700 642 643 765 b 274 457 349 765 274 678 b 488 150 274 274 332 150 m 51 458 b 488 939 51 747 171 939 b 925 457 753 939 925 804 b 625 0 925 217 839 49 l 700 -150 l 490 -150 l 413 -11 b 51 458 189 11 51 144 "},"R":{"ha":888,"x_min":0,"x_max":0,"o":"m 94 917 l 514 917 b 826 633 701 917 826 838 b 624 368 826 499 769 400 l 851 0 l 617 0 l 393 361 l 311 361 l 311 0 l 94 0 m 447 486 b 619 614 551 486 619 521 b 481 739 619 688 581 739 l 311 739 l 311 486 "},"Ŕ":{"ha":888,"x_min":0,"x_max":0,"o":"m 94 917 l 514 917 b 826 633 701 917 826 838 b 624 368 826 499 769 400 l 851 0 l 617 0 l 393 361 l 311 361 l 311 0 l 94 0 m 447 486 b 619 614 551 486 619 521 b 481 739 619 688 581 739 l 311 739 l 311 486 m 394 1158 l 636 1158 l 494 972 l 313 972 "},"Ř":{"ha":888,"x_min":0,"x_max":0,"o":"m 94 917 l 514 917 b 826 633 701 917 826 838 b 624 368 826 499 769 400 l 851 0 l 617 0 l 393 361 l 311 361 l 311 0 l 94 0 m 336 1153 b 410 1040 358 1128 386 1086 b 482 1153 432 1086 460 1128 l 665 1153 l 521 972 l 299 972 l 154 1153 m 447 486 b 619 614 551 486 619 521 b 481 739 619 688 581 739 l 311 739 l 311 486 "},"Ŗ":{"ha":888,"x_min":0,"x_max":0,"o":"m 94 917 l 514 917 b 826 633 701 917 826 838 b 624 368 826 499 769 400 l 851 0 l 617 0 l 393 361 l 311 361 l 311 0 l 94 0 m 354 -56 l 593 -56 l 463 -236 l 281 -236 m 447 486 b 619 614 551 486 619 521 b 481 739 619 688 581 739 l 311 739 l 311 486 "},"S":{"ha":775,"x_min":0,"x_max":0,"o":"m 376 -22 b 56 60 267 -22 151 0 l 56 251 b 374 154 183 188 286 154 b 524 251 476 154 524 194 b 376 375 524 308 465 340 b 215 447 314 399 261 421 b 58 685 118 503 58 575 b 393 939 58 832 172 939 b 669 867 485 939 569 922 l 669 678 b 415 767 575 733 507 767 b 282 683 325 767 282 732 b 394 564 282 631 326 596 b 525 513 435 546 479 531 b 739 261 667 458 739 397 b 376 -22 739 99 638 -22 "},"":{"ha":775,"x_min":0,"x_max":0,"o":"m 376 -22 b 739 261 638 -22 739 99 b 525 513 739 397 667 458 b 394 564 479 531 435 546 b 282 683 326 596 282 631 b 415 767 282 732 325 767 b 669 678 507 767 575 733 l 669 867 b 393 939 569 922 485 939 b 58 685 172 939 58 832 b 215 447 58 575 118 503 b 376 375 261 421 314 399 b 524 251 465 340 524 308 b 374 154 524 194 476 154 b 56 251 286 154 183 188 l 56 60 b 376 -22 151 0 267 -22 "},"Ś":{"ha":775,"x_min":0,"x_max":0,"o":"m 376 -22 b 56 60 267 -22 151 0 l 56 251 b 374 154 183 188 286 154 b 524 251 476 154 524 194 b 376 375 524 308 465 340 b 215 447 314 399 261 421 b 58 685 118 503 58 575 b 393 939 58 832 172 939 b 669 867 485 939 569 922 l 669 678 b 415 767 575 733 507 767 b 282 683 325 767 282 732 b 394 564 282 631 326 596 b 525 513 435 546 479 531 b 739 261 667 458 739 397 b 376 -22 739 99 638 -22 m 364 1158 l 606 1158 l 464 972 l 282 972 "},"Š":{"ha":775,"x_min":0,"x_max":0,"o":"m 376 -22 b 56 60 267 -22 151 0 l 56 251 b 374 154 183 188 286 154 b 524 251 476 154 524 194 b 376 375 524 308 465 340 b 215 447 314 399 261 421 b 58 685 118 503 58 575 b 393 939 58 832 172 939 b 669 867 485 939 569 922 l 669 678 b 415 767 575 733 507 767 b 282 683 325 767 282 732 b 394 564 282 631 326 596 b 525 513 435 546 479 531 b 739 261 667 458 739 397 b 376 -22 739 99 638 -22 m 306 1153 b 379 1040 328 1128 356 1086 b 451 1153 401 1086 429 1128 l 635 1153 l 490 972 l 268 972 l 124 1153 "},"Ş":{"ha":775,"x_min":0,"x_max":0,"o":"m 307 -19 b 56 60 219 -11 132 13 l 56 251 b 374 154 183 188 286 154 b 524 251 476 154 524 194 b 376 375 524 308 465 340 b 215 447 314 399 261 421 b 58 685 118 503 58 575 b 393 939 58 832 172 939 b 669 867 485 939 569 922 l 669 678 b 415 767 575 733 507 767 b 282 683 325 767 282 732 b 394 564 282 631 326 596 b 525 513 435 546 479 531 b 739 261 667 458 739 397 b 463 -17 739 118 660 7 l 428 -181 l 242 -181 "},"Ŝ":{"ha":775,"x_min":0,"x_max":0,"o":"m 376 -22 b 56 60 267 -22 151 0 l 56 251 b 374 154 183 188 286 154 b 524 251 476 154 524 194 b 376 375 524 308 465 340 b 215 447 314 399 261 421 b 58 685 118 503 58 575 b 393 939 58 832 172 939 b 669 867 485 939 569 922 l 669 678 b 415 767 575 733 507 767 b 282 683 325 767 282 732 b 394 564 282 631 326 596 b 525 513 435 546 479 531 b 739 261 667 458 739 397 b 376 -22 739 99 638 -22 m 268 1158 l 490 1158 l 635 972 l 453 972 b 379 1085 431 997 401 1039 b 304 972 356 1039 326 997 l 124 972 "},"Ș":{"ha":775,"x_min":0,"x_max":0,"o":"m 376 -22 b 56 60 267 -22 151 0 l 56 251 b 374 154 183 188 286 154 b 524 251 476 154 524 194 b 376 375 524 308 465 340 b 215 447 314 399 261 421 b 58 685 118 503 58 575 b 393 939 58 832 172 939 b 669 867 485 939 569 922 l 669 678 b 415 767 575 733 507 767 b 282 683 325 767 282 732 b 394 564 282 631 326 596 b 525 513 435 546 479 531 b 739 261 667 458 739 397 b 376 -22 739 99 638 -22 m 278 -56 l 517 -56 l 386 -236 l 204 -236 "},"Ṣ":{"ha":775,"x_min":0,"x_max":0,"o":"m 376 -22 b 56 60 267 -22 151 0 l 56 251 b 374 154 183 188 286 154 b 524 251 476 154 524 194 b 376 375 524 308 465 340 b 215 447 314 399 261 421 b 58 685 118 503 58 575 b 393 939 58 832 172 939 b 669 867 485 939 569 922 l 669 678 b 415 767 575 733 507 767 b 282 683 325 767 282 732 b 394 564 282 631 326 596 b 525 513 435 546 479 531 b 739 261 667 458 739 397 b 376 -22 739 99 638 -22 m 281 -149 b 390 -64 281 -97 304 -64 b 501 -149 474 -64 501 -94 b 390 -235 501 -207 468 -235 b 281 -149 317 -235 281 -211 "},"ẞ":{"ha":943,"x_min":0,"x_max":0,"o":"m 610 -22 b 406 15 549 -22 478 -11 l 406 182 b 540 158 451 168 499 158 b 664 264 614 158 664 188 b 471 392 664 340 610 392 l 417 392 l 417 492 l 592 722 l 311 722 l 311 0 l 94 0 l 94 917 l 833 917 l 833 736 l 639 492 b 903 244 797 492 903 422 b 610 -22 903 85 819 -22 "},"T":{"ha":800,"x_min":0,"x_max":0,"o":"m 292 715 l 24 715 l 24 917 l 776 917 l 776 715 l 508 715 l 508 0 l 292 0 "},"Ŧ":{"ha":800,"x_min":0,"x_max":0,"o":"m 292 381 l 147 381 l 147 533 l 292 533 l 292 715 l 24 715 l 24 917 l 776 917 l 776 715 l 508 715 l 508 533 l 654 533 l 654 381 l 508 381 l 508 0 l 292 0 "},"Ť":{"ha":800,"x_min":0,"x_max":0,"o":"m 292 715 l 24 715 l 24 917 l 776 917 l 776 715 l 508 715 l 508 0 l 292 0 m 328 1168 b 401 1056 350 1143 378 1101 b 474 1168 424 1101 451 1143 l 657 1168 l 513 988 l 290 988 l 146 1168 "},"Ţ":{"ha":800,"x_min":0,"x_max":0,"o":"m 292 715 l 24 715 l 24 917 l 776 917 l 776 715 l 508 715 l 508 0 l 442 0 l 404 -181 l 218 -181 l 292 0 "},"Ț":{"ha":800,"x_min":0,"x_max":0,"o":"m 292 715 l 24 715 l 24 917 l 776 917 l 776 715 l 508 715 l 508 0 l 292 0 m 260 -56 l 499 -56 l 368 -236 l 186 -236 "},"Ṭ":{"ha":800,"x_min":0,"x_max":0,"o":"m 292 715 l 24 715 l 24 917 l 776 917 l 776 715 l 508 715 l 508 0 l 292 0 m 290 -149 b 400 -64 290 -97 314 -64 b 511 -149 483 -64 511 -94 b 400 -235 511 -207 478 -235 b 290 -149 326 -235 290 -211 "},"U":{"ha":935,"x_min":0,"x_max":0,"o":"m 468 -22 b 86 346 238 -22 86 75 l 86 917 l 303 917 l 303 354 b 468 150 303 221 353 150 b 633 354 569 150 633 206 l 633 917 l 850 917 l 850 346 b 468 -22 850 94 717 -22 "},"Ú":{"ha":935,"x_min":0,"x_max":0,"o":"m 468 -22 b 86 346 238 -22 86 75 l 86 917 l 303 917 l 303 354 b 468 150 303 221 353 150 b 633 354 569 150 633 206 l 633 917 l 850 917 l 850 346 b 468 -22 850 94 717 -22 m 435 1158 l 676 1158 l 535 972 l 353 972 "},"Ŭ":{"ha":935,"x_min":0,"x_max":0,"o":"m 468 -22 b 86 346 238 -22 86 75 l 86 917 l 303 917 l 303 354 b 468 150 303 221 353 150 b 633 354 569 150 633 206 l 633 917 l 850 917 l 850 346 b 468 -22 850 94 717 -22 m 386 1143 b 474 1074 394 1097 428 1074 b 563 1143 519 1074 554 1097 l 718 1143 b 479 971 704 1029 599 971 l 469 971 b 231 1143 338 971 243 1029 "},"Û":{"ha":935,"x_min":0,"x_max":0,"o":"m 468 -22 b 86 346 238 -22 86 75 l 86 917 l 303 917 l 303 354 b 468 150 303 221 353 150 b 633 354 569 150 633 206 l 633 917 l 850 917 l 850 346 b 468 -22 850 94 717 -22 m 357 1158 l 579 1158 l 724 972 l 542 972 b 468 1085 519 997 490 1039 b 393 972 444 1039 415 997 l 213 972 "},"Ü":{"ha":935,"x_min":0,"x_max":0,"o":"m 468 -22 b 86 346 238 -22 86 75 l 86 917 l 303 917 l 303 354 b 468 150 303 221 353 150 b 633 354 569 150 633 206 l 633 917 l 850 917 l 850 346 b 468 -22 850 94 717 -22 m 254 1068 b 347 1147 254 1117 275 1147 b 442 1068 417 1147 442 1119 b 347 989 442 1014 411 989 b 254 1068 288 989 254 1010 m 494 1068 b 589 1147 494 1117 517 1147 b 682 1068 657 1147 682 1119 b 589 989 682 1014 653 989 b 494 1068 529 989 494 1010 "},"Ù":{"ha":935,"x_min":0,"x_max":0,"o":"m 468 -22 b 86 346 238 -22 86 75 l 86 917 l 303 917 l 303 354 b 468 150 303 221 353 150 b 633 354 569 150 633 206 l 633 917 l 850 917 l 850 346 b 468 -22 850 94 717 -22 m 488 1158 l 569 972 l 388 972 l 246 1158 "},"Ű":{"ha":935,"x_min":0,"x_max":0,"o":"m 468 -22 b 86 346 238 -22 86 75 l 86 917 l 303 917 l 303 354 b 468 150 303 221 353 150 b 633 354 569 150 633 206 l 633 917 l 850 917 l 850 346 b 468 -22 850 94 717 -22 m 318 1158 l 524 1158 l 382 972 l 226 972 m 585 1158 l 792 1158 l 649 972 l 493 972 "},"Ū":{"ha":935,"x_min":0,"x_max":0,"o":"m 468 -22 b 86 346 238 -22 86 75 l 86 917 l 303 917 l 303 354 b 468 150 303 221 353 150 b 633 354 569 150 633 206 l 633 917 l 850 917 l 850 346 b 468 -22 850 94 717 -22 m 260 1131 l 675 1131 l 675 1004 l 260 1004 "},"Ų":{"ha":935,"x_min":0,"x_max":0,"o":"m 468 -22 b 86 346 238 -22 86 75 l 86 917 l 303 917 l 303 354 b 468 150 303 221 353 150 b 633 354 569 150 633 206 l 633 917 l 850 917 l 850 346 b 633 0 850 157 775 44 b 529 -115 593 -19 529 -58 b 588 -167 529 -146 549 -167 b 674 -139 625 -167 663 -149 l 674 -229 b 560 -260 640 -249 600 -260 b 424 -146 476 -260 424 -214 b 500 -22 424 -92 460 -50 l 468 -22 "},"Ů":{"ha":935,"x_min":0,"x_max":0,"o":"m 468 -22 b 86 346 238 -22 86 75 l 86 917 l 303 917 l 303 354 b 468 150 303 221 353 150 b 633 354 569 150 633 206 l 633 917 l 850 917 l 850 346 b 468 -22 850 94 717 -22 m 342 1057 b 468 1175 342 1128 393 1176 b 594 1057 535 1174 594 1136 b 468 943 594 989 543 943 b 342 1057 403 943 342 979 m 425 1058 b 468 1014 425 1033 439 1014 b 513 1058 494 1014 513 1029 b 469 1104 513 1085 499 1104 b 425 1058 443 1104 425 1088 "},"Ũ":{"ha":935,"x_min":0,"x_max":0,"o":"m 468 -22 b 86 346 238 -22 86 75 l 86 917 l 303 917 l 303 354 b 468 150 303 221 353 150 b 633 354 569 150 633 206 l 633 917 l 850 917 l 850 346 b 468 -22 850 94 717 -22 m 274 1097 b 388 1139 292 1114 335 1139 b 550 1103 450 1139 489 1103 b 671 1150 606 1103 644 1129 l 671 1035 b 543 986 650 1018 600 986 b 378 1021 485 986 442 1021 b 274 986 342 1021 306 1010 "},"V":{"ha":913,"x_min":0,"x_max":0,"o":"m 4 917 l 222 917 b 383 421 339 572 338 565 b 451 174 411 328 429 263 l 461 174 b 525 414 482 260 492 300 b 689 917 563 533 597 644 l 907 917 l 604 0 l 308 0 "},"W":{"ha":1204,"x_min":0,"x_max":0,"o":"m 19 917 l 243 917 b 358 257 288 708 328 486 l 367 257 b 510 917 400 461 453 683 l 694 917 b 838 257 746 703 803 481 l 846 257 b 961 917 875 464 911 686 l 1185 917 l 999 0 l 742 0 b 606 636 689 229 642 431 l 599 636 b 463 0 564 443 521 246 l 206 0 "},"Ẃ":{"ha":1204,"x_min":0,"x_max":0,"o":"m 19 917 l 243 917 b 358 257 288 708 328 486 l 367 257 b 510 917 400 461 453 683 l 694 917 b 838 257 746 703 803 481 l 846 257 b 961 917 875 464 911 686 l 1185 917 l 999 0 l 742 0 b 606 636 689 229 642 431 l 599 636 b 463 0 564 443 521 246 l 206 0 m 588 1158 l 829 1158 l 688 972 l 506 972 "},"Ŵ":{"ha":1204,"x_min":0,"x_max":0,"o":"m 19 917 l 243 917 b 358 257 288 708 328 486 l 367 257 b 510 917 400 461 453 683 l 694 917 b 838 257 746 703 803 481 l 846 257 b 961 917 875 464 911 686 l 1185 917 l 999 0 l 742 0 b 606 636 689 229 642 431 l 599 636 b 463 0 564 443 521 246 l 206 0 m 492 1158 l 714 1158 l 858 972 l 676 972 b 603 1085 654 997 625 1039 b 528 972 579 1039 550 997 l 347 972 "},"Ẅ":{"ha":1204,"x_min":0,"x_max":0,"o":"m 19 917 l 243 917 b 358 257 288 708 328 486 l 367 257 b 510 917 400 461 453 683 l 694 917 b 838 257 746 703 803 481 l 846 257 b 961 917 875 464 911 686 l 1185 917 l 999 0 l 742 0 b 606 636 689 229 642 431 l 599 636 b 463 0 564 443 521 246 l 206 0 m 389 1068 b 482 1147 389 1117 410 1147 b 576 1068 551 1147 576 1119 b 482 989 576 1014 546 989 b 389 1068 422 989 389 1010 m 629 1068 b 724 1147 629 1117 651 1147 b 817 1068 792 1147 817 1119 b 724 989 817 1014 788 989 b 629 1068 664 989 629 1010 "},"Ẁ":{"ha":1204,"x_min":0,"x_max":0,"o":"m 19 917 l 243 917 b 358 257 288 708 328 486 l 367 257 b 510 917 400 461 453 683 l 694 917 b 838 257 746 703 803 481 l 846 257 b 961 917 875 464 911 686 l 1185 917 l 999 0 l 742 0 b 606 636 689 229 642 431 l 599 636 b 463 0 564 443 521 246 l 206 0 m 622 1158 l 704 972 l 522 972 l 381 1158 "},"X":{"ha":821,"x_min":0,"x_max":0,"o":"m 254 458 l 15 917 l 249 917 b 408 593 303 810 357 697 l 413 593 b 572 917 463 697 517 807 l 806 917 l 567 458 l 814 0 l 582 0 b 413 321 522 104 467 215 l 410 321 b 239 0 351 211 297 103 l 6 0 "},"Y":{"ha":768,"x_min":0,"x_max":0,"o":"m 276 281 l 6 917 l 231 917 b 325 658 267 815 300 719 b 381 493 344 606 365 547 l 389 493 b 444 658 406 547 425 606 b 538 917 472 731 503 817 l 764 917 l 493 281 l 493 0 l 276 0 "},"Ý":{"ha":768,"x_min":0,"x_max":0,"o":"m 276 281 l 6 917 l 231 917 b 325 658 267 815 300 719 b 381 493 344 606 365 547 l 389 493 b 444 658 406 547 425 606 b 538 917 472 731 503 817 l 764 917 l 493 281 l 493 0 l 276 0 m 369 1158 l 611 1158 l 469 972 l 288 972 "},"Ŷ":{"ha":768,"x_min":0,"x_max":0,"o":"m 276 281 l 6 917 l 231 917 b 325 658 267 815 300 719 b 381 493 344 606 365 547 l 389 493 b 444 658 406 547 425 606 b 538 917 472 731 503 817 l 764 917 l 493 281 l 493 0 l 276 0 m 274 1158 l 496 1158 l 640 972 l 458 972 b 385 1085 436 997 407 1039 b 310 972 361 1039 332 997 l 129 972 "},"Ÿ":{"ha":768,"x_min":0,"x_max":0,"o":"m 276 281 l 6 917 l 231 917 b 325 658 267 815 300 719 b 381 493 344 606 365 547 l 389 493 b 444 658 406 547 425 606 b 538 917 472 731 503 817 l 764 917 l 493 281 l 493 0 l 276 0 m 171 1068 b 264 1147 171 1117 192 1147 b 358 1068 333 1147 358 1119 b 264 989 358 1014 328 989 b 171 1068 204 989 171 1010 m 411 1068 b 506 1147 411 1117 433 1147 b 599 1068 574 1147 599 1119 b 506 989 599 1014 569 989 b 411 1068 446 989 411 1010 "},"Ỳ":{"ha":768,"x_min":0,"x_max":0,"o":"m 276 281 l 6 917 l 231 917 b 325 658 267 815 300 719 b 381 493 344 606 365 547 l 389 493 b 444 658 406 547 425 606 b 538 917 472 731 503 817 l 764 917 l 493 281 l 493 0 l 276 0 m 404 1158 l 486 972 l 304 972 l 163 1158 "},"Ỹ":{"ha":768,"x_min":0,"x_max":0,"o":"m 276 281 l 6 917 l 231 917 b 325 658 267 815 300 719 b 381 493 344 606 365 547 l 389 493 b 444 658 406 547 425 606 b 538 917 472 731 503 817 l 764 917 l 493 281 l 493 0 l 276 0 m 190 1097 b 304 1139 208 1114 251 1139 b 467 1103 367 1139 406 1103 b 588 1150 522 1103 561 1129 l 588 1035 b 460 986 567 1018 517 986 b 294 1021 401 986 358 1021 b 190 986 258 1021 222 1010 "},"Z":{"ha":842,"x_min":0,"x_max":0,"o":"m 49 218 l 510 731 l 63 731 l 63 917 l 772 917 l 772 714 l 313 201 l 804 201 l 804 0 l 49 0 "},"Ź":{"ha":842,"x_min":0,"x_max":0,"o":"m 49 218 l 510 731 l 63 731 l 63 917 l 772 917 l 772 714 l 313 201 l 804 201 l 804 0 l 49 0 m 386 1158 l 628 1158 l 486 972 l 304 972 "},"Ž":{"ha":842,"x_min":0,"x_max":0,"o":"m 49 218 l 510 731 l 63 731 l 63 917 l 772 917 l 772 714 l 313 201 l 804 201 l 804 0 l 49 0 m 328 1153 b 401 1040 350 1128 378 1086 b 474 1153 424 1086 451 1128 l 657 1153 l 513 972 l 290 972 l 146 1153 "},"Ż":{"ha":842,"x_min":0,"x_max":0,"o":"m 49 218 l 510 731 l 63 731 l 63 917 l 772 917 l 772 714 l 313 201 l 804 201 l 804 0 l 49 0 m 292 1075 b 401 1161 292 1128 315 1161 b 513 1075 485 1161 513 1131 b 401 990 513 1017 479 990 b 292 1075 328 990 292 1013 "},"Ẓ":{"ha":842,"x_min":0,"x_max":0,"o":"m 49 218 l 510 731 l 63 731 l 63 917 l 772 917 l 772 714 l 313 201 l 804 201 l 804 0 l 49 0 m 310 -149 b 421 -64 310 -97 335 -64 b 531 -149 503 -64 531 -94 b 421 -235 531 -207 499 -235 b 310 -149 346 -235 310 -211 "},"a":{"ha":718,"x_min":0,"x_max":0,"o":"m 222 -22 b 28 151 117 -22 28 35 b 221 354 28 276 129 329 b 431 481 301 376 431 403 b 319 558 431 528 388 558 b 86 465 240 558 150 517 l 86 638 b 374 718 156 683 265 718 b 636 463 540 718 635 639 b 643 210 636 343 638 276 b 682 0 650 124 661 64 l 486 0 b 460 119 476 24 467 57 l 451 119 b 222 -22 401 19 314 -22 m 225 179 b 294 118 225 133 258 118 b 436 301 368 118 436 185 l 436 332 b 299 264 403 293 339 279 b 225 179 254 244 225 219 "},"á":{"ha":718,"x_min":0,"x_max":0,"o":"m 222 -22 b 28 151 117 -22 28 35 b 221 354 28 276 129 329 b 431 481 301 376 431 403 b 319 558 431 528 388 558 b 86 465 240 558 150 517 l 86 638 b 374 718 156 683 265 718 b 636 463 540 718 635 639 b 643 210 636 343 638 276 b 682 0 650 124 661 64 l 486 0 b 460 119 476 24 467 57 l 451 119 b 222 -22 401 19 314 -22 m 225 179 b 294 118 225 133 258 118 b 436 301 368 118 436 185 l 436 332 b 299 264 403 293 339 279 b 225 179 254 244 225 219 m 340 964 l 582 964 l 440 778 l 258 778 "},"ă":{"ha":718,"x_min":0,"x_max":0,"o":"m 222 -22 b 28 151 117 -22 28 35 b 221 354 28 276 129 329 b 431 481 301 376 431 403 b 319 558 431 528 388 558 b 86 465 240 558 150 517 l 86 638 b 374 718 156 683 265 718 b 636 463 540 718 635 639 b 643 210 636 343 638 276 b 682 0 650 124 661 64 l 486 0 b 460 119 476 24 467 57 l 451 119 b 222 -22 401 19 314 -22 m 276 958 b 364 888 285 911 318 888 b 453 958 410 888 444 911 l 599 958 b 369 786 586 851 482 786 l 360 786 b 131 958 236 786 142 851 m 225 179 b 294 118 225 133 258 118 b 436 301 368 118 436 185 l 436 332 b 299 264 403 293 339 279 b 225 179 254 244 225 219 "},"â":{"ha":718,"x_min":0,"x_max":0,"o":"m 222 -22 b 28 151 117 -22 28 35 b 221 354 28 276 129 329 b 431 481 301 376 431 403 b 319 558 431 528 388 558 b 86 465 240 558 150 517 l 86 638 b 374 718 156 683 265 718 b 636 463 540 718 635 639 b 643 210 636 343 638 276 b 682 0 650 124 661 64 l 486 0 b 460 119 476 24 467 57 l 451 119 b 222 -22 401 19 314 -22 m 250 964 l 467 964 l 614 778 l 432 778 b 358 888 413 803 381 844 b 283 778 335 844 304 803 l 103 778 m 225 179 b 294 118 225 133 258 118 b 436 301 368 118 436 185 l 436 332 b 299 264 403 293 339 279 b 225 179 254 244 225 219 "},"ä":{"ha":718,"x_min":0,"x_max":0,"o":"m 222 -22 b 28 151 117 -22 28 35 b 221 354 28 276 129 329 b 431 481 301 376 431 403 b 319 558 431 528 388 558 b 86 465 240 558 150 517 l 86 638 b 374 718 156 683 265 718 b 636 463 540 718 635 639 b 643 210 636 343 638 276 b 682 0 650 124 661 64 l 486 0 b 460 119 476 24 467 57 l 451 119 b 222 -22 401 19 314 -22 m 144 881 b 238 960 144 928 165 960 b 332 881 307 960 332 932 b 238 800 332 825 301 800 b 144 881 178 800 144 822 m 225 179 b 294 118 225 133 258 118 b 436 301 368 118 436 185 l 436 332 b 299 264 403 293 339 279 b 225 179 254 244 225 219 m 385 881 b 479 960 385 928 407 960 b 572 881 547 960 572 932 b 479 800 572 825 543 800 b 385 881 419 800 385 822 "},"à":{"ha":718,"x_min":0,"x_max":0,"o":"m 222 -22 b 28 151 117 -22 28 35 b 221 354 28 276 129 329 b 431 481 301 376 431 403 b 319 558 431 528 388 558 b 86 465 240 558 150 517 l 86 638 b 374 718 156 683 265 718 b 636 463 540 718 635 639 b 643 210 636 343 638 276 b 682 0 650 124 661 64 l 486 0 b 460 119 476 24 467 57 l 451 119 b 222 -22 401 19 314 -22 m 382 964 l 464 778 l 282 778 l 140 964 m 225 179 b 294 118 225 133 258 118 b 436 301 368 118 436 185 l 436 332 b 299 264 403 293 339 279 b 225 179 254 244 225 219 "},"ā":{"ha":718,"x_min":0,"x_max":0,"o":"m 222 -22 b 28 151 117 -22 28 35 b 221 354 28 276 129 329 b 431 481 301 376 431 403 b 319 558 431 528 388 558 b 86 465 240 558 150 517 l 86 638 b 374 718 156 683 265 718 b 636 463 540 718 635 639 b 643 210 636 343 638 276 b 682 0 650 124 661 64 l 486 0 b 460 119 476 24 467 57 l 451 119 b 222 -22 401 19 314 -22 m 150 936 l 565 936 l 565 810 l 150 810 m 225 179 b 294 118 225 133 258 118 b 436 301 368 118 436 185 l 436 332 b 299 264 403 293 339 279 b 225 179 254 244 225 219 "},"ą":{"ha":718,"x_min":0,"x_max":0,"o":"m 222 -22 b 28 151 117 -22 28 35 b 221 354 28 276 129 329 b 431 481 301 376 431 403 b 319 558 431 528 388 558 b 86 465 240 558 150 517 l 86 638 b 374 718 156 683 265 718 b 636 463 540 718 635 639 b 643 210 636 343 638 276 b 682 0 650 124 661 64 l 585 0 b 481 -115 544 -19 481 -58 b 539 -167 481 -146 500 -167 b 625 -139 576 -167 614 -149 l 625 -229 b 511 -260 592 -249 551 -260 b 375 -146 428 -260 375 -214 b 486 0 375 -75 436 -26 b 460 119 476 24 467 57 l 451 119 b 222 -22 401 19 314 -22 m 225 179 b 294 118 225 133 258 118 b 436 301 368 118 436 185 l 436 332 b 299 264 403 293 339 279 b 225 179 254 244 225 219 "},"å":{"ha":718,"x_min":0,"x_max":0,"o":"m 222 -22 b 28 151 117 -22 28 35 b 221 354 28 276 129 329 b 431 481 301 376 431 403 b 319 558 431 528 388 558 b 86 465 240 558 150 517 l 86 638 b 374 718 156 683 265 718 b 636 463 540 718 635 639 b 643 210 636 343 638 276 b 682 0 650 124 661 64 l 486 0 b 460 119 476 24 467 57 l 451 119 b 222 -22 401 19 314 -22 m 225 179 b 294 118 225 133 258 118 b 436 301 368 118 436 185 l 436 332 b 299 264 403 293 339 279 b 225 179 254 244 225 219 m 236 871 b 358 986 236 940 288 988 b 481 871 419 985 481 949 b 358 756 481 801 429 756 b 236 871 296 756 236 792 m 313 872 b 358 825 313 844 328 825 b 403 871 386 825 403 840 b 358 918 403 897 389 918 b 313 872 331 918 313 901 "},"ǻ":{"ha":718,"x_min":0,"x_max":0,"o":"m 222 -22 b 28 151 117 -22 28 35 b 221 354 28 276 129 329 b 431 481 301 376 431 403 b 319 558 431 528 388 558 b 86 465 240 558 150 517 l 86 638 b 374 718 156 683 265 718 b 636 463 540 718 635 639 b 643 210 636 343 638 276 b 682 0 650 124 661 64 l 486 0 b 460 119 476 24 467 57 l 451 119 b 222 -22 401 19 314 -22 m 225 179 b 294 118 225 133 258 118 b 436 301 368 118 436 185 l 436 332 b 299 264 403 293 339 279 b 225 179 254 244 225 219 m 236 871 b 358 986 236 940 288 988 b 481 871 419 985 481 949 b 358 756 481 801 429 756 b 236 871 296 756 236 792 m 340 1217 l 582 1217 l 440 1031 l 258 1031 m 313 872 b 358 825 313 844 328 825 b 403 871 386 825 403 840 b 358 918 403 897 389 918 b 313 872 331 918 313 901 "},"ã":{"ha":718,"x_min":0,"x_max":0,"o":"m 222 -22 b 28 151 117 -22 28 35 b 221 354 28 276 129 329 b 431 481 301 376 431 403 b 319 558 431 528 388 558 b 86 465 240 558 150 517 l 86 638 b 374 718 156 683 265 718 b 636 463 540 718 635 639 b 643 210 636 343 638 276 b 682 0 650 124 661 64 l 486 0 b 460 119 476 24 467 57 l 451 119 b 222 -22 401 19 314 -22 m 164 908 b 278 950 182 925 225 950 b 440 914 340 950 379 914 b 561 961 496 914 535 940 l 561 846 b 433 797 540 829 490 797 b 268 832 375 797 332 832 b 164 797 232 832 196 821 m 225 179 b 294 118 225 133 258 118 b 436 301 368 118 436 185 l 436 332 b 299 264 403 293 339 279 b 225 179 254 244 225 219 "},"æ":{"ha":1201,"x_min":0,"x_max":0,"o":"m 240 -22 b 28 161 122 -22 28 38 b 228 361 28 274 118 331 b 432 481 328 389 432 408 b 318 561 432 526 393 561 b 86 465 242 561 150 517 l 86 618 b 374 717 149 669 263 717 b 585 625 469 717 544 689 b 832 718 633 686 722 718 b 1160 375 1026 718 1160 618 l 1160 286 l 694 286 b 901 128 694 193 756 128 b 1139 190 979 128 1053 144 l 1139 38 b 872 -22 1075 1 985 -22 b 546 158 718 -22 607 24 l 538 158 b 240 -22 475 35 346 -22 m 225 186 b 296 117 225 136 258 117 b 436 317 374 117 436 199 l 436 338 b 299 272 403 299 339 289 b 225 186 254 254 225 226 m 979 414 b 838 574 979 511 939 574 b 694 414 753 574 694 528 "},"ǽ":{"ha":1201,"x_min":0,"x_max":0,"o":"m 240 -22 b 28 161 122 -22 28 38 b 228 361 28 274 118 331 b 432 481 328 389 432 408 b 318 561 432 526 393 561 b 86 465 242 561 150 517 l 86 618 b 374 717 149 669 263 717 b 585 625 469 717 544 689 b 832 718 633 686 722 718 b 1160 375 1026 718 1160 618 l 1160 286 l 694 286 b 901 128 694 193 756 128 b 1139 190 979 128 1053 144 l 1139 38 b 872 -22 1075 1 985 -22 b 546 158 718 -22 607 24 l 538 158 b 240 -22 475 35 346 -22 m 225 186 b 296 117 225 136 258 117 b 436 317 374 117 436 199 l 436 338 b 299 272 403 299 339 289 b 225 186 254 254 225 226 m 583 978 l 825 978 l 683 792 l 501 792 m 979 414 b 838 574 979 511 939 574 b 694 414 753 574 694 528 "},"b":{"ha":833,"x_min":0,"x_max":0,"o":"m 504 -22 b 278 99 419 -22 331 10 l 272 99 l 272 0 l 76 0 l 76 944 l 285 944 l 285 585 l 292 585 b 528 718 342 663 422 718 b 792 372 683 718 792 610 b 504 -22 792 149 707 -22 m 285 344 b 435 129 285 215 333 129 b 588 349 531 129 588 206 b 440 565 588 482 538 565 b 285 344 354 565 285 499 "},"":{"ha":833,"x_min":0,"x_max":0,"o":"m 504 -22 b 792 372 707 -22 792 149 b 528 718 792 610 683 718 b 292 585 422 718 342 663 l 285 585 l 285 944 l 76 944 l 76 0 l 272 0 l 272 99 l 278 99 b 504 -22 331 10 419 -22 m 285 344 b 440 565 285 499 354 565 b 588 349 538 565 588 482 b 435 129 588 206 531 129 b 285 344 333 129 285 215 "},"c":{"ha":703,"x_min":0,"x_max":0,"o":"m 407 -22 b 39 347 190 -22 39 82 b 396 718 39 571 147 718 b 653 658 485 718 574 701 l 653 490 b 435 551 586 525 510 551 b 246 350 326 551 246 494 b 444 143 246 226 304 143 b 665 204 511 143 585 163 l 665 39 b 407 -22 604 3 519 -22 "},"ć":{"ha":703,"x_min":0,"x_max":0,"o":"m 407 -22 b 39 347 190 -22 39 82 b 396 718 39 571 147 718 b 653 658 485 718 574 701 l 653 490 b 435 551 586 525 510 551 b 246 350 326 551 246 494 b 444 143 246 226 304 143 b 665 204 511 143 585 163 l 665 39 b 407 -22 604 3 519 -22 m 358 964 l 600 964 l 458 778 l 276 778 "},"č":{"ha":703,"x_min":0,"x_max":0,"o":"m 407 -22 b 39 347 190 -22 39 82 b 396 718 39 571 147 718 b 653 658 485 718 574 701 l 653 490 b 435 551 586 525 510 551 b 246 350 326 551 246 494 b 444 143 246 226 304 143 b 665 204 511 143 585 163 l 665 39 b 407 -22 604 3 519 -22 m 303 964 b 376 846 322 939 353 893 b 449 964 399 892 429 939 l 632 964 l 485 778 l 268 778 l 121 964 "},"ç":{"ha":703,"x_min":0,"x_max":0,"o":"m 315 -15 b 39 347 149 13 39 121 b 396 718 39 571 147 718 b 653 658 485 718 574 701 l 653 490 b 435 551 586 525 510 551 b 246 350 326 551 246 494 b 444 143 246 226 304 143 b 665 204 511 143 585 163 l 665 39 b 467 -19 615 10 550 -12 l 433 -181 l 247 -181 "},"ĉ":{"ha":703,"x_min":0,"x_max":0,"o":"m 407 -22 b 39 347 190 -22 39 82 b 396 718 39 571 147 718 b 653 658 485 718 574 701 l 653 490 b 435 551 586 525 510 551 b 246 350 326 551 246 494 b 444 143 246 226 304 143 b 665 204 511 143 585 163 l 665 39 b 407 -22 604 3 519 -22 m 268 964 l 485 964 l 632 778 l 450 778 b 376 888 431 803 399 844 b 301 778 353 844 322 803 l 121 778 "},"ċ":{"ha":703,"x_min":0,"x_max":0,"o":"m 407 -22 b 39 347 190 -22 39 82 b 396 718 39 571 147 718 b 653 658 485 718 574 701 l 653 490 b 435 551 586 525 510 551 b 246 350 326 551 246 494 b 444 143 246 226 304 143 b 665 204 511 143 585 163 l 665 39 b 407 -22 604 3 519 -22 m 265 865 b 375 950 265 917 289 950 b 486 865 458 950 486 919 b 375 779 486 807 453 779 b 265 865 301 779 265 803 "},"d":{"ha":833,"x_min":0,"x_max":0,"o":"m 314 -22 b 42 346 149 -22 42 99 b 326 718 42 574 138 718 b 542 599 415 718 488 679 l 549 599 l 549 944 l 757 944 l 757 0 l 561 0 l 561 106 l 554 106 b 314 -22 496 24 406 -22 m 246 347 b 392 129 246 236 276 129 b 547 346 485 129 547 203 b 393 565 547 478 492 565 b 246 347 310 565 246 503 "},"ð":{"ha":782,"x_min":0,"x_max":0,"o":"m 383 -22 b 38 297 178 -22 38 79 b 324 603 38 481 128 603 b 540 501 403 603 482 575 l 547 501 b 419 749 535 611 490 693 l 306 650 l 257 713 l 349 792 b 207 833 307 811 260 825 l 207 968 b 469 896 307 958 394 935 l 551 967 l 600 904 l 540 853 b 738 394 665 758 738 608 b 383 -22 738 151 639 -22 m 238 313 b 388 131 238 206 288 131 b 532 299 471 131 532 181 b 378 478 532 417 471 478 b 238 313 282 478 238 414 "},"ď":{"ha":833,"x_min":0,"x_max":0,"o":"m 314 -22 b 42 346 149 -22 42 99 b 326 718 42 574 138 718 b 542 599 415 718 488 679 l 549 599 l 549 944 l 757 944 l 757 0 l 561 0 l 561 106 l 554 106 b 314 -22 496 24 406 -22 m 246 347 b 392 129 246 236 276 129 b 547 346 485 129 547 203 b 393 565 547 478 492 565 b 246 347 310 565 246 503 m 814 615 b 878 944 828 711 849 822 l 1056 944 b 931 615 1029 864 989 756 l 814 615 "},"đ":{"ha":833,"x_min":0,"x_max":0,"o":"m 314 -22 b 42 346 149 -22 42 99 b 326 718 42 574 138 718 b 542 599 415 718 488 679 l 549 599 l 549 746 l 382 746 l 382 874 l 549 874 l 549 944 l 757 944 l 757 874 l 863 874 l 863 746 l 757 746 l 757 0 l 561 0 l 561 106 l 554 106 b 314 -22 496 24 406 -22 m 246 347 b 392 129 246 236 276 129 b 547 346 485 129 547 203 b 393 565 547 478 492 565 b 246 347 310 565 246 503 "},"ḍ":{"ha":833,"x_min":0,"x_max":0,"o":"m 314 -22 b 42 346 149 -22 42 99 b 326 718 42 574 138 718 b 542 599 415 718 488 679 l 549 599 l 549 944 l 757 944 l 757 0 l 561 0 l 561 106 l 554 106 b 314 -22 496 24 406 -22 m 246 347 b 392 129 246 236 276 129 b 547 346 485 129 547 203 b 393 565 547 478 492 565 b 246 347 310 565 246 503 m 294 -149 b 404 -64 294 -97 318 -64 b 515 -149 488 -64 515 -94 b 404 -235 515 -207 482 -235 b 294 -149 331 -235 294 -211 "},"e":{"ha":754,"x_min":0,"x_max":0,"o":"m 421 -22 b 40 353 193 -22 40 82 b 382 718 40 569 138 718 b 711 381 582 718 711 617 l 711 292 l 246 292 b 454 128 246 193 308 128 b 692 190 531 128 606 144 l 692 38 b 421 -22 626 1 538 -22 m 531 419 b 392 574 531 511 492 574 b 246 419 307 574 246 528 "},"é":{"ha":754,"x_min":0,"x_max":0,"o":"m 421 -22 b 40 353 193 -22 40 82 b 382 718 40 569 138 718 b 711 381 582 718 711 617 l 711 292 l 246 292 b 454 128 246 193 308 128 b 692 190 531 128 606 144 l 692 38 b 421 -22 626 1 538 -22 m 531 419 b 392 574 531 511 492 574 b 246 419 307 574 246 528 m 365 964 l 607 964 l 465 778 l 283 778 "},"ĕ":{"ha":754,"x_min":0,"x_max":0,"o":"m 421 -22 b 40 353 193 -22 40 82 b 382 718 40 569 138 718 b 711 381 582 718 711 617 l 711 292 l 246 292 b 454 128 246 193 308 128 b 692 190 531 128 606 144 l 692 38 b 421 -22 626 1 538 -22 m 301 958 b 389 888 310 911 343 888 b 478 958 435 888 469 911 l 624 958 b 394 786 611 851 507 786 l 385 786 b 156 958 261 786 167 851 m 531 419 b 392 574 531 511 492 574 b 246 419 307 574 246 528 "},"ě":{"ha":754,"x_min":0,"x_max":0,"o":"m 421 -22 b 40 353 193 -22 40 82 b 382 718 40 569 138 718 b 711 381 582 718 711 617 l 711 292 l 246 292 b 454 128 246 193 308 128 b 692 190 531 128 606 144 l 692 38 b 421 -22 626 1 538 -22 m 310 964 b 383 846 329 939 360 893 b 456 964 406 892 436 939 l 639 964 l 492 778 l 275 778 l 128 964 m 531 419 b 392 574 531 511 492 574 b 246 419 307 574 246 528 "},"ê":{"ha":754,"x_min":0,"x_max":0,"o":"m 421 -22 b 40 353 193 -22 40 82 b 382 718 40 569 138 718 b 711 381 582 718 711 617 l 711 292 l 246 292 b 454 128 246 193 308 128 b 692 190 531 128 606 144 l 692 38 b 421 -22 626 1 538 -22 m 275 964 l 492 964 l 639 778 l 457 778 b 383 888 438 803 406 844 b 308 778 360 844 329 803 l 128 778 m 531 419 b 392 574 531 511 492 574 b 246 419 307 574 246 528 "},"ë":{"ha":754,"x_min":0,"x_max":0,"o":"m 421 -22 b 40 353 193 -22 40 82 b 382 718 40 569 138 718 b 711 381 582 718 711 617 l 711 292 l 246 292 b 454 128 246 193 308 128 b 692 190 531 128 606 144 l 692 38 b 421 -22 626 1 538 -22 m 168 881 b 261 960 168 928 189 960 b 356 881 331 960 356 932 b 261 800 356 825 325 800 b 168 881 201 800 168 822 m 531 419 b 392 574 531 511 492 574 b 246 419 307 574 246 528 m 408 881 b 503 960 408 928 431 960 b 596 881 571 960 596 932 b 503 800 596 825 567 800 b 408 881 443 800 408 822 "},"ė":{"ha":754,"x_min":0,"x_max":0,"o":"m 421 -22 b 40 353 193 -22 40 82 b 382 718 40 569 138 718 b 711 381 582 718 711 617 l 711 292 l 246 292 b 454 128 246 193 308 128 b 692 190 531 128 606 144 l 692 38 b 421 -22 626 1 538 -22 m 531 419 b 392 574 531 511 492 574 b 246 419 307 574 246 528 m 272 865 b 382 950 272 917 296 950 b 493 865 465 950 493 919 b 382 779 493 807 460 779 b 272 865 308 779 272 803 "},"è":{"ha":754,"x_min":0,"x_max":0,"o":"m 421 -22 b 40 353 193 -22 40 82 b 382 718 40 569 138 718 b 711 381 582 718 711 617 l 711 292 l 246 292 b 454 128 246 193 308 128 b 692 190 531 128 606 144 l 692 38 b 421 -22 626 1 538 -22 m 406 964 l 488 778 l 306 778 l 164 964 m 531 419 b 392 574 531 511 492 574 b 246 419 307 574 246 528 "},"ē":{"ha":754,"x_min":0,"x_max":0,"o":"m 421 -22 b 40 353 193 -22 40 82 b 382 718 40 569 138 718 b 711 381 582 718 711 617 l 711 292 l 246 292 b 454 128 246 193 308 128 b 692 190 531 128 606 144 l 692 38 b 421 -22 626 1 538 -22 m 175 936 l 590 936 l 590 810 l 175 810 m 531 419 b 392 574 531 511 492 574 b 246 419 307 574 246 528 "},"ę":{"ha":754,"x_min":0,"x_max":0,"o":"m 421 -22 b 40 353 193 -22 40 82 b 382 718 40 569 138 718 b 711 381 582 718 711 617 l 711 292 l 246 292 b 454 128 246 193 308 128 b 692 190 531 128 606 144 l 692 38 b 600 0 665 22 635 10 l 601 0 b 497 -115 561 -19 497 -58 b 556 -167 497 -146 517 -167 b 642 -139 593 -167 631 -149 l 642 -229 b 528 -260 608 -249 568 -260 b 392 -146 444 -260 392 -214 b 468 -21 392 -90 429 -49 b 421 -22 453 -22 438 -22 m 531 419 b 392 574 531 511 492 574 b 246 419 307 574 246 528 "},"ẽ":{"ha":754,"x_min":0,"x_max":0,"o":"m 421 -22 b 40 353 193 -22 40 82 b 382 718 40 569 138 718 b 711 381 582 718 711 617 l 711 292 l 246 292 b 454 128 246 193 308 128 b 692 190 531 128 606 144 l 692 38 b 421 -22 626 1 538 -22 m 188 908 b 301 950 206 925 249 950 b 464 914 364 950 403 914 b 585 961 519 914 558 940 l 585 846 b 457 797 564 829 514 797 b 292 832 399 797 356 832 b 188 797 256 832 219 821 m 531 419 b 392 574 531 511 492 574 b 246 419 307 574 246 528 "},"ə":{"ha":754,"x_min":0,"x_max":0,"o":"m 357 717 b 711 354 578 717 711 621 b 368 -24 711 129 617 -24 b 40 308 168 -24 40 63 l 40 408 l 504 408 b 325 567 504 504 463 567 b 81 499 249 567 168 550 l 81 651 b 357 717 144 693 243 717 m 221 281 b 360 121 221 183 258 121 b 504 281 444 121 504 167 l 221 281 "},"f":{"ha":542,"x_min":0,"x_max":0,"o":"m 389 967 b 560 935 460 967 526 953 l 560 782 b 438 815 533 797 479 815 b 335 676 335 815 335 724 l 335 629 l 522 629 l 522 460 l 335 460 l 335 0 l 126 0 l 126 460 l 32 460 l 32 629 l 126 629 l 126 676 b 389 967 126 782 126 967 "},"g":{"ha":829,"x_min":0,"x_max":0,"o":"m 353 -260 b 106 -212 254 -260 171 -242 l 106 -57 b 353 -115 172 -86 239 -115 b 560 76 471 -115 560 -51 l 560 106 l 553 106 b 313 -19 500 33 414 -19 b 42 344 158 -19 42 82 b 322 718 42 572 136 718 b 550 594 413 718 492 682 l 556 594 l 556 694 l 757 694 l 757 113 b 353 -260 757 -64 683 -260 m 246 344 b 393 135 246 244 272 135 b 549 351 497 135 549 219 b 393 565 549 490 486 565 b 246 344 292 565 246 475 "},"ğ":{"ha":829,"x_min":0,"x_max":0,"o":"m 353 -260 b 106 -212 254 -260 171 -242 l 106 -57 b 353 -115 172 -86 239 -115 b 560 76 471 -115 560 -51 l 560 106 l 553 106 b 313 -19 500 33 414 -19 b 42 344 158 -19 42 82 b 322 718 42 572 136 718 b 550 594 413 718 492 682 l 556 594 l 556 694 l 757 694 l 757 113 b 353 -260 757 -64 683 -260 m 315 958 b 403 888 324 911 357 888 b 492 958 449 888 483 911 l 638 958 b 408 786 625 851 521 786 l 399 786 b 169 958 275 786 181 851 m 246 344 b 393 135 246 244 272 135 b 549 351 497 135 549 219 b 393 565 549 490 486 565 b 246 344 292 565 246 475 "},"ĝ":{"ha":829,"x_min":0,"x_max":0,"o":"m 353 -260 b 106 -212 254 -260 171 -242 l 106 -57 b 353 -115 172 -86 239 -115 b 560 76 471 -115 560 -51 l 560 106 l 553 106 b 313 -19 500 33 414 -19 b 42 344 158 -19 42 82 b 322 718 42 572 136 718 b 550 594 413 718 492 682 l 556 594 l 556 694 l 757 694 l 757 113 b 353 -260 757 -64 683 -260 m 288 964 l 504 964 l 651 778 l 469 778 b 396 888 450 803 418 844 b 321 778 372 844 342 803 l 140 778 m 246 344 b 393 135 246 244 272 135 b 549 351 497 135 549 219 b 393 565 549 490 486 565 b 246 344 292 565 246 475 "},"ģ":{"ha":829,"x_min":0,"x_max":0,"o":"m 353 -260 b 106 -212 254 -260 171 -242 l 106 -57 b 353 -115 172 -86 239 -115 b 560 76 471 -115 560 -51 l 560 106 l 553 106 b 313 -19 500 33 414 -19 b 42 344 158 -19 42 82 b 322 718 42 572 136 718 b 550 594 413 718 492 682 l 556 594 l 556 694 l 757 694 l 757 113 b 353 -260 757 -64 683 -260 m 246 344 b 393 135 246 244 272 135 b 549 351 497 135 549 219 b 393 565 549 490 486 565 b 246 344 292 565 246 475 m 388 964 l 569 964 l 488 778 l 246 778 "},"ġ":{"ha":829,"x_min":0,"x_max":0,"o":"m 353 -260 b 106 -212 254 -260 171 -242 l 106 -57 b 353 -115 172 -86 239 -115 b 560 76 471 -115 560 -51 l 560 106 l 553 106 b 313 -19 500 33 414 -19 b 42 344 158 -19 42 82 b 322 718 42 572 136 718 b 550 594 413 718 492 682 l 556 594 l 556 694 l 757 694 l 757 113 b 353 -260 757 -64 683 -260 m 246 344 b 393 135 246 244 272 135 b 549 351 497 135 549 219 b 393 565 549 490 486 565 b 246 344 292 565 246 475 m 286 865 b 396 950 286 917 310 950 b 507 865 479 950 507 919 b 396 779 507 807 474 779 b 286 865 322 779 286 803 "},"ḡ":{"ha":829,"x_min":0,"x_max":0,"o":"m 353 -260 b 106 -212 254 -260 171 -242 l 106 -57 b 353 -115 172 -86 239 -115 b 560 76 471 -115 560 -51 l 560 106 l 553 106 b 313 -19 500 33 414 -19 b 42 344 158 -19 42 82 b 322 718 42 572 136 718 b 550 594 413 718 492 682 l 556 594 l 556 694 l 757 694 l 757 113 b 353 -260 757 -64 683 -260 m 189 936 l 604 936 l 604 810 l 189 810 m 246 344 b 393 135 246 244 272 135 b 549 351 497 135 549 219 b 393 565 549 490 486 565 b 246 344 292 565 246 475 "},"h":{"ha":807,"x_min":0,"x_max":0,"o":"m 76 944 l 285 944 l 285 574 l 292 574 b 526 718 343 660 417 718 b 736 456 650 718 736 644 l 736 0 l 528 0 l 528 381 b 419 535 528 472 497 535 b 285 351 358 535 285 494 l 285 0 l 76 0 "},"ħ":{"ha":807,"x_min":0,"x_max":0,"o":"m 76 746 l -22 746 l -22 874 l 76 874 l 76 944 l 285 944 l 285 874 l 458 874 l 458 746 l 285 746 l 285 574 l 292 574 b 526 718 343 660 417 718 b 736 456 650 718 736 644 l 736 0 l 528 0 l 528 381 b 419 535 528 472 497 535 b 285 351 358 535 285 494 l 285 0 l 76 0 "},"ĥ":{"ha":807,"x_min":0,"x_max":0,"o":"m 76 944 l 285 944 l 285 574 l 292 574 b 526 718 343 660 417 718 b 736 456 650 718 736 644 l 736 0 l 528 0 l 528 381 b 419 535 528 472 497 535 b 285 351 358 535 285 494 l 285 0 l 76 0 m 68 1214 l 290 1214 l 435 1028 l 253 1028 b 179 1140 231 1053 201 1094 b 104 1028 156 1094 126 1053 l -76 1028 "},"i":{"ha":361,"x_min":0,"x_max":0,"o":"m 76 697 b 181 686 107 692 142 686 b 285 697 214 686 249 690 l 285 0 l 76 0 l 76 697 m 71 838 b 181 922 71 889 94 922 b 292 838 264 922 292 892 b 181 751 292 779 258 751 b 71 838 107 751 71 775 "},"ı":{"ha":361,"x_min":0,"x_max":0,"o":"m 76 697 b 181 686 107 692 142 686 b 285 697 214 686 249 690 l 285 0 l 76 0 l 76 697 "},"í":{"ha":361,"x_min":0,"x_max":0,"o":"m 76 697 b 181 686 107 692 142 686 b 285 697 214 686 249 690 l 285 0 l 76 0 l 76 697 m 164 936 l 406 936 l 264 750 l 82 750 "},"ĭ":{"ha":361,"x_min":0,"x_max":0,"o":"m 76 713 b 181 701 107 707 142 701 b 285 713 214 701 249 706 l 285 15 l 76 15 l 76 713 m 93 958 b 181 888 101 911 135 888 b 269 958 226 888 261 911 l 415 958 b 186 786 403 851 299 786 l 176 786 b -53 958 53 786 -42 851 "},"î":{"ha":361,"x_min":0,"x_max":0,"o":"m 76 697 b 181 686 107 692 142 686 b 285 697 214 686 249 690 l 285 0 l 76 0 l 76 697 m 74 936 l 290 936 l 438 750 l 256 750 b 182 860 236 775 204 817 b 107 750 158 817 128 775 l -74 750 "},"ï":{"ha":361,"x_min":0,"x_max":0,"o":"m 76 697 b 181 686 107 692 142 686 b 285 697 214 686 249 690 l 285 0 l 76 0 l 76 697 m -32 853 b 61 932 -32 900 -11 932 b 156 853 131 932 156 904 b 61 772 156 797 125 772 b -32 853 1 772 -32 794 m 208 853 b 303 932 208 900 231 932 b 396 853 371 932 396 904 b 303 772 396 797 367 772 b 208 853 243 772 208 794 "},"ì":{"ha":361,"x_min":0,"x_max":0,"o":"m 76 697 b 181 686 107 692 142 686 b 285 697 214 686 249 690 l 285 0 l 76 0 l 76 697 m 204 936 l 286 750 l 104 750 l -37 936 "},"ĳ":{"ha":721,"x_min":0,"x_max":0,"o":"m 76 697 b 181 686 107 692 142 686 b 285 697 214 686 249 690 l 285 0 l 76 0 l 76 697 m 71 838 b 181 922 71 889 94 922 b 292 838 264 922 292 892 b 181 751 292 779 260 751 b 71 838 107 751 71 775 m 274 -87 b 354 -104 294 -94 326 -104 b 436 21 421 -104 436 -50 l 436 697 b 543 686 471 692 507 686 b 646 697 576 686 611 690 l 646 33 b 414 -260 646 -119 600 -260 b 274 -229 367 -260 319 -250 m 432 838 b 543 922 432 889 457 922 b 654 838 626 922 654 892 b 543 751 654 779 621 751 b 432 838 469 751 432 775 "},"ī":{"ha":361,"x_min":0,"x_max":0,"o":"m 76 697 b 181 686 107 692 142 686 b 285 697 214 686 249 690 l 285 0 l 76 0 l 76 697 m -26 908 l 389 908 l 389 782 l -26 782 "},"į":{"ha":361,"x_min":0,"x_max":0,"o":"m 76 697 b 181 686 107 692 142 686 b 285 697 214 686 249 690 l 285 0 l 249 0 b 143 -115 207 -19 143 -58 b 201 -167 143 -146 163 -167 b 289 -139 239 -167 276 -149 l 289 -229 b 174 -260 254 -249 214 -260 b 38 -146 90 -260 38 -214 b 147 0 38 -75 99 -26 l 76 0 l 76 697 m 71 838 b 181 922 71 889 94 922 b 292 838 264 922 292 892 b 181 751 292 779 260 751 b 71 838 107 751 71 775 "},"ĩ":{"ha":361,"x_min":0,"x_max":0,"o":"m 76 697 b 181 686 107 692 142 686 b 285 697 214 686 249 690 l 285 0 l 76 0 l 76 697 m -14 881 b 100 922 4 897 47 922 b 263 886 163 922 201 886 b 383 933 318 886 357 913 l 383 818 b 256 769 363 801 313 769 b 90 804 197 769 154 804 b -14 769 54 804 18 793 "},"j":{"ha":361,"x_min":0,"x_max":0,"o":"m 53 -260 b -86 -229 6 -260 -42 -250 l -86 -87 b -7 -104 -67 -94 -33 -104 b 76 21 60 -104 76 -50 l 76 697 b 182 686 110 692 146 686 b 285 697 215 686 250 690 l 285 33 b 53 -260 285 -119 239 -260 m 72 838 b 182 922 72 889 96 922 b 293 838 265 922 293 892 b 182 751 293 779 260 751 b 72 838 108 751 72 775 "},"ȷ":{"ha":361,"x_min":0,"x_max":0,"o":"m 53 -260 b -86 -229 6 -260 -42 -250 l -86 -87 b -7 -104 -67 -94 -33 -104 b 76 21 60 -104 76 -50 l 76 697 b 182 686 110 692 146 686 b 285 697 215 686 250 690 l 285 33 b 53 -260 285 -119 239 -260 "},"ĵ":{"ha":361,"x_min":0,"x_max":0,"o":"m 53 -260 b -86 -229 6 -260 -42 -250 l -86 -87 b -7 -104 -67 -94 -33 -104 b 76 21 60 -104 76 -50 l 76 697 b 182 686 110 692 146 686 b 285 697 215 686 250 690 l 285 33 b 53 -260 285 -119 239 -260 m 74 936 l 290 936 l 438 750 l 256 750 b 182 860 236 775 204 817 b 107 750 158 817 128 775 l -74 750 "},"k":{"ha":724,"x_min":0,"x_max":0,"o":"m 486 351 b 722 0 568 236 649 115 l 488 0 b 292 296 419 99 356 197 l 285 296 l 285 0 l 76 0 l 76 944 l 285 944 l 285 404 l 292 404 b 493 694 357 501 424 597 l 726 694 b 486 351 649 581 571 465 "},"ķ":{"ha":724,"x_min":0,"x_max":0,"o":"m 486 351 b 722 0 568 236 649 115 l 488 0 b 292 296 419 99 356 197 l 285 296 l 285 0 l 76 0 l 76 944 l 285 944 l 285 404 l 292 404 b 493 694 357 501 424 597 l 726 694 b 486 351 649 581 571 465 m 276 -56 l 515 -56 l 385 -236 l 203 -236 "},"l":{"ha":361,"x_min":0,"x_max":0,"o":"m 76 0 l 76 944 l 285 944 l 285 0 "},"ĺ":{"ha":361,"x_min":0,"x_max":0,"o":"m 76 0 l 76 944 l 285 944 l 285 0 m 163 1228 l 404 1228 l 263 1042 l 81 1042 "},"ľ":{"ha":361,"x_min":0,"x_max":0,"o":"m 76 0 l 76 944 l 285 944 l 285 0 m 343 615 b 407 944 357 711 378 822 l 585 944 b 460 615 558 864 518 756 l 343 615 "},"ļ":{"ha":361,"x_min":0,"x_max":0,"o":"m 76 0 l 76 944 l 285 944 l 285 0 m 81 -56 l 319 -56 l 189 -236 l 7 -236 "},"ŀ":{"ha":597,"x_min":0,"x_max":0,"o":"m 76 0 l 76 944 l 285 944 l 285 0 m 375 564 b 482 668 375 626 417 668 b 590 564 547 668 590 626 b 482 461 590 501 547 461 b 375 564 417 461 375 501 "},"ł":{"ha":361,"x_min":0,"x_max":0,"o":"m 76 0 l 76 386 l -43 332 l -43 549 l 76 603 l 76 944 l 285 944 l 285 697 l 403 750 l 403 533 l 285 481 l 285 0 "},"m":{"ha":1250,"x_min":0,"x_max":0,"o":"m 76 694 l 281 694 l 281 574 l 288 574 b 522 718 339 660 415 718 b 724 565 619 718 693 674 l 729 565 b 965 718 778 657 853 718 b 1181 456 1094 718 1181 644 l 1181 0 l 971 0 l 971 381 b 864 535 971 474 940 535 b 736 351 801 535 736 493 l 736 0 l 528 0 l 528 381 b 419 535 528 472 497 535 b 285 351 358 535 285 494 l 285 0 l 76 0 "},"n":{"ha":807,"x_min":0,"x_max":0,"o":"m 76 694 l 281 694 l 281 574 l 288 574 b 525 718 339 660 414 718 b 736 456 650 718 736 644 l 736 0 l 528 0 l 528 381 b 419 535 528 472 497 535 b 285 351 358 535 285 494 l 285 0 l 76 0 "},"ń":{"ha":807,"x_min":0,"x_max":0,"o":"m 76 694 l 281 694 l 281 574 l 288 574 b 525 718 339 660 414 718 b 736 456 650 718 736 644 l 736 0 l 528 0 l 528 381 b 419 535 528 472 497 535 b 285 351 358 535 285 494 l 285 0 l 76 0 m 390 964 l 632 964 l 490 778 l 308 778 "},"ŉ":{"ha":976,"x_min":0,"x_max":0,"o":"m 246 694 l 450 694 l 450 574 l 457 574 b 693 718 508 660 583 718 b 906 456 819 718 906 644 l 906 0 l 697 0 l 697 381 b 589 535 697 472 667 535 b 454 351 526 535 454 494 l 454 0 l 246 0 m -7 610 b 57 939 7 706 29 817 l 244 939 b 119 610 218 858 178 750 l -7 610 "},"ň":{"ha":807,"x_min":0,"x_max":0,"o":"m 76 694 l 281 694 l 281 574 l 288 574 b 525 718 339 660 414 718 b 736 456 650 718 736 644 l 736 0 l 528 0 l 528 381 b 419 535 528 472 497 535 b 285 351 358 535 285 494 l 285 0 l 76 0 m 335 964 b 408 846 354 939 385 893 b 481 964 431 892 461 939 l 664 964 l 517 778 l 300 778 l 153 964 "},"ņ":{"ha":807,"x_min":0,"x_max":0,"o":"m 76 694 l 281 694 l 281 574 l 288 574 b 525 718 339 660 414 718 b 736 456 650 718 736 644 l 736 0 l 528 0 l 528 381 b 419 535 528 472 497 535 b 285 351 358 535 285 494 l 285 0 l 76 0 m 315 -56 l 554 -56 l 424 -236 l 242 -236 "},"ṇ":{"ha":807,"x_min":0,"x_max":0,"o":"m 76 694 l 281 694 l 281 574 l 288 574 b 525 718 339 660 414 718 b 736 456 650 718 736 644 l 736 0 l 528 0 l 528 381 b 419 535 528 472 497 535 b 285 351 358 535 285 494 l 285 0 l 76 0 m 318 -149 b 428 -64 318 -97 342 -64 b 539 -149 511 -64 539 -94 b 428 -235 539 -207 507 -235 b 318 -149 354 -235 318 -211 "},"ñ":{"ha":807,"x_min":0,"x_max":0,"o":"m 76 694 l 281 694 l 281 574 l 288 574 b 525 718 339 660 414 718 b 736 456 650 718 736 644 l 736 0 l 528 0 l 528 381 b 419 535 528 472 497 535 b 285 351 358 535 285 494 l 285 0 l 76 0 m 213 908 b 326 950 231 925 274 950 b 489 914 389 950 428 914 b 610 961 544 914 583 940 l 610 846 b 482 797 589 829 539 797 b 317 832 424 797 381 832 b 213 797 281 832 244 821 "},"ŋ":{"ha":807,"x_min":0,"x_max":0,"o":"m 504 -260 b 365 -229 458 -260 411 -250 l 365 -87 b 446 -104 385 -94 418 -104 b 528 21 511 -104 528 -50 l 528 381 b 419 535 528 472 497 535 b 285 390 358 535 308 494 l 285 0 l 76 0 l 76 694 l 281 694 l 281 574 l 288 574 b 525 718 339 660 414 718 b 736 456 650 718 736 644 l 736 33 b 504 -260 736 -119 692 -260 "},"o":{"ha":789,"x_min":0,"x_max":0,"o":"m 394 -22 b 40 347 182 -22 40 86 b 394 718 40 564 139 718 b 749 347 607 718 749 608 b 394 -22 749 131 650 -22 m 244 347 b 394 129 244 222 285 129 b 544 347 485 129 544 196 b 394 565 544 472 504 565 b 244 347 303 565 244 499 "},"ó":{"ha":789,"x_min":0,"x_max":0,"o":"m 394 -22 b 40 347 182 -22 40 86 b 394 718 40 564 139 718 b 749 347 607 718 749 608 b 394 -22 749 131 650 -22 m 244 347 b 394 129 244 222 285 129 b 544 347 485 129 544 196 b 394 565 544 472 504 565 b 244 347 303 565 244 499 m 378 964 l 619 964 l 478 778 l 296 778 "},"ŏ":{"ha":789,"x_min":0,"x_max":0,"o":"m 394 -22 b 40 347 182 -22 40 86 b 394 718 40 564 139 718 b 749 347 607 718 749 608 b 394 -22 749 131 650 -22 m 314 958 b 401 888 322 911 356 888 b 490 958 447 888 482 911 l 636 958 b 407 786 624 851 519 786 l 397 786 b 168 958 274 786 179 851 m 244 347 b 394 129 244 222 285 129 b 544 347 485 129 544 196 b 394 565 544 472 504 565 b 244 347 303 565 244 499 "},"ô":{"ha":789,"x_min":0,"x_max":0,"o":"m 394 -22 b 40 347 182 -22 40 86 b 394 718 40 564 139 718 b 749 347 607 718 749 608 b 394 -22 749 131 650 -22 m 288 964 l 504 964 l 651 778 l 469 778 b 396 888 450 803 418 844 b 321 778 372 844 342 803 l 140 778 m 244 347 b 394 129 244 222 285 129 b 544 347 485 129 544 196 b 394 565 544 472 504 565 b 244 347 303 565 244 499 "},"ö":{"ha":789,"x_min":0,"x_max":0,"o":"m 394 -22 b 40 347 182 -22 40 86 b 394 718 40 564 139 718 b 749 347 607 718 749 608 b 394 -22 749 131 650 -22 m 181 881 b 274 960 181 928 201 960 b 368 881 343 960 368 932 b 274 800 368 825 338 800 b 181 881 214 800 181 822 m 244 347 b 394 129 244 222 285 129 b 544 347 485 129 544 196 b 394 565 544 472 504 565 b 244 347 303 565 244 499 m 421 881 b 515 960 421 928 443 960 b 608 881 583 960 608 932 b 515 800 608 825 579 800 b 421 881 456 800 421 822 "},"ò":{"ha":789,"x_min":0,"x_max":0,"o":"m 394 -22 b 40 347 182 -22 40 86 b 394 718 40 564 139 718 b 749 347 607 718 749 608 b 394 -22 749 131 650 -22 m 418 964 l 500 778 l 318 778 l 176 964 m 244 347 b 394 129 244 222 285 129 b 544 347 485 129 544 196 b 394 565 544 472 504 565 b 244 347 303 565 244 499 "},"ő":{"ha":789,"x_min":0,"x_max":0,"o":"m 394 -22 b 40 347 182 -22 40 86 b 394 718 40 564 139 718 b 749 347 607 718 749 608 b 394 -22 749 131 650 -22 m 244 964 l 463 964 l 318 778 l 163 778 m 244 347 b 394 129 244 222 285 129 b 544 347 485 129 544 196 b 394 565 544 472 504 565 b 244 347 303 565 244 499 m 513 964 l 729 964 l 586 778 l 431 778 "},"ō":{"ha":789,"x_min":0,"x_max":0,"o":"m 394 -22 b 40 347 182 -22 40 86 b 394 718 40 564 139 718 b 749 347 607 718 749 608 b 394 -22 749 131 650 -22 m 188 936 l 603 936 l 603 810 l 188 810 m 244 347 b 394 129 244 222 285 129 b 544 347 485 129 544 196 b 394 565 544 472 504 565 b 244 347 303 565 244 499 "},"ø":{"ha":789,"x_min":0,"x_max":0,"o":"m 394 -22 b 253 -3 343 -22 294 -15 l 196 -99 l 118 -49 l 169 39 b 40 347 88 96 40 196 b 394 718 40 564 139 718 b 553 692 453 718 507 710 l 604 779 l 681 724 l 635 646 b 749 347 707 586 749 489 b 394 -22 749 131 650 -22 m 243 347 b 268 208 243 293 251 244 l 468 547 b 394 565 447 558 424 565 b 243 347 303 565 243 499 m 336 140 b 394 129 353 133 372 129 b 546 347 485 129 546 196 b 529 467 546 392 540 432 l 336 140 "},"ǿ":{"ha":789,"x_min":0,"x_max":0,"o":"m 394 -22 b 253 -3 343 -22 294 -15 l 196 -99 l 118 -49 l 169 39 b 40 347 88 96 40 196 b 394 718 40 564 139 718 b 553 692 453 718 507 710 l 604 779 l 681 724 l 635 646 b 749 347 707 586 749 489 b 394 -22 749 131 650 -22 m 243 347 b 268 208 243 293 251 244 l 468 547 b 394 565 447 558 424 565 b 243 347 303 565 243 499 m 376 964 l 618 964 l 476 778 l 294 778 m 336 140 b 394 129 353 133 372 129 b 546 347 485 129 546 196 b 529 467 546 392 540 432 l 336 140 "},"õ":{"ha":789,"x_min":0,"x_max":0,"o":"m 394 -22 b 40 347 182 -22 40 86 b 394 718 40 564 139 718 b 749 347 607 718 749 608 b 394 -22 749 131 650 -22 m 200 908 b 314 950 218 925 261 950 b 476 914 376 950 415 914 b 597 961 532 914 571 940 l 597 846 b 469 797 576 829 526 797 b 304 832 411 797 368 832 b 200 797 268 832 232 821 m 244 347 b 394 129 244 222 285 129 b 544 347 485 129 544 196 b 394 565 544 472 504 565 b 244 347 303 565 244 499 "},"œ":{"ha":1261,"x_min":0,"x_max":0,"o":"m 394 -22 b 40 347 182 -22 40 86 b 394 718 40 564 139 718 b 644 636 497 718 583 693 b 889 718 700 689 779 718 b 1218 381 1089 718 1218 617 l 1218 292 l 753 292 b 961 128 753 193 815 128 b 1199 190 1038 128 1113 144 l 1199 38 b 928 -22 1133 1 1044 -22 b 651 64 814 -22 718 4 b 394 -22 594 10 511 -22 m 244 347 b 394 129 244 222 285 129 b 544 347 485 129 544 196 b 394 565 544 472 504 565 b 244 347 303 565 244 499 m 1038 419 b 899 574 1038 511 999 574 b 753 419 814 574 753 528 "},"p":{"ha":833,"x_min":0,"x_max":0,"o":"m 76 694 l 278 694 l 278 585 l 285 585 b 528 718 335 663 419 718 b 792 372 683 718 792 610 b 504 -22 792 149 707 -22 b 285 99 421 -22 335 10 l 278 99 l 278 -236 l 76 -236 m 285 344 b 435 129 285 215 333 129 b 588 349 531 129 588 206 b 440 565 588 482 538 565 b 285 344 354 565 285 499 "},"þ":{"ha":821,"x_min":0,"x_max":0,"o":"m 494 -22 b 290 85 410 -22 339 8 l 285 85 l 285 -236 l 76 -236 l 76 944 l 285 944 l 285 593 l 290 593 b 524 718 343 668 415 718 b 778 374 665 718 778 624 b 494 -22 778 138 692 -22 m 290 349 b 429 129 290 217 329 129 b 574 346 519 129 574 203 b 429 565 574 465 536 565 b 290 349 346 565 290 504 "},"q":{"ha":831,"x_min":0,"x_max":0,"o":"m 556 103 l 549 103 b 311 -22 489 19 396 -22 b 42 346 146 -22 42 103 b 328 718 42 578 142 718 b 549 594 414 718 492 682 l 556 594 l 556 694 l 757 694 l 757 -236 l 556 -236 m 246 346 b 390 129 246 231 281 129 b 547 344 475 129 547 190 b 393 565 547 475 494 565 b 246 346 300 565 246 490 "},"r":{"ha":574,"x_min":0,"x_max":0,"o":"m 76 694 l 278 694 l 278 557 l 285 557 b 458 718 306 658 361 718 b 554 696 492 718 525 711 l 554 490 b 444 521 518 508 481 521 b 285 278 350 521 285 435 l 285 0 l 76 0 "},"ŕ":{"ha":574,"x_min":0,"x_max":0,"o":"m 76 694 l 278 694 l 278 557 l 285 557 b 458 718 306 658 361 718 b 554 696 492 718 525 711 l 554 490 b 444 521 518 508 481 521 b 285 278 350 521 285 435 l 285 0 l 76 0 m 292 964 l 533 964 l 392 778 l 210 778 "},"ř":{"ha":574,"x_min":0,"x_max":0,"o":"m 76 694 l 278 694 l 278 557 l 285 557 b 458 718 306 658 361 718 b 554 696 492 718 525 711 l 554 490 b 444 521 518 508 481 521 b 285 278 350 521 285 435 l 285 0 l 76 0 m 236 964 b 310 846 256 939 286 893 b 382 964 332 892 363 939 l 565 964 l 418 778 l 201 778 l 54 964 "},"ŗ":{"ha":574,"x_min":0,"x_max":0,"o":"m 76 694 l 278 694 l 278 557 l 285 557 b 458 718 306 658 361 718 b 554 696 492 718 525 711 l 554 490 b 444 521 518 508 481 521 b 285 278 350 521 285 435 l 285 0 l 76 0 m 67 -56 l 306 -56 l 175 -236 l -7 -236 "},"s":{"ha":646,"x_min":0,"x_max":0,"o":"m 300 -22 b 46 42 203 -22 108 -4 l 46 199 b 286 124 125 151 206 124 b 401 190 347 124 401 142 b 315 269 401 231 364 250 b 194 317 265 288 222 304 b 46 510 110 354 46 415 b 331 718 46 622 128 718 b 574 653 419 718 506 699 l 574 497 b 361 574 515 544 436 574 b 258 515 301 574 258 553 b 382 421 258 476 314 449 b 481 378 415 407 438 399 b 614 200 539 353 614 315 b 300 -22 614 71 519 -22 "},"":{"ha":646,"x_min":0,"x_max":0,"o":"m 300 -22 b 614 200 519 -22 614 71 b 481 378 614 315 539 353 b 382 421 438 399 415 407 b 258 515 314 449 258 476 b 361 574 258 553 301 574 b 574 497 436 574 515 544 l 574 653 b 331 718 506 699 419 718 b 46 510 128 718 46 622 b 194 317 46 415 110 354 b 315 269 222 304 265 288 b 401 190 364 250 401 231 b 286 124 401 142 347 124 b 46 199 206 124 125 151 l 46 42 b 300 -22 108 -4 203 -22 "},"ś":{"ha":646,"x_min":0,"x_max":0,"o":"m 300 -22 b 46 42 203 -22 108 -4 l 46 199 b 286 124 125 151 206 124 b 401 190 347 124 401 142 b 315 269 401 231 364 250 b 194 317 265 288 222 304 b 46 510 110 354 46 415 b 331 718 46 622 128 718 b 574 653 419 718 506 699 l 574 497 b 361 574 515 544 436 574 b 258 515 301 574 258 553 b 382 421 258 476 314 449 b 481 378 415 407 438 399 b 614 200 539 353 614 315 b 300 -22 614 71 519 -22 m 307 964 l 549 964 l 407 778 l 225 778 "},"š":{"ha":646,"x_min":0,"x_max":0,"o":"m 300 -22 b 46 42 203 -22 108 -4 l 46 199 b 286 124 125 151 206 124 b 401 190 347 124 401 142 b 315 269 401 231 364 250 b 194 317 265 288 222 304 b 46 510 110 354 46 415 b 331 718 46 622 128 718 b 574 653 419 718 506 699 l 574 497 b 361 574 515 544 436 574 b 258 515 301 574 258 553 b 382 421 258 476 314 449 b 481 378 415 407 438 399 b 614 200 539 353 614 315 b 300 -22 614 71 519 -22 m 251 964 b 325 846 271 939 301 893 b 397 964 347 892 378 939 l 581 964 l 433 778 l 217 778 l 69 964 "},"ş":{"ha":646,"x_min":0,"x_max":0,"o":"m 242 -19 b 46 42 167 -14 96 6 l 46 199 b 286 124 125 151 206 124 b 401 190 347 124 401 142 b 315 269 401 231 364 250 b 194 317 265 288 222 304 b 46 510 110 354 46 415 b 331 718 46 622 128 718 b 574 653 419 718 506 699 l 574 497 b 361 574 515 544 436 574 b 258 515 301 574 258 553 b 382 421 258 476 314 449 b 481 378 415 407 438 399 b 614 200 539 353 614 315 b 397 -15 614 92 547 10 l 363 -181 l 176 -181 "},"ŝ":{"ha":646,"x_min":0,"x_max":0,"o":"m 300 -22 b 46 42 203 -22 108 -4 l 46 199 b 286 124 125 151 206 124 b 401 190 347 124 401 142 b 315 269 401 231 364 250 b 194 317 265 288 222 304 b 46 510 110 354 46 415 b 331 718 46 622 128 718 b 574 653 419 718 506 699 l 574 497 b 361 574 515 544 436 574 b 258 515 301 574 258 553 b 382 421 258 476 314 449 b 481 378 415 407 438 399 b 614 200 539 353 614 315 b 300 -22 614 71 519 -22 m 217 964 l 433 964 l 581 778 l 399 778 b 325 888 379 803 347 844 b 250 778 301 844 271 803 l 69 778 "},"ș":{"ha":646,"x_min":0,"x_max":0,"o":"m 300 -22 b 46 42 203 -22 108 -4 l 46 199 b 286 124 125 151 206 124 b 401 190 347 124 401 142 b 315 269 401 231 364 250 b 194 317 265 288 222 304 b 46 510 110 354 46 415 b 331 718 46 622 128 718 b 574 653 419 718 506 699 l 574 497 b 361 574 515 544 436 574 b 258 515 301 574 258 553 b 382 421 258 476 314 449 b 481 378 415 407 438 399 b 614 200 539 353 614 315 b 300 -22 614 71 519 -22 m 213 -56 l 451 -56 l 321 -236 l 139 -236 "},"ṣ":{"ha":646,"x_min":0,"x_max":0,"o":"m 300 -22 b 46 42 203 -22 108 -4 l 46 199 b 286 124 125 151 206 124 b 401 190 347 124 401 142 b 315 269 401 231 364 250 b 194 317 265 288 222 304 b 46 510 110 354 46 415 b 331 718 46 622 128 718 b 574 653 419 718 506 699 l 574 497 b 361 574 515 544 436 574 b 258 515 301 574 258 553 b 382 421 258 479 314 449 b 481 378 415 407 438 399 b 614 200 539 353 614 315 b 300 -22 614 71 519 -22 m 215 -149 b 325 -64 215 -97 239 -64 b 436 -149 408 -64 436 -94 b 325 -235 436 -207 404 -235 b 215 -149 251 -235 215 -211 "},"ß":{"ha":914,"x_min":0,"x_max":0,"o":"m 586 -22 b 383 15 524 -22 454 -11 l 383 182 b 517 158 428 168 476 158 b 640 264 592 158 640 189 b 447 392 640 363 550 392 l 401 392 l 401 483 l 572 750 l 289 750 l 289 0 l 76 0 l 76 944 l 800 944 l 800 764 l 617 492 b 879 244 771 492 879 422 b 586 -22 879 85 797 -22 "},"ſ":{"ha":447,"x_min":0,"x_max":0,"o":"m 293 967 b 464 935 364 967 432 953 l 464 782 b 342 815 438 797 383 815 b 239 676 239 815 239 719 l 239 0 l 31 0 l 31 676 b 293 967 31 782 31 967 "},"t":{"ha":549,"x_min":0,"x_max":0,"o":"m 371 -22 b 118 307 118 -22 118 147 l 118 525 l 11 525 l 11 618 b 211 858 93 679 151 749 l 328 858 l 328 694 l 517 694 l 517 525 l 326 525 l 326 314 b 425 129 326 224 326 129 b 519 154 454 129 492 138 l 519 4 b 371 -22 496 -8 442 -22 "},"ŧ":{"ha":549,"x_min":0,"x_max":0,"o":"m 371 -22 b 118 276 135 -22 119 126 l 25 276 l 25 404 l 118 404 l 118 525 l 11 525 l 11 618 b 211 858 93 679 151 749 l 328 858 l 328 694 l 517 694 l 517 525 l 326 525 l 326 404 l 506 404 l 506 276 l 326 276 b 425 129 328 199 340 129 b 519 154 454 129 492 138 l 519 4 b 371 -22 496 -8 442 -22 "},"ť":{"ha":549,"x_min":0,"x_max":0,"o":"m 371 -22 b 118 307 118 -22 118 147 l 118 525 l 11 525 l 11 618 b 211 858 93 679 151 749 l 328 858 l 328 694 l 517 694 l 517 525 l 326 525 l 326 314 b 425 129 326 224 326 129 b 519 154 454 129 492 138 l 519 4 b 371 -22 496 -8 442 -22 m 554 615 b 618 944 568 711 589 822 l 796 944 b 671 615 769 864 729 756 l 554 615 "},"ţ":{"ha":549,"x_min":0,"x_max":0,"o":"m 249 -4 b 118 307 118 44 118 179 l 118 525 l 11 525 l 11 618 b 211 858 93 679 151 749 l 328 858 l 328 694 l 517 694 l 517 525 l 326 525 l 326 314 b 425 129 326 224 326 129 b 519 154 454 129 492 138 l 519 4 b 396 -22 499 -7 454 -19 l 363 -181 l 176 -181 "},"ț":{"ha":549,"x_min":0,"x_max":0,"o":"m 371 -22 b 118 307 118 -22 118 147 l 118 525 l 11 525 l 11 618 b 211 858 93 679 151 749 l 328 858 l 328 694 l 517 694 l 517 525 l 326 525 l 326 314 b 425 129 326 224 326 129 b 519 154 454 129 492 138 l 519 4 b 371 -22 496 -8 442 -22 m 213 -56 l 451 -56 l 321 -236 l 139 -236 "},"ṭ":{"ha":549,"x_min":0,"x_max":0,"o":"m 371 -22 b 118 307 118 -22 118 147 l 118 525 l 11 525 l 11 618 b 211 858 93 679 151 749 l 328 858 l 328 694 l 517 694 l 517 525 l 326 525 l 326 314 b 425 129 326 224 326 129 b 519 154 454 129 492 138 l 519 4 b 371 -22 496 -8 442 -22 m 215 -149 b 325 -64 215 -97 239 -64 b 436 -149 408 -64 436 -94 b 325 -235 436 -207 403 -235 b 215 -149 251 -235 215 -211 "},"u":{"ha":800,"x_min":0,"x_max":0,"o":"m 282 -22 b 69 231 119 -22 69 104 l 69 694 l 279 694 l 279 288 b 379 135 279 228 290 135 b 517 275 454 135 501 199 l 517 694 l 725 694 l 725 0 l 522 0 l 522 118 l 517 118 b 282 -22 475 36 400 -22 "},"ú":{"ha":800,"x_min":0,"x_max":0,"o":"m 282 -22 b 69 231 119 -22 69 104 l 69 694 l 279 694 l 279 288 b 379 135 279 228 290 135 b 517 275 454 135 501 199 l 517 694 l 725 694 l 725 0 l 522 0 l 522 118 l 517 118 b 282 -22 475 36 400 -22 m 378 964 l 619 964 l 478 778 l 296 778 "},"ŭ":{"ha":800,"x_min":0,"x_max":0,"o":"m 282 -22 b 69 231 119 -22 69 104 l 69 694 l 279 694 l 279 288 b 379 135 279 228 290 135 b 517 275 454 135 501 199 l 517 694 l 725 694 l 725 0 l 522 0 l 522 118 l 517 118 b 282 -22 475 36 400 -22 m 314 958 b 401 888 322 911 356 888 b 490 958 447 888 482 911 l 636 958 b 407 786 624 851 519 786 l 397 786 b 168 958 274 786 179 851 "},"û":{"ha":800,"x_min":0,"x_max":0,"o":"m 282 -22 b 69 231 119 -22 69 104 l 69 694 l 279 694 l 279 288 b 379 135 279 228 290 135 b 517 275 454 135 501 199 l 517 694 l 725 694 l 725 0 l 522 0 l 522 118 l 517 118 b 282 -22 475 36 400 -22 m 288 964 l 504 964 l 651 778 l 469 778 b 396 888 450 803 418 844 b 321 778 372 844 342 803 l 140 778 "},"ü":{"ha":800,"x_min":0,"x_max":0,"o":"m 282 -22 b 69 231 119 -22 69 104 l 69 694 l 279 694 l 279 288 b 379 135 279 228 290 135 b 517 275 454 135 501 199 l 517 694 l 725 694 l 725 0 l 522 0 l 522 118 l 517 118 b 282 -22 475 36 400 -22 m 181 881 b 274 960 181 928 201 960 b 368 881 343 960 368 932 b 274 800 368 825 338 800 b 181 881 214 800 181 822 m 421 881 b 515 960 421 928 443 960 b 608 881 583 960 608 932 b 515 800 608 825 579 800 b 421 881 456 800 421 822 "},"ù":{"ha":800,"x_min":0,"x_max":0,"o":"m 282 -22 b 69 231 119 -22 69 104 l 69 694 l 279 694 l 279 288 b 379 135 279 228 290 135 b 517 275 454 135 501 199 l 517 694 l 725 694 l 725 0 l 522 0 l 522 118 l 517 118 b 282 -22 475 36 400 -22 m 418 964 l 500 778 l 318 778 l 176 964 "},"ű":{"ha":800,"x_min":0,"x_max":0,"o":"m 282 -22 b 69 231 119 -22 69 104 l 69 694 l 279 694 l 279 288 b 379 135 279 228 290 135 b 517 275 454 135 501 199 l 517 694 l 725 694 l 725 0 l 522 0 l 522 118 l 517 118 b 282 -22 475 36 400 -22 m 244 964 l 463 964 l 318 778 l 163 778 m 513 964 l 729 964 l 586 778 l 431 778 "},"ū":{"ha":800,"x_min":0,"x_max":0,"o":"m 282 -22 b 69 231 119 -22 69 104 l 69 694 l 279 694 l 279 288 b 379 135 279 228 290 135 b 517 275 454 135 501 199 l 517 694 l 725 694 l 725 0 l 522 0 l 522 118 l 517 118 b 282 -22 475 36 400 -22 m 188 936 l 603 936 l 603 810 l 188 810 "},"ų":{"ha":800,"x_min":0,"x_max":0,"o":"m 282 -22 b 69 231 119 -22 69 104 l 69 694 l 279 694 l 279 288 b 379 135 279 228 290 135 b 517 275 454 135 501 199 l 517 694 l 725 694 l 725 0 l 622 0 b 518 -115 582 -19 518 -58 b 576 -167 518 -146 538 -167 b 663 -139 614 -167 651 -149 l 663 -229 b 549 -260 629 -249 589 -260 b 413 -146 465 -260 413 -214 b 522 0 413 -75 474 -26 l 522 118 l 517 118 b 282 -22 475 36 400 -22 "},"ů":{"ha":800,"x_min":0,"x_max":0,"o":"m 282 -22 b 69 231 119 -22 69 104 l 69 694 l 279 694 l 279 288 b 379 135 279 228 290 135 b 517 275 454 135 501 199 l 517 694 l 725 694 l 725 0 l 522 0 l 522 118 l 517 118 b 282 -22 475 36 400 -22 m 274 871 b 396 986 274 940 325 988 b 518 871 457 985 518 949 b 396 756 518 801 467 756 b 274 871 333 756 274 792 m 350 872 b 396 825 350 844 365 825 b 440 871 424 825 440 840 b 396 918 440 897 426 918 b 350 872 368 918 350 901 "},"ũ":{"ha":800,"x_min":0,"x_max":0,"o":"m 282 -22 b 69 231 119 -22 69 104 l 69 694 l 279 694 l 279 288 b 379 135 279 228 290 135 b 517 275 454 135 501 199 l 517 694 l 725 694 l 725 0 l 522 0 l 522 118 l 517 118 b 282 -22 475 36 400 -22 m 200 908 b 314 950 218 925 261 950 b 476 914 376 950 415 914 b 597 961 532 914 571 940 l 597 846 b 469 797 576 829 526 797 b 304 832 411 797 368 832 b 200 797 268 832 232 821 "},"v":{"ha":749,"x_min":0,"x_max":0,"o":"m 8 694 l 217 694 b 314 406 251 600 279 515 b 369 171 338 325 354 251 l 379 171 b 435 403 390 233 414 335 b 529 694 463 492 499 608 l 739 694 l 504 0 l 244 0 "},"w":{"ha":1082,"x_min":0,"x_max":0,"o":"m 15 694 l 232 694 b 335 199 271 529 304 371 l 343 199 b 442 694 371 365 407 529 l 640 694 b 739 199 672 538 706 393 l 749 199 b 850 694 778 371 811 529 l 1067 694 l 906 0 l 636 0 b 546 464 603 174 564 350 l 538 464 b 446 0 517 343 479 169 l 176 0 "},"":{"ha":1082,"x_min":0,"x_max":0,"o":"m 176 0 l 446 0 b 538 464 479 169 517 343 l 546 464 b 636 0 564 350 603 174 l 906 0 l 1067 694 l 850 694 b 749 199 811 529 778 371 l 739 199 b 640 694 706 393 672 538 l 442 694 b 343 199 407 529 371 365 l 335 199 b 232 694 304 371 271 529 l 15 694 "},"ẃ":{"ha":1082,"x_min":0,"x_max":0,"o":"m 15 694 l 232 694 b 335 199 271 529 304 371 l 343 199 b 442 694 371 365 407 529 l 640 694 b 739 199 672 538 706 393 l 749 199 b 850 694 778 371 811 529 l 1067 694 l 906 0 l 636 0 b 546 464 603 174 564 350 l 538 464 b 446 0 517 343 479 169 l 176 0 m 524 964 l 765 964 l 624 778 l 442 778 "},"ŵ":{"ha":1082,"x_min":0,"x_max":0,"o":"m 15 694 l 232 694 b 335 199 271 529 304 371 l 343 199 b 442 694 371 365 407 529 l 640 694 b 739 199 672 538 706 393 l 749 199 b 850 694 778 371 811 529 l 1067 694 l 906 0 l 636 0 b 546 464 603 174 564 350 l 538 464 b 446 0 517 343 479 169 l 176 0 m 433 964 l 650 964 l 797 778 l 615 778 b 542 888 596 803 564 844 b 467 778 518 844 488 803 l 286 778 "},"ẅ":{"ha":1082,"x_min":0,"x_max":0,"o":"m 15 694 l 232 694 b 335 199 271 529 304 371 l 343 199 b 442 694 371 365 407 529 l 640 694 b 739 199 672 538 706 393 l 749 199 b 850 694 778 371 811 529 l 1067 694 l 906 0 l 636 0 b 546 464 603 174 564 350 l 538 464 b 446 0 517 343 479 169 l 176 0 m 328 881 b 421 960 328 928 349 960 b 515 881 490 960 515 932 b 421 800 515 825 485 800 b 328 881 361 800 328 822 m 568 881 b 663 960 568 928 590 960 b 756 881 731 960 756 932 b 663 800 756 825 726 800 b 568 881 603 800 568 822 "},"ẁ":{"ha":1082,"x_min":0,"x_max":0,"o":"m 15 694 l 232 694 b 335 199 271 529 304 371 l 343 199 b 442 694 371 365 407 529 l 640 694 b 739 199 672 538 706 393 l 749 199 b 850 694 778 371 811 529 l 1067 694 l 906 0 l 636 0 b 546 464 603 174 564 350 l 538 464 b 446 0 517 343 479 169 l 176 0 m 565 964 l 647 778 l 465 778 l 324 964 "},"x":{"ha":668,"x_min":0,"x_max":0,"o":"m 201 340 l 7 694 l 217 694 b 332 474 254 625 261 601 b 451 694 371 547 410 621 l 658 694 l 468 346 l 664 0 l 456 0 b 336 238 426 53 388 125 b 215 0 290 143 249 61 l 7 0 "},"y":{"ha":747,"x_min":0,"x_max":0,"o":"m 183 -260 b 3 -219 121 -260 49 -244 l 3 -65 b 154 -106 36 -85 97 -106 b 246 -31 210 -106 246 -85 b 219 81 246 -1 233 39 l 8 694 l 217 694 b 307 428 257 579 292 475 b 371 161 332 354 343 299 l 381 161 b 443 428 397 242 417 336 b 529 694 474 525 499 603 l 739 694 l 543 118 l 510 21 b 183 -260 444 -161 350 -260 "},"":{"ha":747,"x_min":0,"x_max":0,"o":"m 183 -260 b 510 21 350 -260 444 -161 l 543 118 l 739 694 l 529 694 b 443 428 499 603 474 525 b 381 161 417 336 397 242 l 371 161 b 307 428 343 299 332 354 b 217 694 292 475 257 579 l 8 694 l 219 81 b 246 -31 233 39 246 -1 b 154 -106 246 -85 210 -106 b 3 -65 97 -106 36 -85 l 3 -219 b 183 -260 49 -244 121 -260 "},"ý":{"ha":747,"x_min":0,"x_max":0,"o":"m 183 -260 b 3 -219 121 -260 49 -244 l 3 -65 b 154 -106 36 -85 97 -106 b 246 -31 210 -106 246 -85 b 219 81 246 -1 233 39 l 8 694 l 217 694 b 307 428 257 579 292 475 b 371 161 332 354 343 299 l 381 161 b 443 428 397 242 417 336 b 529 694 474 525 499 603 l 739 694 l 543 118 l 510 21 b 183 -260 444 -161 350 -260 m 347 964 l 589 964 l 447 778 l 265 778 "},"ŷ":{"ha":747,"x_min":0,"x_max":0,"o":"m 183 -260 b 3 -219 121 -260 49 -244 l 3 -65 b 154 -106 36 -85 97 -106 b 246 -31 210 -106 246 -85 b 219 81 246 -1 233 39 l 8 694 l 217 694 b 307 428 257 579 292 475 b 371 161 332 354 343 299 l 381 161 b 443 428 397 242 417 336 b 529 694 474 525 499 603 l 739 694 l 543 118 l 510 21 b 183 -260 444 -161 350 -260 m 257 964 l 474 964 l 621 778 l 439 778 b 365 888 419 803 388 844 b 290 778 342 844 311 803 l 110 778 "},"ÿ":{"ha":747,"x_min":0,"x_max":0,"o":"m 183 -260 b 3 -219 121 -260 49 -244 l 3 -65 b 154 -106 36 -85 97 -106 b 246 -31 210 -106 246 -85 b 219 81 246 -1 233 39 l 8 694 l 217 694 b 307 428 257 579 292 475 b 371 161 332 354 343 299 l 381 161 b 443 428 397 242 417 336 b 529 694 474 525 499 603 l 739 694 l 543 118 l 510 21 b 183 -260 444 -161 350 -260 m 151 881 b 244 960 151 928 172 960 b 339 881 314 960 339 932 b 244 800 339 825 308 800 b 151 881 185 800 151 822 m 392 881 b 486 960 392 928 414 960 b 579 881 554 960 579 932 b 486 800 579 825 550 800 b 392 881 426 800 392 822 "},"ỳ":{"ha":747,"x_min":0,"x_max":0,"o":"m 183 -260 b 3 -219 121 -260 49 -244 l 3 -65 b 154 -106 36 -85 97 -106 b 246 -31 210 -106 246 -85 b 219 81 246 -1 233 39 l 8 694 l 217 694 b 307 428 257 579 292 475 b 371 161 332 354 343 299 l 381 161 b 443 428 397 242 417 336 b 529 694 474 525 499 603 l 739 694 l 543 118 l 510 21 b 183 -260 444 -161 350 -260 m 388 964 l 469 778 l 288 778 l 146 964 "},"ỹ":{"ha":747,"x_min":0,"x_max":0,"o":"m 183 -260 b 3 -219 121 -260 49 -244 l 3 -65 b 154 -106 36 -85 97 -106 b 246 -31 210 -106 246 -85 b 219 81 246 -1 233 39 l 8 694 l 217 694 b 307 428 257 579 292 475 b 371 161 332 354 343 299 l 381 161 b 443 428 397 242 417 336 b 529 694 474 525 499 603 l 739 694 l 543 118 l 510 21 b 183 -260 444 -161 350 -260 m 169 908 b 283 950 188 925 231 950 b 446 914 346 950 385 914 b 567 961 501 914 540 940 l 567 846 b 439 797 546 829 496 797 b 274 832 381 797 338 832 b 169 797 238 832 201 821 "},"z":{"ha":689,"x_min":0,"x_max":0,"o":"m 46 172 l 389 529 l 47 529 l 47 694 l 635 694 l 635 533 l 276 161 l 651 161 l 651 0 l 46 0 "},"ź":{"ha":689,"x_min":0,"x_max":0,"o":"m 46 172 l 389 529 l 47 529 l 47 694 l 635 694 l 635 533 l 276 161 l 651 161 l 651 0 l 46 0 m 328 964 l 569 964 l 428 778 l 246 778 "},"ž":{"ha":689,"x_min":0,"x_max":0,"o":"m 46 172 l 389 529 l 47 529 l 47 694 l 635 694 l 635 533 l 276 161 l 651 161 l 651 0 l 46 0 m 272 964 b 346 846 292 939 322 893 b 418 964 368 892 399 939 l 601 964 l 454 778 l 238 778 l 90 964 "},"ż":{"ha":689,"x_min":0,"x_max":0,"o":"m 46 172 l 389 529 l 47 529 l 47 694 l 635 694 l 635 533 l 276 161 l 651 161 l 651 0 l 46 0 m 235 865 b 344 950 235 917 258 950 b 456 865 428 950 456 919 b 344 779 456 807 422 779 b 235 865 271 779 235 803 "},"ẓ":{"ha":689,"x_min":0,"x_max":0,"o":"m 46 172 l 389 529 l 47 529 l 47 694 l 635 694 l 635 533 l 276 161 l 651 161 l 651 0 l 46 0 m 247 -149 b 358 -64 247 -97 272 -64 b 469 -149 442 -64 469 -94 b 358 -235 469 -207 436 -235 b 247 -149 285 -235 247 -211 "},"ﬁ":{"ha":903,"x_min":0,"x_max":0,"o":"m 389 967 b 560 935 460 967 526 953 l 560 782 b 438 815 533 797 479 815 b 335 676 335 815 335 724 l 335 629 l 522 629 l 522 460 l 335 460 l 335 0 l 126 0 l 126 460 l 32 460 l 32 629 l 126 629 l 126 676 b 389 967 126 782 126 967 m 613 838 b 724 922 613 889 638 922 b 833 838 807 922 833 892 b 724 751 833 779 801 751 b 613 838 650 751 613 775 m 618 697 b 722 686 650 692 683 686 b 826 697 757 686 790 690 l 826 0 l 618 0 "},"ﬂ":{"ha":903,"x_min":0,"x_max":0,"o":"m 389 967 b 560 935 460 967 526 953 l 560 782 b 438 815 533 797 479 815 b 335 676 335 815 335 724 l 335 629 l 522 629 l 522 460 l 335 460 l 335 0 l 126 0 l 126 460 l 32 460 l 32 629 l 126 629 l 126 676 b 389 967 126 782 126 967 m 618 944 l 826 944 l 826 0 l 618 0 "},"ª":{"ha":436,"x_min":0,"x_max":0,"o":"m 140 522 b 28 621 78 522 28 554 b 138 738 28 690 85 722 b 254 806 182 750 254 765 b 193 847 254 829 231 847 b 61 794 147 847 97 824 l 61 894 b 224 939 100 921 163 939 b 374 796 319 939 374 894 b 400 535 374 711 374 619 l 286 535 b 271 601 281 549 275 567 l 267 601 b 140 522 239 546 193 522 m 143 639 b 182 604 143 613 161 604 b 258 704 224 604 258 639 l 258 722 b 181 683 240 700 203 693 b 143 639 153 672 143 658 "},"º":{"ha":481,"x_min":0,"x_max":0,"o":"m 240 522 b 51 731 126 522 51 581 b 240 939 51 856 104 939 b 429 731 354 939 429 881 b 240 522 429 606 376 522 m 157 731 b 240 610 157 657 181 610 b 324 731 290 610 324 644 b 240 850 324 804 300 850 b 157 731 189 850 157 817 "},"Δ":{"ha":913,"x_min":0,"x_max":0,"o":"m 308 917 l 604 917 l 907 0 l 4 0 m 635 178 b 525 526 588 328 558 422 b 461 735 493 622 483 657 l 451 735 b 385 519 426 649 411 604 b 276 178 340 382 338 367 "},"Ω":{"ha":1104,"x_min":0,"x_max":0,"o":"m 94 178 l 260 178 b 114 501 164 240 114 346 b 553 939 114 799 290 939 b 990 501 814 939 990 799 b 844 178 990 346 940 240 l 1010 178 l 1010 0 l 644 0 l 644 176 b 765 469 725 215 765 324 b 553 765 765 642 706 765 b 339 469 399 765 339 642 b 460 176 339 324 379 215 l 460 0 l 94 0 "},"π":{"ha":929,"x_min":0,"x_max":0,"o":"m 789 -22 b 549 278 549 -22 549 124 l 549 525 l 351 525 l 351 0 l 142 0 l 142 525 l 11 525 l 11 694 l 889 694 l 889 525 l 757 525 l 757 283 b 829 129 757 199 763 129 b 903 143 851 129 883 135 l 903 -3 b 789 -22 879 -14 832 -22 "},"¹":{"ha":354,"x_min":0,"x_max":0,"o":"m 136 768 b 28 707 108 750 72 729 l 28 835 b 165 917 57 847 101 874 l 286 917 l 286 371 l 136 371 l 136 768 "},"²":{"ha":511,"x_min":0,"x_max":0,"o":"m 44 501 b 290 732 197 569 290 644 b 196 810 290 782 258 810 b 46 756 153 810 107 793 l 46 872 b 251 929 94 906 165 929 b 457 769 363 929 457 888 b 239 501 457 669 394 572 l 475 501 l 475 371 l 44 371 l 44 501 "},"³":{"ha":514,"x_min":0,"x_max":0,"o":"m 239 349 b 39 389 174 349 101 361 l 39 501 b 199 468 93 482 147 468 b 311 540 267 468 311 492 b 178 608 311 608 221 608 l 132 608 l 132 668 l 278 794 l 47 794 l 47 917 l 453 917 l 453 803 l 301 671 b 478 528 406 671 478 632 b 239 349 478 424 407 349 "},"⁄":{"ha":254,"x_min":0,"x_max":0,"o":"m 333 917 l 424 868 l -76 7 l -167 56 "},"½":{"ha":1081,"x_min":0,"x_max":0,"o":"m 136 768 b 28 707 108 750 72 729 l 28 835 b 165 917 57 847 101 874 l 286 917 l 286 371 l 136 371 l 136 768 m 668 917 l 758 868 l 257 7 l 167 56 m 614 131 b 860 361 767 199 860 274 b 765 439 860 411 829 439 b 615 385 722 439 676 422 l 615 501 b 821 558 664 535 735 558 b 1026 399 932 558 1026 517 b 808 131 1026 299 964 201 l 1044 131 l 1044 0 l 614 0 "},"¼":{"ha":1035,"x_min":0,"x_max":0,"o":"m 136 768 b 28 707 108 750 72 729 l 28 835 b 165 917 57 847 101 874 l 286 917 l 286 371 l 136 371 l 136 768 m 668 917 l 758 868 l 257 7 l 167 56 m 550 243 l 744 546 l 944 546 l 944 213 l 1000 213 l 1000 106 l 944 106 l 944 0 l 792 0 l 792 106 l 550 106 m 792 213 l 792 400 l 676 213 "},"¾":{"ha":1188,"x_min":0,"x_max":0,"o":"m 239 349 b 39 389 174 349 101 361 l 39 501 b 199 468 93 482 147 468 b 311 540 267 468 311 492 b 178 608 311 608 221 608 l 132 608 l 132 668 l 278 794 l 47 794 l 47 917 l 453 917 l 453 803 l 301 671 b 478 528 406 671 478 632 b 239 349 478 424 407 349 m 821 917 l 911 868 l 410 7 l 319 56 m 704 243 l 897 546 l 1097 546 l 1097 213 l 1153 213 l 1153 106 l 1097 106 l 1097 0 l 944 0 l 944 106 l 704 106 m 944 213 l 944 400 l 829 213 "},"⅛":{"ha":1079,"x_min":0,"x_max":0,"o":"m 136 768 b 28 707 108 750 72 729 l 28 835 b 165 917 57 847 101 874 l 286 917 l 286 371 l 136 371 l 136 768 m 668 917 l 758 868 l 257 7 l 167 56 m 594 135 b 714 265 594 204 636 254 l 714 269 b 606 408 656 290 606 331 b 817 558 606 496 671 558 b 1028 407 939 558 1028 514 b 921 269 1028 342 993 290 l 921 265 b 1042 136 982 256 1042 219 b 819 -22 1042 44 976 -22 b 594 135 685 -22 594 29 m 751 160 b 818 86 751 114 778 86 b 885 156 853 86 885 110 b 817 229 885 201 858 229 b 751 160 779 229 751 208 m 758 383 b 818 315 758 342 779 315 b 878 381 851 315 878 335 b 818 456 878 424 860 456 b 758 383 782 456 758 432 "},"⅜":{"ha":1232,"x_min":0,"x_max":0,"o":"m 239 349 b 39 389 174 349 101 361 l 39 501 b 199 468 93 482 147 468 b 311 540 267 468 311 492 b 178 608 311 608 221 608 l 132 608 l 132 668 l 278 794 l 47 794 l 47 917 l 453 917 l 453 803 l 301 671 b 478 528 406 671 478 632 b 239 349 478 424 407 349 m 821 917 l 911 868 l 410 7 l 319 56 m 747 135 b 867 265 747 204 789 254 l 867 269 b 758 408 810 290 758 331 b 969 558 758 496 824 558 b 1182 407 1092 558 1182 514 b 1074 269 1182 342 1146 290 l 1074 265 b 1194 136 1135 256 1194 219 b 972 -22 1194 44 1129 -22 b 747 135 838 -22 747 29 m 904 160 b 971 86 904 114 931 86 b 1038 156 1006 86 1038 110 b 969 229 1038 201 1011 229 b 904 160 932 229 904 208 m 911 383 b 971 315 911 342 933 315 b 1032 381 1006 315 1032 335 b 971 456 1032 424 1013 456 b 911 383 935 456 911 432 "},"⅝":{"ha":1221,"x_min":0,"x_max":0,"o":"m 233 349 b 36 388 169 349 101 360 l 36 503 b 199 469 99 482 154 469 b 300 538 254 469 300 489 b 156 608 300 596 229 608 l 71 608 l 71 917 l 433 917 l 433 794 l 213 794 l 213 692 l 243 692 b 467 522 357 692 467 657 b 233 349 467 418 400 349 m 810 917 l 900 868 l 399 7 l 308 56 m 736 135 b 856 265 736 204 778 254 l 856 269 b 747 408 799 290 747 331 b 958 558 747 496 813 558 b 1171 407 1082 558 1171 514 b 1063 269 1171 342 1135 290 l 1063 265 b 1183 136 1125 256 1183 219 b 961 -22 1183 44 1118 -22 b 736 135 826 -22 736 29 m 893 160 b 960 86 893 114 919 86 b 1026 156 994 86 1026 110 b 960 229 1026 201 1000 229 b 893 160 921 229 893 208 m 900 383 b 960 315 900 342 922 315 b 1021 381 994 315 1021 335 b 960 456 1021 424 1001 456 b 900 383 924 456 900 432 "},"⅞":{"ha":1113,"x_min":0,"x_max":0,"o":"m 265 793 l 21 793 l 21 917 l 428 917 l 428 801 l 236 371 l 89 371 m 701 917 l 792 868 l 292 7 l 201 56 m 628 135 b 749 265 628 204 671 254 l 749 269 b 640 408 690 290 640 331 b 851 558 640 496 706 558 b 1063 407 974 558 1063 514 b 956 269 1063 342 1028 290 l 956 265 b 1076 136 1017 256 1076 219 b 854 -22 1076 44 1010 -22 b 628 135 719 -22 628 29 m 786 160 b 853 86 786 114 813 86 b 919 156 888 86 919 110 b 851 229 919 201 893 229 b 786 160 814 229 786 208 m 792 383 b 853 315 792 342 814 315 b 913 381 886 315 913 335 b 853 456 913 424 893 456 b 792 383 817 456 792 432 "}," ":{"ha":264,"x_min":0,"x_max":0,"o":""},".":{"ha":306,"x_min":0,"x_max":0,"o":"m 151 -24 b 44 79 86 -24 44 17 b 151 183 44 142 86 183 b 260 79 217 183 260 142 b 151 -24 260 17 217 -24 "},",":{"ha":321,"x_min":0,"x_max":0,"o":"m 19 -153 b 83 176 33 -57 56 54 l 271 176 b 147 -153 244 96 206 -12 l 19 -153 "},":":{"ha":347,"x_min":0,"x_max":0,"o":"m 172 -24 b 65 79 107 -24 65 17 b 172 183 65 142 107 183 b 281 79 238 183 281 142 b 172 -24 281 17 238 -24 m 65 524 b 172 628 65 586 107 628 b 281 524 238 628 281 586 b 172 421 281 461 238 421 b 65 524 107 421 65 461 "},";":{"ha":363,"x_min":0,"x_max":0,"o":"m 32 -153 b 96 176 46 -57 68 54 l 283 176 b 160 -153 257 96 218 -12 l 32 -153 m 86 524 b 193 628 86 586 128 628 b 301 524 258 628 301 586 b 193 421 301 461 258 421 b 86 524 128 421 86 461 "},"…":{"ha":876,"x_min":0,"x_max":0,"o":"m 438 -24 b 331 79 372 -24 331 17 b 438 183 331 142 372 183 b 546 79 503 183 546 142 b 438 -24 546 17 503 -24 m 44 79 b 151 183 44 142 86 183 b 260 79 217 183 260 142 b 151 -24 260 17 217 -24 b 44 79 86 -24 44 17 m 617 79 b 724 183 617 142 658 183 b 832 79 789 183 832 142 b 724 -24 832 17 789 -24 b 617 79 658 -24 617 17 "},"!":{"ha":375,"x_min":0,"x_max":0,"o":"m 113 261 b 74 917 88 482 76 731 l 303 917 b 264 261 300 763 293 525 l 113 261 m 79 79 b 186 183 79 142 121 183 b 294 79 251 183 294 142 b 186 -24 294 17 251 -24 b 79 79 121 -24 79 17 "},"¡":{"ha":376,"x_min":0,"x_max":0,"o":"m 74 0 b 119 656 76 168 92 410 l 258 656 b 303 0 285 415 301 172 l 74 0 m 81 836 b 188 939 81 899 122 939 b 296 836 253 939 296 899 b 188 732 296 774 253 732 b 81 836 122 732 81 774 "},"?":{"ha":644,"x_min":0,"x_max":0,"o":"m 201 261 b 407 674 201 469 407 540 b 275 774 407 740 361 774 b 36 671 197 774 119 746 l 36 843 b 335 939 122 907 224 939 b 611 717 494 939 611 876 b 383 261 611 497 383 442 l 201 261 m 183 79 b 290 183 183 142 225 183 b 399 79 356 183 399 142 b 290 -24 399 17 356 -24 b 183 79 225 -24 183 17 "},"¿":{"ha":643,"x_min":0,"x_max":0,"o":"m 442 654 b 236 242 442 447 236 375 b 369 142 236 175 283 142 b 608 244 447 142 524 169 l 608 72 b 310 -24 522 8 421 -24 b 33 199 150 -24 33 39 b 261 654 33 418 261 475 l 442 654 m 246 836 b 353 939 246 899 289 939 b 460 836 418 939 460 899 b 353 732 460 774 418 732 b 246 836 289 732 246 774 "},"·":{"ha":326,"x_min":0,"x_max":0,"o":"m 161 268 b 54 371 96 268 54 308 b 161 475 54 433 96 475 b 269 371 226 475 269 433 b 161 268 269 308 226 268 "},"•":{"ha":489,"x_min":0,"x_max":0,"o":"m 243 235 b 85 388 146 235 85 294 b 243 540 85 479 146 540 b 403 388 339 540 403 479 b 243 235 403 294 339 235 "},"*":{"ha":586,"x_min":0,"x_max":0,"o":"m 46 633 b 219 714 88 656 144 682 b 46 793 147 744 85 771 l 100 888 b 257 778 142 863 192 826 b 239 967 249 854 240 922 l 347 967 b 331 779 346 921 340 858 b 486 888 396 826 446 864 l 540 793 b 368 714 501 771 439 744 b 540 633 443 682 499 656 l 486 539 b 331 650 447 563 393 604 b 347 460 340 568 346 506 l 239 460 b 258 650 240 506 249 572 b 100 539 194 604 140 563 l 46 633 "},"#":{"ha":997,"x_min":0,"x_max":0,"o":"m 478 678 l 619 678 l 671 915 l 854 915 l 803 678 l 960 678 l 960 519 l 769 519 l 736 365 l 908 365 l 908 207 l 701 207 l 657 0 l 472 0 l 517 207 l 376 207 l 332 0 l 149 0 l 193 207 l 38 207 l 38 365 l 228 365 l 261 519 l 89 519 l 89 678 l 294 678 l 346 915 l 529 915 m 551 365 l 585 519 l 444 519 l 411 365 "},"/":{"ha":503,"x_min":0,"x_max":0,"o":"m 269 939 l 467 939 l 233 -144 l 35 -144 "},"\\":{"ha":507,"x_min":0,"x_max":0,"o":"m 35 939 l 239 939 l 472 -144 l 269 -144 "},"-":{"ha":622,"x_min":0,"x_max":0,"o":"m 71 447 l 551 447 l 551 265 l 71 265 "},"­":{"ha":622,"x_min":0,"x_max":0,"o":"m 71 265 l 551 265 l 551 447 l 71 447 "},"–":{"ha":843,"x_min":0,"x_max":0,"o":"m 71 436 l 772 436 l 772 276 l 71 276 "},"—":{"ha":1246,"x_min":0,"x_max":0,"o":"m 71 429 l 1175 429 l 1175 283 l 71 283 "},"―":{"ha":1246,"x_min":0,"x_max":0,"o":"m 71 429 l 1175 429 l 1175 283 l 71 283 "},"_":{"ha":715,"x_min":0,"x_max":0,"o":"m 0 -69 l 715 -69 l 715 -200 l 0 -200 "},"(":{"ha":429,"x_min":0,"x_max":0,"o":"m 197 -236 b 197 958 19 106 -17 549 l 401 958 b 401 -236 239 617 208 174 l 197 -236 "},")":{"ha":429,"x_min":0,"x_max":0,"o":"m 28 -236 b 28 958 222 174 190 617 l 232 958 b 232 -236 447 549 410 106 l 28 -236 "},"{":{"ha":508,"x_min":0,"x_max":0,"o":"m 404 -236 b 124 143 219 -236 124 -143 b 35 276 124 238 101 276 l 35 446 b 124 565 89 446 124 476 b 404 958 124 801 203 958 l 476 958 l 476 794 l 419 794 b 296 565 342 794 296 739 b 199 365 296 461 271 388 l 199 357 b 296 157 265 335 296 286 b 419 -72 296 -12 325 -72 l 476 -72 l 476 -236 l 404 -236 "},"}":{"ha":508,"x_min":0,"x_max":0,"o":"m 31 -72 l 88 -72 b 213 157 183 -72 213 -12 b 310 357 213 286 243 335 l 310 365 b 213 565 238 388 213 461 b 88 794 213 739 167 794 l 31 794 l 31 958 l 104 958 b 385 565 306 958 385 801 b 472 446 385 476 419 446 l 472 276 b 385 143 407 276 385 238 b 104 -236 385 -143 288 -236 l 31 -236 "},"[":{"ha":524,"x_min":0,"x_max":0,"o":"m 92 958 l 485 958 l 485 778 l 301 778 l 301 -56 l 493 -56 l 493 -236 l 92 -236 "},"]":{"ha":524,"x_min":0,"x_max":0,"o":"m 29 -56 l 222 -56 l 222 778 l 39 778 l 39 958 l 431 958 l 431 -236 l 29 -236 "},"‚":{"ha":321,"x_min":0,"x_max":0,"o":"m 19 -153 b 83 176 33 -57 56 54 l 271 176 b 147 -153 244 96 206 -12 l 19 -153 "},"„":{"ha":563,"x_min":0,"x_max":0,"o":"m 261 -153 b 325 176 275 -57 297 54 l 513 176 b 389 -153 486 96 447 -12 l 261 -153 m 19 -153 b 83 176 33 -57 56 54 l 271 176 b 147 -153 244 96 206 -12 l 19 -153 "},"“":{"ha":561,"x_min":0,"x_max":0,"o":"m 289 939 b 225 610 275 843 253 732 l 38 610 b 161 939 64 690 103 799 l 289 939 m 279 610 b 403 939 306 690 344 799 l 531 939 b 467 610 517 843 494 732 l 279 610 "},"”":{"ha":563,"x_min":0,"x_max":0,"o":"m 261 610 b 325 939 275 706 297 817 l 513 939 b 389 610 486 858 447 750 l 261 610 m 19 610 b 83 939 33 706 56 817 l 271 939 b 147 610 244 858 206 750 l 19 610 "},"‘":{"ha":319,"x_min":0,"x_max":0,"o":"m 289 939 b 225 610 275 843 253 732 l 38 610 b 161 939 64 690 103 799 l 289 939 "},"’":{"ha":321,"x_min":0,"x_max":0,"o":"m 19 610 b 83 939 33 706 56 817 l 271 939 b 147 610 244 858 206 750 l 19 610 "},"«":{"ha":849,"x_min":0,"x_max":0,"o":"m 254 372 b 456 83 321 274 392 178 l 222 83 b 35 372 158 179 90 276 b 222 661 90 468 158 565 l 456 661 b 254 372 392 567 321 471 m 392 372 b 579 661 447 468 515 565 l 813 661 b 611 372 749 567 678 471 b 813 83 678 274 749 178 l 579 83 b 392 372 515 179 447 276 "},"»":{"ha":849,"x_min":0,"x_max":0,"o":"m 596 372 b 394 661 528 471 458 567 l 628 661 b 814 372 690 565 758 468 b 628 83 758 276 690 179 l 394 83 b 596 372 458 178 528 274 m 36 83 b 238 372 100 178 171 274 b 36 661 171 471 100 567 l 269 661 b 457 372 333 565 401 468 b 269 83 401 276 333 179 l 36 83 "},"‹":{"ha":492,"x_min":0,"x_max":0,"o":"m 254 372 b 456 83 321 274 392 178 l 222 83 b 35 372 158 179 90 276 b 222 661 90 468 158 565 l 456 661 b 254 372 392 567 321 471 "},"›":{"ha":492,"x_min":0,"x_max":0,"o":"m 238 372 b 36 661 171 471 100 567 l 269 661 b 457 372 333 565 401 468 b 269 83 401 276 333 179 l 36 83 b 238 372 100 178 171 274 "},"\"":{"ha":494,"x_min":0,"x_max":0,"o":"m 228 965 b 194 601 225 844 208 722 l 85 601 b 50 965 71 722 53 844 l 228 965 m 443 965 b 410 601 440 844 424 722 l 300 601 b 265 965 286 722 268 844 "},"'":{"ha":278,"x_min":0,"x_max":0,"o":"m 228 965 b 194 601 225 844 208 722 l 85 601 b 50 965 71 722 53 844 l 228 965 "},"ƒ":{"ha":836,"x_min":0,"x_max":0,"o":"m 160 -22 b 0 10 92 -22 28 -8 l 26 163 b 133 131 53 144 99 131 b 251 268 217 131 239 197 l 276 408 l 182 408 l 213 578 l 307 578 l 325 676 b 632 967 346 796 375 967 b 797 935 701 967 768 953 l 771 782 b 654 815 739 803 690 815 b 533 676 564 815 546 743 l 515 578 l 703 578 l 672 408 l 485 408 l 460 265 b 160 -22 439 143 404 -22 "},"@":{"ha":1235,"x_min":0,"x_max":0,"o":"m 678 -164 b 42 406 310 -164 42 31 b 632 967 42 804 344 967 b 1208 443 904 967 1208 821 b 925 94 1208 214 1096 94 b 721 258 797 94 739 163 l 717 258 b 528 133 671 171 606 133 b 315 417 400 133 315 235 b 539 701 315 592 397 701 b 717 608 613 701 675 671 l 721 608 l 721 693 l 872 693 l 872 386 b 944 228 872 306 878 228 b 1053 421 1003 228 1053 285 b 622 829 1053 649 903 829 b 201 410 311 829 201 608 b 686 -24 201 175 354 -24 b 1032 26 797 -24 939 -1 l 1003 -122 b 678 -164 908 -147 785 -164 m 486 417 b 593 268 486 343 510 268 b 706 417 660 268 706 319 b 594 567 706 506 667 567 b 486 417 535 567 486 522 "},"&":{"ha":954,"x_min":0,"x_max":0,"o":"m 350 -22 b 39 242 172 -22 39 88 b 232 493 39 360 119 450 b 131 711 164 561 131 638 b 421 939 131 831 221 939 b 714 719 592 939 714 861 b 496 444 714 589 619 501 l 639 307 b 713 446 668 349 692 394 l 899 446 b 758 199 864 351 817 272 l 964 0 l 704 0 l 624 79 b 350 -22 558 22 463 -22 m 251 238 b 375 122 251 163 308 122 b 517 183 425 122 475 143 l 340 351 b 251 238 282 329 251 292 m 338 714 b 397 565 338 674 354 622 b 513 721 465 596 513 650 b 429 804 513 783 474 804 b 338 714 383 804 338 783 "},"¶":{"ha":893,"x_min":0,"x_max":0,"o":"m 385 332 l 296 332 b 32 624 124 332 32 429 b 328 917 32 814 126 917 l 557 917 l 557 -153 l 385 -153 m 618 917 l 790 917 l 790 -153 l 618 -153 "},"§":{"ha":668,"x_min":0,"x_max":0,"o":"m 306 -161 b 65 -97 213 -161 126 -143 l 65 60 b 290 -15 142 13 214 -15 b 403 50 349 -15 403 3 b 296 136 403 88 358 107 b 169 200 257 153 204 179 b 60 368 103 240 60 294 b 214 539 60 444 107 513 l 214 542 b 71 735 124 590 71 653 b 349 939 71 839 150 939 b 581 875 433 939 517 921 l 581 719 b 379 796 525 765 450 796 b 274 736 321 796 274 774 b 390 640 274 697 325 668 l 458 611 b 613 421 557 572 613 524 b 482 239 613 338 574 271 l 482 233 b 604 60 554 199 604 151 b 306 -161 604 -67 515 -161 m 229 406 b 299 328 229 379 253 351 b 378 294 318 317 357 300 b 453 368 421 303 453 329 b 419 429 453 392 442 411 b 315 467 386 449 350 461 b 229 406 268 464 229 439 "},"©":{"ha":1007,"x_min":0,"x_max":0,"o":"m 504 -22 b 50 453 236 -22 50 167 b 504 939 50 740 232 939 b 957 454 772 939 957 743 b 504 -22 957 168 772 -22 m 179 460 b 504 96 179 244 310 96 b 829 461 696 96 829 242 b 504 818 829 675 696 818 b 179 460 313 818 179 675 m 299 463 b 506 676 299 592 361 676 b 661 642 558 676 611 667 l 661 540 b 531 574 615 560 572 574 b 425 463 469 574 425 543 b 536 350 425 394 457 350 b 664 383 572 350 615 360 l 664 283 b 514 249 629 263 578 249 b 299 463 386 249 299 308 "},"®":{"ha":781,"x_min":0,"x_max":0,"o":"m 390 228 b 56 579 192 228 56 368 b 390 939 56 792 190 939 b 725 579 589 939 725 794 b 390 228 725 368 589 228 m 151 585 b 390 315 151 425 249 315 b 629 586 532 315 629 424 b 390 850 629 743 532 850 b 151 585 249 850 151 743 m 268 750 l 417 750 b 529 650 483 750 529 722 b 457 556 529 601 508 565 l 538 424 l 447 424 l 368 553 l 349 553 l 349 424 l 268 424 m 393 601 b 451 642 429 601 451 610 b 404 682 451 665 439 682 l 349 682 l 349 601 "},"℗":{"ha":782,"x_min":0,"x_max":0,"o":"m 390 228 b 56 579 192 228 56 368 b 390 939 56 792 190 939 b 725 579 589 939 725 794 b 390 228 725 368 589 228 m 151 585 b 390 315 151 425 249 315 b 629 586 532 315 629 424 b 390 850 629 743 532 850 b 151 585 249 850 151 743 m 274 750 l 422 750 b 535 643 493 750 535 722 b 425 533 535 592 515 533 l 354 533 l 354 424 l 274 424 m 399 601 b 456 640 435 601 456 610 b 410 682 456 665 444 682 l 354 682 l 354 601 "},"™":{"ha":767,"x_min":0,"x_max":0,"o":"m 339 917 l 443 917 b 515 708 475 836 497 782 l 518 708 b 589 917 536 782 558 836 l 693 917 l 693 594 l 600 594 b 607 767 600 658 600 694 l 603 767 b 549 594 585 693 567 644 l 483 594 b 431 767 465 644 447 693 l 426 767 b 432 594 432 694 432 658 l 339 594 m 36 917 l 315 917 l 315 828 l 224 828 l 224 594 l 131 594 l 131 828 l 36 828 "},"°":{"ha":483,"x_min":0,"x_max":0,"o":"m 242 544 b 39 746 117 544 39 628 b 242 954 39 868 117 954 b 443 746 365 954 443 868 b 242 544 443 628 365 544 m 135 750 b 242 635 135 683 175 635 b 347 750 307 635 347 683 b 242 864 347 815 307 864 b 135 750 175 864 135 815 "},"′":{"ha":321,"x_min":0,"x_max":0,"o":"m 19 610 b 83 939 33 706 56 817 l 271 939 b 147 610 244 858 206 750 l 19 610 "},"″":{"ha":563,"x_min":0,"x_max":0,"o":"m 263 610 b 325 939 276 706 297 817 l 514 939 b 389 610 486 858 447 750 l 263 610 m 19 610 b 83 939 33 706 56 817 l 271 939 b 147 610 244 858 206 750 l 19 610 "},"|":{"ha":401,"x_min":0,"x_max":0,"o":"m 92 917 l 308 917 l 308 -236 l 92 -236 "},"¦":{"ha":401,"x_min":0,"x_max":0,"o":"m 92 222 l 308 222 l 308 -236 l 92 -236 m 92 917 l 308 917 l 308 458 l 92 458 "},"†":{"ha":575,"x_min":0,"x_max":0,"o":"m 197 549 l 35 549 l 35 711 l 197 711 l 197 917 l 378 917 l 378 711 l 542 711 l 542 549 l 378 549 l 378 181 l 197 181 "},"‡":{"ha":636,"x_min":0,"x_max":0,"o":"m 228 314 l 64 314 l 64 476 l 228 476 l 228 615 l 64 615 l 64 778 l 228 778 l 228 917 l 408 917 l 408 778 l 571 778 l 571 615 l 408 615 l 408 476 l 571 476 l 571 314 l 408 314 l 408 181 l 228 181 "},"℮":{"ha":1092,"x_min":0,"x_max":0,"o":"m 993 196 b 558 -24 911 71 754 -24 b 51 457 261 -24 51 190 b 551 939 51 722 265 939 b 1038 386 857 939 1072 692 l 267 386 l 267 174 b 554 67 333 108 424 67 b 882 196 688 67 815 119 l 993 196 m 826 478 l 826 743 b 546 849 760 807 664 849 b 267 740 428 849 333 806 l 267 478 "},"№":{"ha":1768,"x_min":0,"x_max":0,"o":"m 94 917 l 329 917 b 686 293 444 721 581 486 l 694 293 b 678 917 686 439 678 603 l 894 917 l 894 0 l 660 0 b 303 624 582 129 424 410 l 296 624 b 311 0 304 490 311 328 l 94 0 m 1019 347 b 1374 718 1019 564 1118 718 b 1728 347 1586 718 1728 608 b 1374 -22 1728 131 1629 -22 b 1019 347 1161 -22 1019 86 m 1224 347 b 1374 129 1224 222 1264 129 b 1524 347 1464 129 1524 196 b 1374 565 1524 472 1483 565 b 1224 347 1282 565 1224 499 "},"⮟":{"ha":828,"x_min":0,"x_max":0,"o":"m 414 17 l 51 644 l 414 488 l 776 644 "},"⬛":{"ha":1019,"x_min":0,"x_max":0,"o":"m 51 840 l 968 840 l 968 -76 l 51 -76 "},"⮜":{"ha":731,"x_min":0,"x_max":0,"o":"m 51 379 l 679 742 l 522 379 l 679 17 "},"⮞":{"ha":731,"x_min":0,"x_max":0,"o":"m 679 379 l 51 17 l 208 379 l 51 742 "},"⮝":{"ha":828,"x_min":0,"x_max":0,"o":"m 414 644 l 776 17 l 414 174 l 51 17 "},"⌥":{"ha":836,"x_min":0,"x_max":0,"o":"m 785 61 l 465 61 l 214 625 l 51 625 l 51 703 l 265 703 l 515 139 l 785 139 m 428 703 l 785 703 l 785 625 l 428 625 "},"⌘":{"ha":850,"x_min":0,"x_max":0,"o":"m 488 557 b 647 756 488 685 546 757 b 799 604 739 756 799 696 b 600 444 800 503 728 444 l 565 444 l 565 319 l 600 319 b 799 160 728 319 800 261 b 647 8 799 68 739 8 b 488 207 546 7 488 79 l 488 242 l 363 242 l 363 207 b 203 8 363 79 304 7 b 51 160 111 8 51 68 b 250 319 51 261 122 319 l 285 319 l 285 444 l 250 444 b 51 604 122 444 51 503 b 203 756 51 696 111 756 b 363 557 304 757 363 685 l 363 522 l 488 522 l 488 557 m 128 160 b 203 85 128 111 154 85 b 285 207 258 85 285 121 l 285 242 l 250 242 b 128 160 164 242 128 215 m 128 604 b 250 522 128 549 164 522 l 285 522 l 285 557 b 203 679 285 643 258 679 b 128 604 154 679 128 653 m 488 319 l 488 444 l 363 444 l 363 319 m 565 207 b 647 85 565 121 592 85 b 722 160 696 85 722 111 b 600 242 722 215 686 242 l 565 242 l 565 207 m 600 522 b 722 604 686 522 722 549 b 647 679 722 653 696 679 b 565 557 592 679 565 643 l 565 522 "},"⮛":{"ha":913,"x_min":0,"x_max":0,"o":"m 457 -18 l 51 683 l 457 508 l 861 683 m 457 121 l 457 433 l 217 536 "},"⮙":{"ha":913,"x_min":0,"x_max":0,"o":"m 456 679 l 861 -22 l 456 153 l 51 -22 m 696 125 l 456 540 l 456 229 "},"⮘":{"ha":804,"x_min":0,"x_max":0,"o":"m 51 374 l 753 779 l 578 374 l 753 -32 m 501 374 l 606 614 l 190 374 "},"⮚":{"ha":804,"x_min":0,"x_max":0,"o":"m 753 374 l 51 -32 l 226 374 l 51 779 m 303 374 l 614 374 l 199 614 "},"⌗":{"ha":742,"x_min":0,"x_max":0,"o":"m 296 726 l 296 535 l 447 535 l 447 726 l 525 726 l 525 535 l 714 535 l 714 457 l 525 457 l 525 307 l 714 307 l 714 229 l 525 229 l 525 39 l 447 39 l 447 229 l 296 229 l 296 39 l 218 39 l 218 229 l 28 229 l 28 307 l 218 307 l 218 457 l 28 457 l 28 535 l 218 535 l 218 726 m 447 307 l 447 457 l 296 457 l 296 307 "},"⬜":{"ha":1021,"x_min":0,"x_max":0,"o":"m 51 840 l 969 840 l 969 -76 l 51 -76 m 892 1 l 892 763 l 131 763 l 131 1 "},"¢":{"ha":754,"x_min":0,"x_max":0,"o":"m 310 44 b 51 446 151 82 51 204 b 310 843 51 651 125 801 l 310 939 l 511 939 l 511 849 b 689 799 569 840 629 825 l 689 628 b 451 688 617 661 535 688 b 243 446 328 688 243 622 b 468 197 243 288 308 197 b 701 254 539 197 613 213 l 701 85 b 511 35 649 60 585 42 l 511 -53 l 310 -53 "},"¤":{"ha":738,"x_min":0,"x_max":0,"o":"m 367 224 b 283 235 338 224 310 228 l 186 118 l 58 225 l 146 329 b 99 490 115 372 99 428 b 136 638 99 547 113 597 l 58 731 l 186 838 l 267 742 b 367 757 297 751 331 757 b 472 739 406 757 442 751 l 556 838 l 682 731 l 600 633 b 635 490 622 593 635 544 b 590 333 635 429 619 375 l 682 225 l 556 118 l 456 236 b 367 224 429 228 399 224 m 257 490 b 367 329 257 375 315 329 b 478 490 418 329 478 375 b 367 647 478 604 418 647 b 257 490 315 647 257 604 "},"$":{"ha":682,"x_min":0,"x_max":0,"o":"m 242 39 b 58 100 179 47 114 65 l 58 271 b 324 192 165 217 249 192 b 439 269 411 192 439 226 b 358 354 439 310 414 331 b 265 392 315 369 292 381 b 56 631 151 440 56 508 b 242 839 56 729 118 810 l 242 939 l 443 939 l 443 847 b 588 803 490 840 539 826 l 588 639 b 383 701 508 681 456 701 b 267 633 299 701 267 674 b 404 517 267 579 328 549 b 489 482 432 506 457 494 b 640 281 583 438 640 390 b 443 46 640 168 583 76 l 443 -53 l 242 -53 "},"€":{"ha":844,"x_min":0,"x_max":0,"o":"m 543 -21 b 156 279 346 -21 204 65 l 42 279 l 42 410 l 139 410 b 138 458 138 425 138 442 l 138 486 l 42 486 l 42 617 l 151 617 b 529 939 188 814 303 939 b 782 879 608 939 696 922 l 782 713 b 568 772 710 749 636 772 b 357 617 469 772 393 726 l 639 617 l 639 486 l 336 486 l 336 457 b 338 410 336 440 336 425 l 639 410 l 639 279 l 364 279 b 569 144 399 194 464 144 b 793 204 628 144 703 161 l 793 42 b 543 -21 729 4 644 -21 "},"£":{"ha":774,"x_min":0,"x_max":0,"o":"m 72 124 b 244 351 188 190 244 260 b 242 390 244 365 243 378 l 40 390 l 40 521 l 196 521 b 138 707 167 578 138 633 b 464 939 138 861 272 939 b 704 897 544 939 624 924 l 704 733 b 492 776 635 761 558 776 b 335 675 404 776 335 754 b 403 521 335 618 372 576 l 639 521 l 639 390 l 439 390 l 439 386 b 321 171 439 292 390 228 l 726 171 l 726 1 l 72 1 l 72 124 "},"¥":{"ha":818,"x_min":0,"x_max":0,"o":"m 300 125 l 111 125 l 111 256 l 300 256 l 300 296 l 290 319 l 111 319 l 111 449 l 233 449 l 31 917 l 256 917 b 350 658 290 815 325 719 b 404 493 368 606 389 547 l 414 493 b 469 658 429 547 450 606 l 563 917 l 788 917 l 583 449 l 708 449 l 708 319 l 526 319 l 517 296 l 517 256 l 708 256 l 708 125 l 517 125 l 517 0 l 300 0 "},"+":{"ha":833,"x_min":0,"x_max":0,"o":"m 343 292 l 86 292 l 86 435 l 343 435 l 343 718 l 489 718 l 489 435 l 747 435 l 747 292 l 489 292 l 489 10 l 343 10 "},"−":{"ha":833,"x_min":0,"x_max":0,"o":"m 99 436 l 735 436 l 735 292 l 99 292 "},"×":{"ha":833,"x_min":0,"x_max":0,"o":"m 140 210 l 314 382 l 135 563 l 238 665 l 417 486 l 592 660 l 694 557 l 519 381 l 700 204 l 597 100 l 415 279 l 243 107 "},"÷":{"ha":833,"x_min":0,"x_max":0,"o":"m 99 436 l 735 436 l 735 292 l 99 292 m 311 90 b 414 190 311 150 351 190 b 517 90 475 190 517 150 b 414 -7 517 31 475 -7 b 311 90 351 -7 311 31 m 311 632 b 414 731 311 692 351 731 b 517 632 475 731 517 692 b 414 533 517 572 475 533 b 311 632 351 533 311 572 "},"=":{"ha":833,"x_min":0,"x_max":0,"o":"m 125 611 l 710 611 l 710 467 l 125 467 m 125 264 l 710 264 l 710 119 l 125 119 "},"≠":{"ha":833,"x_min":0,"x_max":0,"o":"m 243 -21 l 282 119 l 126 119 l 126 264 l 322 264 l 378 467 l 126 467 l 126 611 l 418 611 l 457 753 l 618 753 l 579 611 l 711 611 l 711 467 l 539 467 l 483 264 l 711 264 l 711 119 l 444 119 l 406 -21 "},">":{"ha":833,"x_min":0,"x_max":0,"o":"m 100 192 b 582 390 267 258 432 326 b 100 588 432 454 267 521 l 100 746 b 750 454 317 653 532 561 l 750 325 b 100 33 532 218 317 126 l 100 192 "},"<":{"ha":833,"x_min":0,"x_max":0,"o":"m 733 33 b 83 325 517 126 301 218 l 83 454 b 733 746 301 561 517 653 l 733 588 b 251 390 567 521 401 454 b 733 192 401 326 567 258 l 733 33 "},"≥":{"ha":833,"x_min":0,"x_max":0,"o":"m 100 188 b 571 410 258 269 415 342 b 104 592 415 464 264 525 l 104 746 b 736 482 317 663 524 574 l 736 353 b 301 133 592 278 446 206 l 736 133 l 736 0 l 100 0 l 100 188 "},"≤":{"ha":833,"x_min":0,"x_max":0,"o":"m 97 0 l 97 133 l 532 133 b 97 353 388 206 242 278 l 97 482 b 729 746 310 574 517 663 l 729 592 b 263 410 569 525 418 464 b 733 188 418 342 575 269 l 733 0 "},"±":{"ha":833,"x_min":0,"x_max":0,"o":"m 99 544 l 343 544 l 343 718 l 489 718 l 489 544 l 735 544 l 735 404 l 489 404 l 489 232 l 343 232 l 343 404 l 99 404 m 99 144 l 735 144 l 735 0 l 99 0 "},"≈":{"ha":833,"x_min":0,"x_max":0,"o":"m 558 401 b 306 506 442 401 382 506 b 217 408 260 506 224 479 l 96 408 b 285 653 107 554 165 653 b 546 549 404 653 474 549 b 615 642 583 549 610 575 l 738 642 b 558 401 735 497 676 401 m 96 89 b 285 333 107 235 165 333 b 546 229 404 333 474 229 b 615 322 583 229 610 256 l 738 322 b 558 82 735 178 676 82 b 306 186 442 82 382 186 b 217 89 260 186 224 160 l 96 89 "},"~":{"ha":833,"x_min":0,"x_max":0,"o":"m 558 276 b 306 381 442 276 382 381 b 217 283 260 381 224 354 l 96 283 b 285 528 107 429 165 528 b 546 424 404 528 474 424 b 615 517 583 424 610 450 l 738 517 b 558 276 735 372 676 276 "},"¬":{"ha":753,"x_min":0,"x_max":0,"o":"m 472 281 l 71 281 l 71 486 l 682 486 l 682 107 l 472 107 "},"^":{"ha":833,"x_min":0,"x_max":0,"o":"m 668 536 l 535 536 l 418 847 l 414 847 l 297 536 l 164 536 l 331 939 l 503 939 "},"∅":{"ha":976,"x_min":0,"x_max":0,"o":"m 490 -22 b 339 4 438 -22 386 -12 l 278 -107 l 140 -53 l 211 78 b 51 417 114 158 51 281 b 490 854 51 657 247 854 b 625 833 538 854 582 847 l 682 938 l 821 879 l 757 763 b 926 417 860 682 926 557 b 490 -22 926 175 731 -22 m 228 417 b 299 238 228 347 254 283 l 536 671 b 490 675 521 674 506 675 b 228 417 344 675 228 560 m 426 163 b 490 156 447 158 468 156 b 749 417 633 156 749 271 b 669 604 749 490 718 557 l 426 163 "},"∞":{"ha":1046,"x_min":0,"x_max":0,"o":"m 289 10 b 40 346 143 10 40 121 b 294 688 40 538 115 688 b 519 522 401 688 489 633 l 526 522 b 756 688 557 615 633 688 b 1006 353 901 688 1006 578 b 751 11 1006 161 929 11 b 526 176 644 11 557 64 l 519 176 b 289 10 488 83 411 10 m 194 350 b 322 228 194 275 239 228 b 446 353 397 228 446 275 b 326 471 446 421 410 471 b 194 350 253 471 194 435 m 599 346 b 718 226 599 279 635 226 b 851 347 793 226 851 263 b 724 469 851 424 807 469 b 599 346 647 469 599 424 "},"∫":{"ha":656,"x_min":0,"x_max":0,"o":"m 81 -260 b -86 -228 11 -260 -56 -246 l -74 -75 b 46 -108 -49 -90 4 -108 b 161 31 149 -108 157 -12 l 217 676 b 506 967 226 782 243 967 b 674 935 576 967 643 953 l 660 782 b 540 815 635 797 582 815 b 425 676 438 815 431 719 l 369 31 b 81 -260 360 -75 343 -260 "},"∏":{"ha":935,"x_min":0,"x_max":0,"o":"m 624 722 l 311 722 l 311 0 l 94 0 l 94 917 l 840 917 l 840 0 l 624 0 "},"∑":{"ha":789,"x_min":0,"x_max":0,"o":"m 94 178 l 392 469 l 94 739 l 94 917 l 721 917 l 721 739 l 372 739 l 588 543 l 588 386 l 382 178 l 731 178 l 731 0 l 94 0 "},"√":{"ha":924,"x_min":0,"x_max":0,"o":"m 8 694 l 217 694 l 354 171 l 364 171 l 585 917 l 919 917 l 919 725 l 731 725 l 488 0 l 229 0 "},"µ":{"ha":800,"x_min":0,"x_max":0,"o":"m 69 694 l 279 694 l 279 288 b 379 135 279 228 290 135 b 517 275 454 135 501 199 l 517 694 l 725 694 l 725 0 l 522 0 l 522 118 l 517 118 b 279 -24 475 36 399 -24 l 279 -236 l 69 -236 "},"μ":{"ha":800,"x_min":0,"x_max":0,"o":"m 69 -236 l 279 -236 l 279 -24 b 517 118 399 -24 475 36 l 522 118 l 522 0 l 725 0 l 725 694 l 517 694 l 517 275 b 379 135 501 199 454 135 b 279 288 290 135 279 228 l 279 694 l 69 694 "},"∂":{"ha":782,"x_min":0,"x_max":0,"o":"m 383 -22 b 38 297 178 -22 38 79 b 324 603 38 481 128 603 b 540 501 403 603 482 575 l 547 501 b 207 833 525 699 400 804 l 207 968 b 738 394 529 938 738 757 b 383 -22 738 151 639 -22 m 238 313 b 388 131 238 206 288 131 b 532 299 471 131 532 181 b 378 478 532 417 471 478 b 238 313 282 478 238 414 "},"%":{"ha":1294,"x_min":0,"x_max":0,"o":"m 281 358 b 38 649 135 358 38 440 b 281 939 38 824 106 939 b 524 649 428 939 524 858 b 281 358 524 475 456 358 m 190 649 b 281 483 190 550 217 483 b 371 649 335 483 371 529 b 281 815 371 747 346 814 b 190 649 226 815 190 768 m 854 917 l 944 868 l 444 7 l 354 56 m 769 268 b 1013 558 769 443 838 558 b 1256 268 1158 558 1256 478 b 1013 -22 1256 94 1188 -22 b 769 268 867 -22 769 60 m 922 268 b 1013 103 922 169 949 103 b 1103 268 1067 103 1103 149 b 1013 435 1103 367 1078 433 b 922 268 958 435 922 388 "},"‰":{"ha":1838,"x_min":0,"x_max":0,"o":"m 278 358 b 35 649 132 358 35 440 b 278 939 35 824 103 939 b 521 649 424 939 521 858 b 278 358 521 475 453 358 m 188 649 b 278 483 188 550 214 483 b 368 649 332 483 368 529 b 278 815 368 747 343 814 b 188 649 224 815 188 768 m 851 917 l 942 868 l 440 7 l 350 56 m 767 268 b 1010 558 767 443 835 558 b 1253 268 1156 558 1253 478 b 1010 -22 1253 94 1185 -22 b 767 268 864 -22 767 60 m 919 268 b 1010 103 919 169 946 103 b 1100 268 1064 103 1100 149 b 1010 435 1100 367 1075 433 b 919 268 956 435 919 388 m 1317 268 b 1560 558 1317 443 1383 558 b 1803 268 1706 558 1803 478 b 1560 -22 1803 94 1735 -22 b 1317 268 1414 -22 1317 60 m 1469 268 b 1560 103 1469 169 1496 103 b 1650 268 1613 103 1650 149 b 1560 435 1650 367 1624 433 b 1469 268 1506 435 1469 388 "},"↑":{"ha":758,"x_min":0,"x_max":0,"o":"m 308 60 b 315 674 308 243 308 472 b 140 475 256 593 194 529 l 24 564 b 381 901 136 676 260 796 b 735 564 500 796 624 676 l 618 475 b 444 674 564 529 504 593 b 450 60 450 472 450 243 l 308 60 "},"↗":{"ha":738,"x_min":0,"x_max":0,"o":"m 36 214 b 436 681 156 356 301 531 b 175 642 339 658 251 649 l 143 785 b 633 814 301 799 472 810 b 688 328 657 656 674 485 l 542 335 b 535 599 535 411 529 499 b 144 124 410 440 264 265 l 36 214 "},"→":{"ha":919,"x_min":0,"x_max":0,"o":"m 457 233 b 654 408 511 288 575 349 b 40 403 453 403 225 403 l 40 543 b 654 538 225 543 453 543 b 457 713 575 597 511 658 l 546 829 b 883 472 657 717 776 593 b 546 117 776 351 657 229 l 457 233 "},"↘":{"ha":736,"x_min":0,"x_max":0,"o":"m 174 278 b 435 239 250 271 338 261 b 35 706 300 389 153 564 l 143 796 b 533 321 261 654 408 479 b 539 585 528 421 533 508 l 686 592 b 631 106 672 435 656 264 b 140 135 471 110 299 121 l 174 278 "},"↓":{"ha":758,"x_min":0,"x_max":0,"o":"m 381 54 b 24 392 260 160 136 279 l 140 481 b 315 282 194 426 256 363 b 308 896 308 483 308 713 l 450 896 b 444 282 450 713 450 483 b 618 481 504 363 564 426 l 735 392 b 381 54 624 279 500 160 "},"↙":{"ha":736,"x_min":0,"x_max":0,"o":"m 594 135 b 106 106 438 121 265 110 b 50 592 81 264 64 435 l 197 585 b 203 321 203 508 208 421 b 593 796 328 479 475 654 l 701 706 b 301 239 583 564 436 389 b 563 278 399 261 486 271 l 594 135 "},"←":{"ha":919,"x_min":0,"x_max":0,"o":"m 374 117 b 36 472 261 229 142 351 b 374 829 142 593 261 717 l 463 713 b 264 538 408 658 344 597 b 879 543 467 543 694 543 l 879 403 b 264 408 694 403 467 403 b 463 233 344 349 408 288 l 374 117 "},"↖":{"ha":738,"x_min":0,"x_max":0,"o":"m 50 328 b 106 814 64 485 81 656 b 594 785 265 810 438 799 l 563 642 b 301 681 486 649 399 658 b 701 214 436 531 583 356 l 593 124 b 203 599 475 265 328 440 b 197 335 208 499 203 411 l 50 328 "},"↔":{"ha":1283,"x_min":0,"x_max":0,"o":"m 371 118 b 33 472 260 231 139 353 b 371 829 139 593 260 717 l 460 713 b 261 539 406 658 342 597 l 1021 539 b 822 713 940 597 878 658 l 911 829 b 1249 472 1024 717 1143 593 b 911 118 1143 353 1024 231 l 822 235 b 1021 408 878 289 940 349 l 261 408 b 460 235 342 349 406 289 l 371 118 "},"↕":{"ha":772,"x_min":0,"x_max":0,"o":"m 388 -156 b 31 182 267 -50 143 69 l 147 271 b 317 81 200 218 258 157 b 322 739 318 300 319 519 b 147 540 263 658 201 594 l 31 629 b 388 967 143 742 267 861 b 742 629 507 861 631 742 l 625 540 b 451 739 571 594 511 658 b 457 81 453 519 456 300 b 625 271 514 157 574 218 l 742 182 b 388 -156 631 69 507 -50 "},"⇧":{"ha":978,"x_min":0,"x_max":0,"o":"m 926 304 l 692 304 l 692 -8 l 286 -8 l 286 304 l 51 304 l 489 790 m 364 382 l 364 71 l 614 71 l 614 382 l 753 382 l 489 675 l 225 382 "},"●":{"ha":768,"x_min":0,"x_max":0,"o":"m 383 50 b 51 382 200 50 51 199 b 383 714 51 565 200 714 b 717 382 567 714 717 565 b 383 50 717 199 567 50 "},"○":{"ha":768,"x_min":0,"x_max":0,"o":"m 385 50 b 51 382 201 50 51 199 b 385 714 51 565 200 714 b 717 382 567 714 717 565 b 385 50 717 199 568 50 m 129 382 b 385 128 129 242 243 128 b 639 382 525 128 639 242 b 385 636 639 522 525 636 b 129 382 243 636 129 522 "},"◆":{"ha":814,"x_min":0,"x_max":0,"o":"m 51 382 l 407 738 l 763 382 l 407 26 "},"◇":{"ha":844,"x_min":0,"x_max":0,"o":"m 51 382 l 422 753 l 793 382 l 422 11 m 422 121 l 685 382 l 422 643 l 161 382 "},"◊":{"ha":668,"x_min":0,"x_max":0,"o":"m 636 454 l 383 926 l 285 926 l 33 454 l 285 -18 l 383 -18 m 188 454 b 331 735 236 543 283 631 l 338 735 b 481 454 386 631 433 543 b 338 174 433 365 386 278 l 331 174 b 188 454 283 278 236 365 "},"■":{"ha":699,"x_min":0,"x_max":0,"o":"m 51 681 l 647 681 l 647 85 l 51 85 "},"□":{"ha":700,"x_min":0,"x_max":0,"o":"m 51 681 l 649 681 l 649 85 l 51 85 m 571 163 l 571 603 l 131 603 l 131 163 "},"▲":{"ha":828,"x_min":0,"x_max":0,"o":"m 414 644 l 776 17 l 51 17 "},"▶":{"ha":731,"x_min":0,"x_max":0,"o":"m 679 379 l 51 17 l 51 742 "},"▼":{"ha":828,"x_min":0,"x_max":0,"o":"m 414 17 l 51 644 l 776 644 "},"◀":{"ha":731,"x_min":0,"x_max":0,"o":"m 51 379 l 679 742 l 679 17 "},"△":{"ha":874,"x_min":0,"x_max":0,"o":"m 438 683 l 822 17 l 51 17 m 688 94 l 438 529 l 186 94 "},"▷":{"ha":769,"x_min":0,"x_max":0,"o":"m 717 374 l 51 -12 l 51 758 m 563 374 l 128 625 l 128 122 "},"▽":{"ha":874,"x_min":0,"x_max":0,"o":"m 436 -22 l 51 644 l 822 644 m 436 132 l 688 567 l 186 567 "},"◁":{"ha":769,"x_min":0,"x_max":0,"o":"m 51 374 l 717 758 l 717 -12 m 642 122 l 642 625 l 207 374 "},"̈":{"ha":0,"x_min":0,"x_max":0,"o":"m 397 814 b 303 894 338 814 303 836 b 397 974 303 942 325 974 b 490 894 465 974 490 946 b 397 814 490 839 461 814 m 63 894 b 156 974 63 942 83 974 b 250 894 225 974 250 946 b 156 814 250 839 219 814 b 63 894 96 814 63 836 "},"̇":{"ha":0,"x_min":0,"x_max":0,"o":"m 172 793 b 63 879 99 793 63 817 b 172 964 63 931 86 964 b 283 879 256 964 283 933 b 172 793 283 821 250 793 "},"̀":{"ha":0,"x_min":0,"x_max":0,"o":"m 63 978 l 304 978 l 386 792 l 204 792 "},"́":{"ha":0,"x_min":0,"x_max":0,"o":"m 144 978 l 386 978 l 244 792 l 63 792 "},"̋":{"ha":0,"x_min":0,"x_max":0,"o":"m 413 978 l 629 978 l 486 792 l 331 792 m 144 978 l 363 978 l 218 792 l 63 792 "},"̂":{"ha":0,"x_min":0,"x_max":0,"o":"m 210 978 l 426 978 l 574 792 l 392 792 b 318 901 372 817 340 858 b 243 792 294 858 264 817 l 63 792 "},"̌":{"ha":0,"x_min":0,"x_max":0,"o":"m 63 978 l 244 978 b 318 860 264 953 294 907 b 390 978 340 906 371 953 l 574 978 l 426 792 l 210 792 "},"̆":{"ha":0,"x_min":0,"x_max":0,"o":"m 292 800 b 63 972 168 800 74 865 l 208 972 b 296 901 217 925 250 901 b 385 972 342 901 376 925 l 531 972 b 301 800 518 865 414 800 l 292 800 "},"̊":{"ha":0,"x_min":0,"x_max":0,"o":"m 185 769 b 63 885 122 769 63 806 b 185 1000 63 954 114 1001 b 307 885 246 999 307 963 b 185 769 307 815 256 769 m 139 886 b 185 839 139 858 154 839 b 229 885 213 839 229 854 b 185 932 229 911 215 932 b 139 886 157 932 139 915 "},"̃":{"ha":0,"x_min":0,"x_max":0,"o":"m 339 928 b 460 975 394 928 433 954 l 460 860 b 332 811 439 843 389 811 b 167 846 274 811 231 846 b 63 811 131 846 94 835 l 63 922 b 176 964 81 939 124 964 b 339 928 239 964 278 928 "},"̄":{"ha":0,"x_min":0,"x_max":0,"o":"m 63 950 l 478 950 l 478 824 l 63 824 "},"̒":{"ha":0,"x_min":0,"x_max":0,"o":"m 204 978 l 386 978 l 304 792 l 63 792 "},"̣":{"ha":0,"x_min":0,"x_max":0,"o":"m 172 -235 b 63 -149 99 -235 63 -211 b 172 -64 63 -97 86 -64 b 283 -149 256 -64 283 -94 b 172 -235 283 -207 250 -235 "},"̦":{"ha":0,"x_min":0,"x_max":0,"o":"m 136 -56 l 375 -56 l 244 -236 l 63 -236 "},"̧":{"ha":0,"x_min":0,"x_max":0,"o":"m 143 17 l 290 17 l 249 -181 l 63 -181 "},"̨":{"ha":0,"x_min":0,"x_max":0,"o":"m 199 -260 b 63 -146 115 -260 63 -214 b 201 14 63 -61 150 -8 l 272 0 b 168 -115 232 -19 168 -58 b 226 -167 168 -146 188 -167 b 313 -139 264 -167 301 -149 l 313 -229 b 199 -260 279 -249 239 -260 "},"̵":{"ha":0,"x_min":0,"x_max":0,"o":"m 63 460 l 543 460 l 543 332 l 63 332 "},"̶":{"ha":0,"x_min":0,"x_max":0,"o":"m 63 464 l 569 464 l 569 311 l 63 311 "},"̷":{"ha":0,"x_min":0,"x_max":0,"o":"m 63 401 l 508 603 l 508 386 l 63 185 "},"̸":{"ha":0,"x_min":0,"x_max":0,"o":"m 63 533 l 563 761 l 563 544 l 63 317 "},"¨":{"ha":553,"x_min":0,"x_max":0,"o":"m 397 814 b 303 894 338 814 303 836 b 397 974 303 942 325 974 b 490 894 465 974 490 946 b 397 814 490 839 461 814 m 63 894 b 156 974 63 942 83 974 b 250 894 225 974 250 946 b 156 814 250 839 219 814 b 63 894 96 814 63 836 "},"˙":{"ha":346,"x_min":0,"x_max":0,"o":"m 172 793 b 63 879 99 793 63 817 b 172 964 63 931 86 964 b 283 879 256 964 283 933 b 172 793 283 821 250 793 "},"`":{"ha":449,"x_min":0,"x_max":0,"o":"m 63 978 l 304 978 l 386 792 l 204 792 "},"´":{"ha":449,"x_min":0,"x_max":0,"o":"m 144 978 l 386 978 l 244 792 l 63 792 "},"˝":{"ha":692,"x_min":0,"x_max":0,"o":"m 413 978 l 629 978 l 486 792 l 331 792 m 144 978 l 363 978 l 218 792 l 63 792 "},"ˆ":{"ha":635,"x_min":0,"x_max":0,"o":"m 210 978 l 426 978 l 574 792 l 392 792 b 318 901 372 817 340 858 b 243 792 294 858 264 817 l 63 792 "},"ˇ":{"ha":635,"x_min":0,"x_max":0,"o":"m 63 978 l 244 978 b 318 860 264 953 294 907 b 390 978 340 906 371 953 l 574 978 l 426 792 l 210 792 "},"˘":{"ha":592,"x_min":0,"x_max":0,"o":"m 292 800 b 63 972 168 800 74 865 l 208 972 b 296 901 217 925 250 901 b 385 972 342 901 376 925 l 531 972 b 301 800 518 865 414 800 l 292 800 "},"˚":{"ha":368,"x_min":0,"x_max":0,"o":"m 185 769 b 63 885 122 769 63 806 b 185 1000 63 954 114 1001 b 307 885 246 999 307 963 b 185 769 307 815 256 769 m 139 886 b 185 839 139 858 154 839 b 229 885 213 839 229 854 b 185 932 229 911 215 932 b 139 886 157 932 139 915 "},"˜":{"ha":522,"x_min":0,"x_max":0,"o":"m 339 928 b 460 975 394 928 433 954 l 460 860 b 332 811 439 843 389 811 b 167 846 274 811 231 846 b 63 811 131 846 94 835 l 63 922 b 176 964 81 939 124 964 b 339 928 239 964 278 928 "},"¯":{"ha":540,"x_min":0,"x_max":0,"o":"m 63 950 l 478 950 l 478 824 l 63 824 "},"¸":{"ha":353,"x_min":0,"x_max":0,"o":"m 143 17 l 290 17 l 249 -181 l 63 -181 "},"˛":{"ha":375,"x_min":0,"x_max":0,"o":"m 199 -260 b 63 -146 115 -260 63 -214 b 201 14 63 -61 150 -8 l 272 0 b 168 -115 232 -19 168 -58 b 226 -167 168 -146 188 -167 b 313 -139 264 -167 301 -149 l 313 -229 b 199 -260 279 -249 239 -260 "}}}
